<?xml version="1.0" standalone="no"?>
<!DOCTYPE svg PUBLIC "-//W3C//DTD SVG 1.1//EN" "http://www.w3.org/Graphics/SVG/1.1/DTD/svg11.dtd" >
<svg>
<metadata>
Created by FontForge 20090914 at Tue Jul 29 16:48:42 2014
 By www-data
Copyright (c) 2009-2011 by Accademia di Belle Arti di Urbino and students of MA course of Visual design. Some rights reserved.
</metadata>
<defs>
<font id="TitilliumWeb-Bold" horiz-adv-x="560" >
  <font-face 
    font-family="Titillium Web"
    font-weight="700"
    font-stretch="normal"
    units-per-em="1000"
    panose-1="0 0 8 0 0 0 0 0 0 0"
    ascent="800"
    descent="-200"
    x-height="500"
    cap-height="680"
    bbox="-224 -311.002 1059 1114"
    underline-thickness="30"
    underline-position="-80"
    unicode-range="U+0020-U+F6C3"
  />
<missing-glyph horiz-adv-x="235" 
 />
    <glyph glyph-name=".notdef" horiz-adv-x="235" 
 />
    <glyph glyph-name="space" unicode=" " horiz-adv-x="220" 
 />
    <glyph glyph-name="exclam" unicode="!" horiz-adv-x="280" 
d="M68 0v161h144v-161h-144zM81 250l-13 430h145l-14 -430h-118z" />
    <glyph glyph-name="quotedbl" unicode="&#x22;" horiz-adv-x="411" 
d="M350 440h-118l-4 240h129zM178 440h-118l-5 240h129z" />
    <glyph glyph-name="numbersign" unicode="#" 
d="M544 149h-96v-149h-116v149h-104v-149h-116v149h-96v112h96v126h-96v112h96v161h116v-161h104v161h116v-161h96v-112h-96v-126h96v-112zM332 261v126h-104v-126h104z" />
    <glyph glyph-name="dollar" unicode="$" 
d="M508 199c0 -69.333 -21.001 -121.834 -63.001 -157.501s-97 -53.5 -165 -53.5h-1l-15 -118c-49.333 2 -74 4.33301 -74 7l14 116c-49.333 6 -90.666 13 -123.999 21l-20 4l13 104c52.667 -7.33301 101.334 -12.333 146.001 -15l22 174
c-68.667 20.667 -117.334 45.667 -146.001 75s-43 69.333 -43 120c0 66 20 115.167 60 147.5s95 48.5 165 48.5h13l18 138h74l-18 -144c41.333 -4 79.333 -9.33301 114 -16l17 -4l-11 -106c-48.667 5.33301 -93.667 9.33301 -135 12l-20 -161
c69.333 -22 116.5 -46.167 141.5 -72.5s37.5 -66.166 37.5 -119.499zM184.999 484.999c0 -16 5 -29 15 -39s29.333 -20.333 58 -31l17 139c-60 -2.66699 -90 -25.667 -90 -69zM374.999 189.999c0 16 -4.5 29.168 -13.5 39.501s-25.167 20.166 -48.5 29.499l-19 -153
c54 6 81 34 81 84z" />
    <glyph glyph-name="percent" unicode="%" 
d="M125 -8l235 707l73 -26l-235 -705zM134 672c80 0 120 -48.5 120 -145.5s-40 -145.5 -120 -145.5s-120 48.5 -120 145.5s40 145.5 120 145.5zM112 527c0 -24 1.5 -41 4.5 -51s8.83301 -15 17.5 -15s14.5 5 17.5 15s4.5 27 4.5 51s-1.5 40.833 -4.5 50.5
s-8.83301 14.5 -17.5 14.5s-14.5 -4.83301 -17.5 -14.5s-4.5 -26.5 -4.5 -50.5zM426 279c80 0 120 -48.5 120 -145.5s-40 -145.5 -120 -145.5s-120 48.5 -120 145.5s40 145.5 120 145.5zM404 134c0 -24 1.5 -41 4.5 -51s8.83301 -15 17.5 -15s14.5 5 17.5 15s4.5 27 4.5 51
s-1.5 40.833 -4.5 50.5s-8.83301 14.5 -17.5 14.5s-14.5 -4.83301 -17.5 -14.5s-4.5 -26.5 -4.5 -50.5z" />
    <glyph glyph-name="ampersand" unicode="&#x26;" horiz-adv-x="701" 
d="M167 671.5c37.333 27 87.8311 40.499 151.498 40.499s113.167 -13.833 148.5 -41.5s53 -65.5 53 -113.5s-10 -85.667 -30 -113s-55.667 -59 -107 -95l98 -98c4 10 8 29.333 12 58s6.33301 52 7 70l130 -3c-10 -77.333 -27 -145 -51 -203l112 -98l-76 -87l-106 87
c-23.333 -25.333 -53.166 -46.166 -89.499 -62.499s-74.833 -24.5 -115.5 -24.5c-97.333 0 -166.5 17.5 -207.5 52.5s-61.5 86.833 -61.5 155.5c0 54 11.333 96.5 34 127.5s58.667 56.167 108 75.5c-27.333 33.333 -45.166 60.333 -53.499 81s-12.5 47.667 -12.5 81
c0 46.667 18.667 83.5 56 110.5zM286.998 107.999c26.667 0 52.667 3.66699 78 11s43 17 53 29l-173 173c-49.333 -24 -74 -62 -74 -114c0 -66 38.667 -99 116 -99zM246.998 530.999c0 -26.667 15.001 -56 45.001 -88l17 -18c27.333 20 46.666 37.833 57.999 53.5
s17 34.5 17 56.5c0 42 -22.833 63 -68.5 63s-68.5 -22.333 -68.5 -67z" />
    <glyph glyph-name="quotesingle" unicode="'" horiz-adv-x="239" 
d="M60 440l-4 240h129l-7 -240h-118z" />
    <glyph glyph-name="parenleft" unicode="(" horiz-adv-x="308" 
d="M186 301c0 -58.667 7.99707 -123.5 23.9971 -194.5s32 -127.167 48 -168.5l23 -63h-127c-9.33301 14.667 -21.666 39.334 -36.999 74.001s-28.166 67.667 -38.499 99s-19.666 70.166 -27.999 116.499s-12.5 91.833 -12.5 136.5s4 90.667 12 138s17.667 88.666 29 123.999
c24 74.667 45 129.334 63 164.001l12 23h127c-22.667 -58 -44.167 -132.667 -64.5 -224s-30.5 -166.333 -30.5 -225z" />
    <glyph glyph-name="parenright" unicode=")" horiz-adv-x="308" 
d="M270 301c0 -44.667 -3.99707 -89.832 -11.9971 -135.499s-17.667 -85.167 -29 -118.5c-24 -70 -45 -120.333 -63 -151l-12 -21h-127c22.667 51.333 44.167 120.5 64.5 207.5s30.5 159.833 30.5 218.5s-7.83301 125.5 -23.5 200.5s-31.5 135.167 -47.5 180.5l-24 68h127
c9.33301 -16.667 21.666 -43.834 36.999 -81.501s28.166 -73.167 38.499 -106.5s19.666 -74 27.999 -122s12.5 -94.333 12.5 -139z" />
    <glyph glyph-name="asterisk" unicode="*" horiz-adv-x="425" 
d="M389 499h-123l38 -120l-73 -22l-41 121l-103 -79l-47 59l105 78l-102 73l46 63l101 -73l39 121l75 -25l-38 -122h123v-74z" />
    <glyph glyph-name="plus" unicode="+" 
d="M50 191v120h169v168h120v-168h171v-120h-171v-170h-120v170h-169z" />
    <glyph glyph-name="comma" unicode="," horiz-adv-x="263" 
d="M20 -123l50 260h148l-90 -260h-108z" />
    <glyph glyph-name="hyphen" unicode="-" horiz-adv-x="408" 
d="M56 205v122h296v-122h-296z" />
    <glyph glyph-name="period" unicode="." horiz-adv-x="256" 
d="M56 0v166h144v-166h-144z" />
    <glyph glyph-name="slash" unicode="/" horiz-adv-x="466" 
d="M31 8l288 710l118 -42l-288 -710z" />
    <glyph glyph-name="zero" unicode="0" 
d="M280 672c84.667 0 148.5 -27.333 191.5 -82s64.5 -142.5 64.5 -263.5s-21.333 -207.667 -64 -260s-106.667 -78.5 -192 -78.5s-149.333 26.167 -192 78.5s-64 139 -64 260s21.5 208.833 64.5 263.5s106.833 82 191.5 82zM368 502.5c-17.333 33 -46.5 49.5 -87.5 49.5
s-70.333 -16.667 -88 -50s-26.5 -91 -26.5 -173s9 -139.333 27 -172s47.333 -49 88 -49s69.667 16.333 87 49s26 90.167 26 172.5s-8.66699 140 -26 173z" />
    <glyph glyph-name="one" unicode="1" 
d="M418 660v-660h-138v504l-143 -92l-63 103l218 145h126z" />
    <glyph glyph-name="two" unicode="2" 
d="M493 0l-427.999 0.000976562v117l141 143c50 51.333 84.833 90.666 104.5 117.999s29.5 56.5 29.5 87.5s-8.16699 52.833 -24.5 65.5s-39.5 19 -69.5 19c-44.667 0 -93.334 -4 -146.001 -12l-24 -3l-7 107c65.333 20 133 30 203 30c140 0 210 -63 210 -189
c0 -49.333 -10.667 -92 -32 -128s-60 -79.667 -116 -131l-115 -104h274v-120z" />
    <glyph glyph-name="three" unicode="3" 
d="M62 636c61.333 24 129.833 35.999 205.5 35.999s130.834 -14.5 165.501 -43.5s52 -75.5 52 -139.5s-25.667 -113 -77 -147c32 -17.333 54.833 -35.333 68.5 -54s20.5 -48.334 20.5 -89.001c0 -71.333 -17.833 -124.333 -53.5 -159s-92.834 -52 -171.501 -52
c-58 0 -119 8.66699 -183 26l-32 8l7 105c74.667 -12.667 137.334 -19 188.001 -19c68.667 0 103 29.333 103 88c0 24.667 -8.83301 44.334 -26.5 59.001s-40.834 22 -69.501 22h-133v114h133c22 0 41.5 9.33301 58.5 28s25.5 39.334 25.5 62.001c0 47.333 -33 71 -99 71
c-46 0 -95 -4.66699 -147 -14l-26 -4z" />
    <glyph glyph-name="four" unicode="4" 
d="M320 0v109h-280v105l163 446h152l-177 -431h142v185h138v-185h63v-120h-63v-109h-138z" />
    <glyph glyph-name="five" unicode="5" 
d="M490 660l0.00195312 -119.998h-295l-17 -143c41.333 16 80.666 24 117.999 24c142.667 0 214 -66.333 214 -199c0 -74.667 -19.667 -132.334 -59 -173.001s-95 -61 -167 -61c-30.667 0 -65.5 3 -104.5 9s-70.167 12.333 -93.5 19l-36 9l15 102
c80.667 -12.667 148 -19 202 -19c32.667 0 57.667 8.66699 75 26s26 42.166 26 74.499s-7.33301 55.833 -22 70.5s-35.334 22 -62.001 22c-44.667 0 -84 -4.33301 -118 -13l-15 -4l-82 19l18 357h403z" />
    <glyph glyph-name="six" unicode="6" 
d="M496 537c-68 10 -127 15 -177 15c-94.667 0 -142 -51.333 -142 -154l21 6c44 12.667 79 19 105 19c75.333 0 132 -17.333 170 -52s57 -88.5 57 -161.5s-21.333 -128.167 -64 -165.5s-104.5 -56 -185.5 -56s-142.167 29.5 -183.5 88.5s-62 145.833 -62 260.5
s23.667 199.167 71 253.5s115.333 81.5 204 81.5c52 0 107.667 -7.33301 167 -22l31 -7zM291 303c-31.333 0 -64 -5.66699 -98 -17l-17 -5c0 -115.333 37.333 -173 112 -173c32 0 56.667 8.83301 74 26.5s26 42.5 26 74.5c0 62.667 -32.333 94 -97 94z" />
    <glyph glyph-name="seven" unicode="7" 
d="M69 537v123h422v-156l-235 -516l-128 36l225 481v32h-284z" />
    <glyph glyph-name="eight" unicode="8" 
d="M278 672c72.667 0 131.332 -16.0049 175.999 -48.0049s67 -76.333 67 -133c0 -38.667 -4.66699 -67.667 -14 -87s-28.666 -40.666 -57.999 -63.999c29.333 -24.667 50.333 -48 63 -70s19 -52.333 19 -91c0 -65.333 -23.333 -113.5 -70 -144.5s-107.667 -46.5 -183 -46.5
c-166.667 0 -250 60 -250 180c0 42.667 6.5 75.834 19.5 99.501s34.167 47.834 63.5 72.501c-28 22.667 -47 44.834 -57 66.501s-15 50.167 -15 85.5c0 56.667 21.667 100.834 65 132.501s101.333 47.5 174 47.5zM175.998 199.995c0 -58.667 34.5 -88 103.5 -88
s103.5 29.333 103.5 88c0 34.667 -19.667 59.667 -59 75h-88c-40 -15.333 -60 -40.333 -60 -75zM279.998 547.995c-30 0 -53 -6.66797 -69 -20.001s-24 -33.666 -24 -60.999s16.333 -52.333 49 -75h88c32.667 22.667 49 48.667 49 78c0 52 -31 78 -93 78z" />
    <glyph glyph-name="nine" unicode="9" 
d="M248 108c88.667 0 133 54 133 162l-21 -7c-46 -15.333 -81 -23 -105 -23c-72.667 0 -128.667 17.667 -168 53s-59 87.833 -59 157.5s21.667 124 65 163s104.833 58.5 184.5 58.5s140.5 -29.5 182.5 -88.5s63 -146.667 63 -263s-23.333 -200.833 -70 -253.5
s-115 -79 -205 -79c-52 0 -107.667 7.33301 -167 22l-31 7l12 106c68 -10 130 -15 186 -15zM267 360c30.667 0 63.667 6 99 18l16 5c0 112.667 -37.333 169 -112 169c-32 0 -56.667 -8.83301 -74 -26.5s-26 -42.5 -26 -74.5c0 -60.667 32.333 -91 97 -91z" />
    <glyph glyph-name="colon" unicode=":" horiz-adv-x="256" 
d="M56 289v166h144v-166h-144zM56 0v166h144v-166h-144z" />
    <glyph glyph-name="semicolon" unicode=";" horiz-adv-x="279" 
d="M77 137h148l-90 -260h-108zM69 289v166h144v-166h-144z" />
    <glyph glyph-name="less" unicode="&#x3c;" 
d="M472 353l-261 -99l261 -108v-136l-406 186v110l406 183v-136z" />
    <glyph glyph-name="equal" unicode="=" 
d="M58 295v121h444v-121h-444zM58 87v121h444v-121h-444z" />
    <glyph glyph-name="greater" unicode="&#x3e;" 
d="M349 254l-261 99v136l406 -183v-110l-406 -186v136z" />
    <glyph glyph-name="question" unicode="?" horiz-adv-x="437" 
d="M356.5 653c32.333 -26 48.499 -65 48.499 -117s-5.16699 -89.833 -15.5 -113.5s-32.166 -48 -65.499 -73s-54.333 -44.167 -63 -57.5s-13 -28 -13 -44v-31h-107c-20.667 22.667 -31 53 -31 91c0 24 21.167 53 63.5 87s68.333 57.5 78 70.5s14.5 28.833 14.5 47.5
c0 39.333 -28.333 59 -85 59c-40 0 -81 -4 -123 -12l-21 -4l-7 101c57.333 23.333 118 35 182 35s112.167 -13 144.5 -39zM118.999 0v161h144v-161h-144z" />
    <glyph glyph-name="at" unicode="@" horiz-adv-x="973" 
d="M944 305v-7.99902c0 -102.667 -16.167 -177.834 -48.5 -225.501s-80.5 -71.5 -144.5 -71.5c-47.333 0 -86 12 -116 36c-6.66699 5.33301 -12.334 12 -17.001 20c-53.333 -37.333 -102.666 -56 -147.999 -56c-62.667 0 -109.5 19.5 -140.5 58.5s-46.5 102 -46.5 189
s14.5 150.833 43.5 191.5s78.167 61 147.5 61c23.333 0 48.666 -6 75.999 -18l15 -7v13h134v-179c0 -92 1.83301 -144.667 5.5 -158s7.66699 -22.666 12 -27.999s8.83301 -8.5 13.5 -9.5s11 -1.5 19 -1.5c21.333 0 36.833 13 46.5 39s14.5 74.667 14.5 146v9
c0 106.667 -24.5 184.167 -73.5 232.5s-127 72.5 -234 72.5s-188.833 -30.667 -245.5 -92s-85 -150.5 -85 -267.5s25.333 -203.333 76 -259s135.667 -83.5 255 -83.5l143 9l5 -117c-60 -6.66699 -109.333 -10 -148 -10c-76.667 0 -142.667 7.66699 -198 23
s-103.666 40.666 -144.999 75.999c-81.333 71.333 -122 195 -122 371c0 154 41.667 270.5 125 349.5s197.333 118.5 342 118.5s254 -36.167 328 -108.5s111 -177.5 111 -315.5zM481 118.001c25.333 0 55.333 8.33301 90 25c-4 24 -6 59.333 -6 106v123
c-28 6.66699 -48.333 10 -61 10c-34.667 0 -57.5 -9.66699 -68.5 -29s-16.5 -53.333 -16.5 -102c0 -88.667 20.667 -133 62 -133z" />
    <glyph glyph-name="A" unicode="A" horiz-adv-x="602" 
d="M17 0l153 680h262l153 -680h-138l-27 123h-238l-27 -123h-138zM277 566l-69 -323h186l-69 323h-48z" />
    <glyph glyph-name="B" unicode="B" horiz-adv-x="609" 
d="M74 680l266.999 -0.00195312c70.667 0 123.667 -14.167 159 -42.5s53 -74.166 53 -137.499c0 -38 -5.66699 -68.167 -17 -90.5s-30.666 -42.166 -57.999 -59.499c30 -12.667 52.167 -31 66.5 -55s21.5 -57.333 21.5 -100c0 -66 -19.333 -115 -58 -147s-93 -48 -163 -48
h-271v680zM337.999 283.998h-126v-166h126c30 0 52.167 6 66.5 18s21.5 34 21.5 66c0 54.667 -29.333 82 -88 82zM333.999 561.998h-122v-162h123c52 0 78 27 78 81s-26.333 81 -79 81z" />
    <glyph glyph-name="C" unicode="C" horiz-adv-x="543" 
d="M505 11c-70.667 -15.333 -134.332 -22.998 -190.999 -22.998s-102 7 -136 21s-60.667 36.333 -80 67s-32.666 66.667 -39.999 108s-11 93.333 -11 156c0 131.333 18.5 222.833 55.5 274.5s105.167 77.5 204.5 77.5c57.333 0 123.666 -9 198.999 -27l-4 -110
c-66 10 -120.833 15 -164.5 15s-74.834 -5.83301 -93.501 -17.5s-32.5 -33.834 -41.5 -66.501s-13.5 -88.334 -13.5 -167.001s9.16699 -133.167 27.5 -163.5s55 -45.5 110 -45.5s113.5 4.66699 175.5 14z" />
    <glyph glyph-name="D" unicode="D" horiz-adv-x="638" 
d="M303 0l-229.001 -0.00390625v680h229c58.667 0 107 -6.16699 145 -18.5s67.5 -32.666 88.5 -60.999s35.5 -61.666 43.5 -99.999s12 -88.166 12 -149.499s-3.66699 -112.166 -11 -152.499s-21.166 -76.333 -41.499 -108s-49.833 -54.667 -88.5 -69s-88 -21.5 -148 -21.5z
M447.999 269.996c1.33301 21.333 2 50.8311 2 88.498s-1.33301 67.834 -4 90.501s-9 43.334 -19 62.001s-24.833 31.5 -44.5 38.5s-46.167 10.5 -79.5 10.5h-91v-440h91c50 0 86.333 12.667 109 38c19.333 20.667 31.333 58 36 112z" />
    <glyph glyph-name="E" unicode="E" horiz-adv-x="554" 
d="M74 0v680h440v-120h-302v-159h242v-118h-242v-163h302v-120h-440z" />
    <glyph glyph-name="F" unicode="F" horiz-adv-x="531" 
d="M74 0v680h434v-120h-296v-200h242v-120h-242v-240h-138z" />
    <glyph glyph-name="G" unicode="G" horiz-adv-x="611" 
d="M357 244l0.000976562 119.998h198v-353c-95.333 -15.333 -172.666 -23 -231.999 -23c-106 0 -178.833 28.333 -218.5 85s-59.5 146.667 -59.5 270s20.667 212.333 62 267s111.666 82 210.999 82c62 0 129 -7 201 -21l36 -7l-4 -107c-80 8.66699 -145.5 13 -196.5 13
s-86.833 -6 -107.5 -18s-35.834 -34.167 -45.501 -66.5s-14.5 -87.666 -14.5 -165.999s9.66699 -133.166 29 -164.499s59.333 -47 120 -47l83 4v132h-62z" />
    <glyph glyph-name="H" unicode="H" horiz-adv-x="677" 
d="M465 0v282h-253v-282h-138v680h138v-278h253v278h138v-680h-138z" />
    <glyph glyph-name="I" unicode="I" horiz-adv-x="286" 
d="M74 0v680h138v-680h-138z" />
    <glyph glyph-name="J" unicode="J" horiz-adv-x="302" 
d="M19 -70v120c26.667 0 46 5 58 15s18 28.667 18 56v559h137l1 -565c0 -72.667 -16.167 -121.667 -48.5 -147s-87.5 -38 -165.5 -38z" />
    <glyph glyph-name="K" unicode="K" horiz-adv-x="593" 
d="M212 0h-138v680h138v-299l92 10l112 289h157l-148 -341l152 -339h-159l-114 271l-92 -10v-261z" />
    <glyph glyph-name="L" unicode="L" horiz-adv-x="472" 
d="M461 0h-387v680h138v-558h249v-122z" />
    <glyph glyph-name="M" unicode="M" horiz-adv-x="858" 
d="M74 0v680h235l120 -496l120 496h235v-680h-138v526h-15l-133 -496h-138l-133 496h-15v-526h-138z" />
    <glyph glyph-name="N" unicode="N" horiz-adv-x="693" 
d="M74 0v680h233l164 -560h10v560h138v-680h-227l-170 560h-10v-560h-138z" />
    <glyph glyph-name="O" unicode="O" horiz-adv-x="652" 
d="M326 108c54 0 90.833 17.5 110.5 52.5s29.5 93.667 29.5 176s-10 142.166 -30 179.499s-56.667 56 -110 56s-90 -18.667 -110 -56s-30 -97.166 -30 -179.499s9.83301 -141 29.5 -176s56.5 -52.5 110.5 -52.5zM326 -12c-103.333 0 -176.166 28.167 -218.499 84.5
s-63.5 144.5 -63.5 264.5s21.167 209.167 63.5 267.5s115.166 87.5 218.499 87.5s176.166 -29.167 218.499 -87.5s63.5 -147.5 63.5 -267.5s-21.167 -208.167 -63.5 -264.5s-115.166 -84.5 -218.499 -84.5z" />
    <glyph glyph-name="P" unicode="P" horiz-adv-x="589" 
d="M324 198l-112 -0.000976562v-198h-138v680h250c161.333 0 242 -78.667 242 -236c0 -79.333 -20.5 -140.166 -61.5 -182.499s-101.167 -63.5 -180.5 -63.5zM212 315.999h111c68.667 0 103 42.667 103 128c0 42 -8.33301 72.167 -25 90.5s-42.667 27.5 -78 27.5h-111v-246z
" />
    <glyph glyph-name="Q" unicode="Q" horiz-adv-x="652" 
d="M326 -12c-104 0 -176.997 28.001 -218.997 84.001s-63 144.167 -63 264.5s21.167 209.666 63.5 267.999s115.166 87.5 218.499 87.5s176.166 -29.167 218.499 -87.5s63.5 -147.833 63.5 -268.5c0 -148 -35 -247.667 -105 -299l83 -134l-126 -59l-90 147
c-6.66699 -2 -21.334 -3 -44.001 -3zM326.003 108.001c54 0 90.833 17.333 110.5 52s29.5 93.334 29.5 176.001s-10 142.667 -30 180s-56.667 56 -110 56s-90 -18.667 -110 -56s-30 -97.333 -30 -180s9.83301 -141.334 29.5 -176.001s56.5 -52 110.5 -52z" />
    <glyph glyph-name="R" unicode="R" horiz-adv-x="620" 
d="M212 228v-228h-138v680h264c160 0 240 -74.667 240 -224c0 -88.667 -33.333 -154 -100 -196l97 -260h-151l-79 228h-133zM413 376c16 20 24 46.333 24 79s-8.5 58.667 -25.5 78s-41.5 29 -73.5 29h-126v-216h128c32.667 0 57 10 73 30z" />
    <glyph glyph-name="S" unicode="S" horiz-adv-x="544" 
d="M283 572c-72.667 0 -108.999 -24.002 -108.999 -72.002c0 -21.333 9 -37.666 27 -48.999s60.167 -27.666 126.5 -48.999s112.833 -45.5 139.5 -72.5s40 -68.5 40 -124.5c0 -71.333 -21.667 -125.333 -65 -162s-100 -55 -170 -55c-52 0 -115.667 8 -191 24l-36 7l14 107
c89.333 -12 157.666 -18 204.999 -18c70.667 0 106 29.333 106 88c0 21.333 -8.16699 38 -24.5 50s-48.833 25 -97.5 39c-77.333 22 -131.833 48.167 -163.5 78.5s-47.5 72.5 -47.5 126.5c0 68 20.667 118.667 62 152s98 50 170 50c49.333 0 112 -6.66699 188 -20l36 -7
l-11 -109c-94 10.667 -160.333 16 -199 16z" />
    <glyph glyph-name="T" unicode="T" horiz-adv-x="526" 
d="M13 558v122h500v-122h-180v-558h-138v558h-182z" />
    <glyph glyph-name="U" unicode="U" horiz-adv-x="654" 
d="M206 227c0 -79.333 40.333 -119 121 -119s121 39.667 121 119v453h138v-450c0 -83.333 -21.5 -144.5 -64.5 -183.5s-107.833 -58.5 -194.5 -58.5s-151.5 19.5 -194.5 58.5s-64.5 100.167 -64.5 183.5v450h138v-453z" />
    <glyph glyph-name="V" unicode="V" horiz-adv-x="603" 
d="M442 680h145l-158 -680h-255l-158 680h145l118 -560h45z" />
    <glyph glyph-name="W" unicode="W" horiz-adv-x="930" 
d="M19 680h145l84 -562h15l122 562h160l122 -562h15l84 562h145l-130 -680h-209l-107 517l-107 -517h-209z" />
    <glyph glyph-name="X" unicode="X" horiz-adv-x="569" 
d="M162 680l126 -250l129 250h143l-196 -347l196 -333h-153l-126 235l-129 -235h-143l196 326l-196 354h153z" />
    <glyph glyph-name="Y" unicode="Y" horiz-adv-x="557" 
d="M348 0h-138v275l-210 405h153l125 -271l125 271h153l-208 -405v-275z" />
    <glyph glyph-name="Z" unicode="Z" horiz-adv-x="532" 
d="M41 560v120h450v-120l-284 -422v-18h284v-120h-450v119l284 423v18h-284z" />
    <glyph glyph-name="bracketleft" unicode="[" horiz-adv-x="355" 
d="M320 749v-120h-115v-632h115v-120h-252v872h252z" />
    <glyph glyph-name="backslash" unicode="\" horiz-adv-x="498" 
d="M466 13l-116 -49l-318 700l114 52z" />
    <glyph glyph-name="bracketright" unicode="]" horiz-adv-x="355" 
d="M35 629v120h252v-872h-252v120h115v632h-115z" />
    <glyph glyph-name="asciicircum" unicode="^" 
d="M383 313l-109 217l-113 -217h-140l194 347h114l194 -347h-140z" />
    <glyph glyph-name="underscore" unicode="_" horiz-adv-x="620" 
d="M96 -73h428v-114h-428v114z" />
    <glyph glyph-name="grave" unicode="`" horiz-adv-x="268" 
d="M23 753l252 -102l-30 -87l-262 74z" />
    <glyph glyph-name="a" unicode="a" horiz-adv-x="511" 
d="M445 344l0.00195312 -207.999c1.33301 -16 4 -27.167 8 -33.5s12.333 -10.833 25 -13.5l-4 -101c-34 0 -61.167 2.33301 -81.5 7s-40.833 14 -61.5 28c-48 -23.333 -97 -35 -147 -35c-103.333 0 -155 54.667 -155 164c0 53.333 14.333 91.166 43 113.499
s72.667 35.5 132 39.5l107 8v31c0 20.667 -4.66699 34.834 -14 42.501s-24.333 11.5 -45 11.5l-188 -8l-4 93c71.333 19.333 139.166 29 203.499 29s110.666 -13.333 138.999 -40s42.5 -69.334 42.5 -128.001zM220.002 212.001c-37.333 -3.33301 -56 -23.333 -56 -60
s16.333 -55 49 -55c25.333 0 53 4 83 12l15 4v107z" />
    <glyph glyph-name="b" unicode="b" horiz-adv-x="544" 
d="M304 512c70 0 121.166 -19.166 153.499 -57.499s48.5 -106.833 48.5 -205.5s-18.667 -166.834 -56 -204.501s-101.666 -56.5 -192.999 -56.5c-28.667 0 -81 3.33301 -157 10l-38 4v698h134v-215c42.667 18 78.667 27 108 27zM256.999 108.001
c44.667 0 74.667 10.833 90 32.5s23 60.5 23 116.5c0 90 -28 135 -84 135c-26.667 0 -52 -3.33301 -76 -10l-14 -3v-267c30.667 -2.66699 51 -4 61 -4z" />
    <glyph glyph-name="c" unicode="c" horiz-adv-x="446" 
d="M249 512c34.667 0 78.999 -5.33203 132.999 -15.999l27 -6l-4 -106c-52.667 5.33301 -91.667 8 -117 8c-46 0 -76.5 -9.83301 -91.5 -29.5s-22.5 -56.834 -22.5 -111.501s7.5 -92.167 22.5 -112.5s45.833 -30.5 92.5 -30.5l116 8l4 -107
c-71.333 -14 -125.666 -21 -162.999 -21c-74 0 -127.167 20.833 -159.5 62.5s-48.5 108.5 -48.5 200.5s16.667 158.5 50 199.5s87 61.5 161 61.5z" />
    <glyph glyph-name="d" unicode="d" horiz-adv-x="549" 
d="M487 700l0.00195312 -700h-133v21c-46.667 -22 -87 -33 -121 -33c-72.667 0 -123.334 21 -152.001 63s-43 108.5 -43 199.5s17.167 157.333 51.5 199s86.166 62.5 155.499 62.5c21.333 0 51 -3.33301 89 -10l19 -4v202h134zM339.002 120l14 3v263
c-36.667 6.66699 -69.334 10 -98.001 10c-54 0 -81 -48 -81 -144c0 -52 6 -89 18 -111s31.833 -33 59.5 -33s56.834 4 87.501 12z" />
    <glyph glyph-name="e" unicode="e" horiz-adv-x="510" 
d="M196.5 126.5c15.667 -13.667 38.166 -20.499 67.499 -20.499c62 0 117.333 2 166 6l28 3l2 -99c-76.667 -18.667 -146 -28 -208 -28c-75.333 0 -130 20 -164 60s-51 105 -51 195c0 179.333 73.667 269 221 269c145.333 0 218 -75.333 218 -226l-10 -93h-294
c0.666992 -30.667 8.83398 -52.834 24.501 -66.501zM343.999 295.001c0 40 -6.33203 67.833 -18.999 83.5s-34.834 23.5 -66.501 23.5s-54 -8.16699 -67 -24.5s-19.833 -43.833 -20.5 -82.5h173z" />
    <glyph glyph-name="f" unicode="f" horiz-adv-x="357" 
d="M220 386v-386h-134v386h-54v114h54v22c0 72 10.667 121.667 32 149s59.333 41 114 41c24 0 55 -3.33301 93 -10l21 -3l-2 -109c-29.333 1.33301 -54 2 -74 2s-33.333 -5.33301 -40 -16s-10 -29 -10 -55v-21h121v-114h-121z" />
    <glyph glyph-name="g" unicode="g" horiz-adv-x="534" 
d="M449 -189c-44 -27.333 -103.499 -41 -178.499 -41s-132.667 10 -173 30s-60.5 56.333 -60.5 109c0 42 24 81.667 72 119c-24.667 16.667 -37 42 -37 76c0 13.333 10 35.333 30 66l9 14c-45.333 32.667 -68 80.834 -68 144.501s19.167 109.834 57.5 138.501
s89.166 43 152.499 43c28.667 0 57 -3.33301 85 -10l16 -3l161 5v-107l-75 6c14.667 -22.667 22 -45.334 22 -68.001c0 -66.667 -17 -112.667 -51 -138s-87.333 -38 -160 -38c-15.333 0 -29 1.33301 -41 4c-6.66699 -17.333 -10 -31.5 -10 -42.5s5.66699 -18.5 17 -22.5
s38 -6.33301 80 -7c84 -0.666992 141.333 -11.834 172 -33.501s46 -61 46 -118s-22 -99.167 -66 -126.5zM169.001 -77c0 -28.667 35.167 -43 105.5 -43s105.5 16.667 105.5 50c0 18 -6 29.5 -18 34.5s-37.333 7.83301 -76 8.5l-90 7c-18 -18 -27 -37 -27 -57zM253.501 259
c51 0 76.5 24.5 76.5 73.5s-25.5 73.5 -76.5 73.5s-76.5 -24.5 -76.5 -73.5s25.5 -73.5 76.5 -73.5z" />
    <glyph glyph-name="h" unicode="h" horiz-adv-x="553" 
d="M196 0h-134v700h134v-224c46 24 87.333 36 124 36c66.667 0 112.667 -19.667 138 -59s38 -100 38 -182v-271h-134v268c0 42 -5 73.167 -15 93.5s-30 30.5 -60 30.5c-26 0 -52 -4 -78 -12l-13 -4v-376z" />
    <glyph glyph-name="i" unicode="i" horiz-adv-x="258" 
d="M62 0v500h134v-500h-134zM62 564v136h134v-136h-134z" />
    <glyph glyph-name="j" unicode="j" horiz-adv-x="259" 
d="M63 24v476h134v-477c0 -68 -11.833 -118.167 -35.5 -150.5s-71.167 -66.5 -142.5 -102.5l-53 99c30 20 51 35.667 63 47s20.667 24.833 26 40.5s8 38.167 8 67.5zM63 564v136h134v-136h-134z" />
    <glyph glyph-name="k" unicode="k" horiz-adv-x="515" 
d="M196 0h-134v700h134v-398l51 9l99 189h150l-130 -237l137 -263h-151l-101 195l-55 -9v-186z" />
    <glyph glyph-name="l" unicode="l" horiz-adv-x="270" 
d="M68 0v700h134v-700h-134z" />
    <glyph glyph-name="m" unicode="m" horiz-adv-x="839" 
d="M196 0l-134 0.000976562v500h133v-28c46 26.667 85.333 40 118 40c54 0 95.667 -15.667 125 -47c61.333 31.333 117.333 47 168 47c66 0 111.833 -19.167 137.5 -57.5s38.5 -99.5 38.5 -183.5v-271h-134v267c0 42.667 -4.66699 74.167 -14 94.5s-28 30.5 -56 30.5
c-21.333 0 -47.333 -4.66699 -78 -14l-15 -5c2.66699 -50 4 -88 4 -114v-259h-134v257c0 49.333 -4.33301 84.166 -13 104.499s-27.667 30.5 -57 30.5c-26 0 -51.667 -4.66699 -77 -14l-12 -4v-374z" />
    <glyph glyph-name="n" unicode="n" horiz-adv-x="553" 
d="M196 0h-134.001v500h133v-28c45.333 26.667 87 40 125 40c66.667 0 112.667 -19.667 138 -59s38 -100 38 -182v-271h-134v267c0 42.667 -5 74.167 -15 94.5s-30 30.5 -60 30.5c-27.333 0 -53.666 -4.66699 -78.999 -14l-12 -4v-374z" />
    <glyph glyph-name="o" unicode="o" horiz-adv-x="532" 
d="M266 512c82.667 0 141.667 -22.833 177 -68.5s53 -109.834 53 -192.501c0 -175.333 -76.667 -263 -230 -263s-230 87.667 -230 263c0 82.667 17.667 146.834 53 192.501s94.333 68.5 177 68.5zM266 102c35.333 0 59.833 12 73.5 36s20.5 61.667 20.5 113
s-6.83301 88.666 -20.5 111.999s-38.167 35 -73.5 35s-59.833 -11.667 -73.5 -35s-20.5 -60.666 -20.5 -111.999s6.83301 -89 20.5 -113s38.167 -36 73.5 -36z" />
    <glyph glyph-name="p" unicode="p" horiz-adv-x="544" 
d="M62 -210v710.001h133v-27c43.333 26 81.333 39 114 39c67.333 0 117 -20.167 149 -60.5s48 -108.833 48 -205.5s-17.667 -163.834 -53 -201.501s-93.333 -56.5 -174 -56.5c-22 0 -45.667 2 -71 6l-12 2v-206h-134zM283 392.001c-24.667 0 -49.667 -5.00098 -75 -15.001
l-12 -5v-262c30 -4 54.333 -6 73 -6c38.667 0 65.167 11.333 79.5 34s21.5 61.334 21.5 116.001c0 92 -29 138 -87 138z" />
    <glyph glyph-name="q" unicode="q" horiz-adv-x="543" 
d="M239 -12c-70 0 -121 19.167 -153 57.5s-48 107 -48 206s18.5 167.167 55.5 204.5s101.167 56 192.5 56c40.667 0 93.667 -3.33301 159 -10l36 -3v-709h-134v225c-42.667 -18 -78.667 -27 -108 -27zM286 396c-44.667 0 -74.834 -11.5 -90.501 -34.5
s-23.5 -62.5 -23.5 -118.5c0 -90 28.333 -135 85 -135c26.667 0 52.334 3.33301 77.001 10l13 3v271c-24.667 2.66699 -45 4 -61 4z" />
    <glyph glyph-name="r" unicode="r" horiz-adv-x="372" 
d="M62 0v500h133v-53c56 33.333 109.333 55 160 65v-135c-54 -11.333 -100.333 -23 -139 -35l-20 -7v-335h-134z" />
    <glyph glyph-name="s" unicode="s" horiz-adv-x="472" 
d="M421 375c-82.667 10.667 -140.501 15.999 -173.501 15.999s-54.333 -3 -64 -9s-14.5 -15.5 -14.5 -28.5s6.5 -22 19.5 -27s46.333 -12.333 100 -22s91.834 -25.5 114.501 -47.5s34 -57.667 34 -107c0 -108 -67 -162 -201 -162c-44 0 -97.333 6 -160 18l-32 6l4 112
c82.667 -10.667 140.167 -16 172.5 -16s54.333 3.16699 66 9.5s17.5 15.833 17.5 28.5s-6.16699 22 -18.5 28s-44.333 13.333 -96 22s-90.167 23.334 -115.5 44.001s-38 57.5 -38 110.5s18 93 54 120s82.333 40.5 139 40.5c39.333 0 93 -6.33301 161 -19l33 -6z" />
    <glyph glyph-name="t" unicode="t" horiz-adv-x="364" 
d="M339 386h-122.999v-205c0 -20 0.5 -34.167 1.5 -42.5s4.66699 -15.5 11 -21.5s16.166 -9 29.499 -9l76 2l6 -107c-44.667 -10 -78.667 -15 -102 -15c-60 0 -101 13.5 -123 40.5s-33 76.833 -33 149.5v208h-59v114h59v139h134v-139h123v-114z" />
    <glyph glyph-name="u" unicode="u" horiz-adv-x="553" 
d="M357 500h134v-500h-133v28c-48 -26.667 -89.667 -40 -125 -40c-69.333 0 -116 19.167 -140 57.5s-36 102.5 -36 192.5v262h134v-264c0 -49.333 4 -83 12 -101s27.333 -27 58 -27c29.333 0 57 4.66699 83 14l13 4v374z" />
    <glyph glyph-name="v" unicode="v" horiz-adv-x="498" 
d="M15 500h140l80 -386h28l84 386h136l-120 -500h-228z" />
    <glyph glyph-name="w" unicode="w" horiz-adv-x="772" 
d="M24 500h132l61 -386h24l76 376h138l76 -376h24l61 386h132l-95 -500h-210l-57 306l-57 -306h-210z" />
    <glyph glyph-name="x" unicode="x" horiz-adv-x="474" 
d="M14 500h143l80 -155l81 155h143l-142 -245l142 -255h-143l-81 153l-80 -153h-143l137 251z" />
    <glyph glyph-name="y" unicode="y" horiz-adv-x="500" 
d="M16 500h132l91 -386h23l91 386h132l-176 -710h-131l55 210h-94z" />
    <glyph glyph-name="z" unicode="z" horiz-adv-x="454" 
d="M41 380v120h371v-120l-210 -260h210v-120h-371v120l210 260h-210z" />
    <glyph glyph-name="braceleft" unicode="{" horiz-adv-x="361" 
d="M251 576l7.00098 -127.998c0 -42 -6.83301 -72 -20.5 -90s-44.167 -32.667 -91.5 -44c46.667 -11.333 77.167 -27.166 91.5 -47.499s21.5 -51.833 21.5 -94.5l-7 -117c0 -22.667 4.83301 -40.334 14.5 -53.001s28.5 -20 56.5 -22v-114c-74 2.66699 -126.167 17 -156.5 43
s-45.5 69 -45.5 129l7 121c0 48.667 -37.333 82.667 -112 102v104c74.667 17.333 112 48.666 112 93.999l-7 127c0 63.333 15.167 107.666 45.5 132.999s83.166 39.333 158.499 42v-114c-28.667 -2.66699 -48.167 -9.66699 -58.5 -21s-15.5 -28 -15.5 -50z" />
    <glyph glyph-name="bar" unicode="|" horiz-adv-x="268" 
d="M67 -210v910h134v-910h-134z" />
    <glyph glyph-name="braceright" unicode="}" horiz-adv-x="361" 
d="M109 55l-6.99902 116.998c0 42.667 7.16699 74.167 21.5 94.5s44.833 36.166 91.5 47.499c-47.333 11.333 -77.833 26 -91.5 44s-20.5 48 -20.5 90l7 128c0 22 -5.16699 38.667 -15.5 50s-29.833 18.333 -58.5 21v114c75.333 -2.66699 128.166 -16.667 158.499 -42
s45.5 -69.666 45.5 -132.999l-7 -127c0 -45.333 37.333 -76.666 112 -93.999v-104c-74.667 -19.333 -112 -53.333 -112 -102l7 -121c0 -60 -15.167 -103 -45.5 -129s-82.5 -40.333 -156.5 -43v114c28 2 46.833 9.33301 56.5 22s14.5 30.334 14.5 53.001z" />
    <glyph glyph-name="asciitilde" unicode="~" 
d="M383 170c-18.667 0 -54.333 7.33496 -107 22.002s-85.334 22 -98.001 22s-28.167 -3.33301 -46.5 -10s-32.833 -13.334 -43.5 -20.001l-17 -9l-10 107c42 34.667 83 52 123 52c18.667 0 53.334 -7.33301 104.001 -22s82.667 -22 96 -22c24.667 0 54 9.33301 88 28l17 10
l8 -107c-12.667 -12.667 -30.167 -24.334 -52.5 -35.001s-42.833 -16 -61.5 -16z" />
    <glyph glyph-name="uni00A0" unicode="&#xa0;" horiz-adv-x="220" 
 />
    <glyph glyph-name="exclamdown" unicode="&#xa1;" horiz-adv-x="264" 
d="M204 500v-161h-144v161h144zM191 250l13 -430h-145l14 430h118z" />
    <glyph glyph-name="cent" unicode="&#xa2;" 
d="M270 -75l0.000976562 103.999c-121.333 8.66699 -182 81.834 -182 219.501s60.667 211.5 182 221.5v101h110v-105l79 -13l-4 -100c-52.667 2 -95.834 3 -129.501 3s-59 -8.16699 -76 -24.5s-25.5 -43.5 -25.5 -81.5s8.66699 -65.333 26 -82s47 -25 89 -25l116 4l4 -100
c-26 -6.66699 -52.333 -11 -79 -13v-109h-110z" />
    <glyph glyph-name="sterling" unicode="&#xa3;" 
d="M333 551c-34.667 0 -52.001 -21.667 -52.001 -65v-53h153v-114h-153v-205h124l69 16l21 -112l-81 -18h-339v114h74v205h-64v114h64v59c0 69.333 13.333 116.5 40 141.5s68.667 37.5 126 37.5c44.667 0 88.334 -6 131.001 -18l22 -6l-4 -104c-45.333 5.33301 -89 8 -131 8
z" />
    <glyph glyph-name="currency" unicode="&#xa4;" 
d="M280 55c-30 0 -58.333 6.66699 -85 20l-73 -73l-92 92l72 72c-12.667 27.333 -19 55.833 -19 85.5s6.33301 58.167 19 85.5l-72 73l92 92l72 -73c26.667 13.333 55.167 20 85.5 20s58.833 -6.66699 85.5 -20l73 73l92 -92l-73 -73c13.333 -26.667 20 -55.167 20 -85.5
s-6.66699 -58.833 -20 -85.5l73 -72l-92 -92l-73 73c-26.667 -13.333 -55 -20 -85 -20zM280 166c23.333 0 43.5 8.5 60.5 25.5s25.5 37.167 25.5 60.5s-8.5 43.5 -25.5 60.5s-37.167 25.5 -60.5 25.5s-43.5 -8.5 -60.5 -25.5s-25.5 -37.167 -25.5 -60.5
s8.5 -43.5 25.5 -60.5s37.167 -25.5 60.5 -25.5z" />
    <glyph glyph-name="yen" unicode="&#xa5;" 
d="M58 291v112h92l-145 257h153l123 -211l122 211h153l-143 -257h89v-112h-151v-45h151v-112h-151v-134h-138v134h-155v112h155v45h-155z" />
    <glyph glyph-name="brokenbar" unicode="&#xa6;" horiz-adv-x="272" 
d="M69 700h134v-372h-134v372zM69 170h134v-380h-134v380z" />
    <glyph glyph-name="section" unicode="&#xa7;" horiz-adv-x="517" 
d="M444 506c-75.333 10.667 -130.668 16.0039 -166.001 16.0039s-59.333 -4.66699 -72 -14s-19 -26.333 -19 -51c0 -14.667 9 -25.834 27 -33.501s55.667 -18.5 113 -32.5s96.333 -30.667 117 -50s31 -52.166 31 -98.499s-16.667 -93.166 -50 -140.499
c13.333 -12.667 23 -26.334 29 -41.001s9 -37.334 9 -68.001c0 -64.667 -17.167 -111.334 -51.5 -140.001s-89.5 -43 -165.5 -43c-37.333 0 -89 6 -155 18l-31 5l13 108c72 -10 125.833 -15 161.5 -15s61.334 4.5 77.001 13.5s23.5 23 23.5 42s-8.33301 32.5 -25 40.5
s-55 19.5 -115 34.5s-101.333 33 -124 54s-34 55.167 -34 102.5c0 23.333 6.66699 48.166 20 74.499s28 46.166 44 59.499c-29.333 21.333 -44 57.333 -44 108c0 122 72.333 183 217 183c42.667 0 92 -6 148 -18l28 -6zM188.998 302.004
c-11.333 -17.333 -16.999 -37.168 -16.999 -59.501s3.83301 -37.166 11.5 -44.499s24.667 -14.666 51 -21.999s55.166 -16.333 86.499 -27c12 15.333 18 39.666 18 72.999c0 16.667 -5.33301 29.167 -16 37.5s-25.5 15 -44.5 20l-53.5 13.5c-16.667 4 -28.667 7 -36 9z" />
    <glyph glyph-name="dieresis" unicode="&#xa8;" horiz-adv-x="268" 
d="M-30 596v132h128v-132h-128zM186 596v132h128v-132h-128z" />
    <glyph glyph-name="copyright" unicode="&#xa9;" horiz-adv-x="643" 
d="M124.5 232c-52.333 54.667 -78.499 122.501 -78.499 203.501s26 148.333 78 202s118.5 80.5 199.5 80.5s146.833 -27.5 197.5 -82.5s76 -122.833 76 -203.5s-25.333 -147.834 -76 -201.501s-116.334 -80.5 -197.001 -80.5s-147.167 27.333 -199.5 82zM108.001 434.001
c0 -62 20.333 -114.833 61 -158.5s91.5 -65.5 152.5 -65.5s111.833 21.667 152.5 65s61 96 61 158s-20.5 115 -61.5 159s-91.667 66 -152 66s-111 -21.833 -152 -65.5s-61.5 -96.5 -61.5 -158.5zM414.001 287.001c-18.667 -12 -48.832 -17.999 -90.499 -17.999
s-72.334 12 -92.001 36s-29.5 67.167 -29.5 129.5s10.167 105.166 30.5 128.499s54.166 35 101.499 35c26 0 49.333 -4 70 -12l10 -3l-7 -86c-23.333 4 -43.666 6 -60.999 6s-28.5 -4.66699 -33.5 -14s-7.5 -26 -7.5 -50c0 -50 11.667 -75 35 -75l67 5z" />
    <glyph glyph-name="ordfeminine" unicode="&#xaa;" horiz-adv-x="416" 
d="M351 544v-141c5.33301 -4 11.333 -6.66699 18 -8l-2 -82c-45.333 0 -75.833 2.5 -91.5 7.5s-27.5 13.5 -35.5 25.5c-28 -21.333 -58.667 -32 -92 -32s-59.333 9.83301 -78 29.5s-28 46.5 -28 80.5c0 63.333 42.333 97 127 101l67 3v22c0 10 -14.667 15 -44 15l-131 -7
l-3 75c46.667 17.333 94.667 26 144 26s86.5 -8.16699 111.5 -24.5s37.5 -46.5 37.5 -90.5zM188 402c12 0 28 5.33301 48 16v40l-47 -3c-21.333 -2 -32 -11 -32 -27c0 -17.333 10.333 -26 31 -26z" />
    <glyph glyph-name="guillemotleft" unicode="&#xab;" horiz-adv-x="601" 
d="M263 319l-109 -75l109 -86v-135l-223 171v96l223 164v-135zM546 319l-109 -75l109 -86v-135l-223 171v96l223 164v-135z" />
    <glyph glyph-name="logicalnot" unicode="&#xac;" 
d="M57 358h436v-254h-120v134h-316v120z" />
    <glyph glyph-name="registered" unicode="&#xae;" horiz-adv-x="643" 
d="M124.5 231.5c-52.333 54.333 -78.5 122.168 -78.5 203.501s26 148.833 78 202.5s118.333 80.5 199 80.5s146.5 -27.5 197.5 -82.5s76.5 -122.833 76.5 -203.5s-25.167 -147.834 -75.5 -201.501s-116 -80.5 -197 -80.5s-147.667 27.167 -200 81.5zM108 434.002
c0 -61.333 20.668 -114.001 62.001 -158.001s92.166 -66 152.499 -66s110.833 21.833 151.5 65.5s61 96.334 61 158.001s-20.5 114.5 -61.5 158.5s-91.667 66 -152 66s-111 -22 -152 -66s-61.5 -96.667 -61.5 -158zM297.001 369.001l-0.000976562 -93h-96v315h136
c34.667 0 62.334 -8.5 83.001 -25.5s31 -41 31 -72s-2.66699 -53.667 -8 -68s-15.333 -27.5 -30 -39.5l41 -110h-100l-28 93h-29zM296 519.001v-79h28c22.667 0 34 13.167 34 39.5s-11.667 39.5 -35 39.5h-27z" />
    <glyph glyph-name="macron" unicode="&#xaf;" horiz-adv-x="268" 
d="M-5 597v100h287v-100h-287z" />
    <glyph glyph-name="degree" unicode="&#xb0;" 
d="M130 542c0 44.667 13.833 80.834 41.5 108.501s63.834 41.5 108.501 41.5s80.834 -13.833 108.501 -41.5s41.5 -63.834 41.5 -108.501s-13.833 -80.667 -41.5 -108s-63.834 -41 -108.501 -41s-80.834 13.667 -108.501 41s-41.5 63.333 -41.5 108zM205 542
c0 -22.667 6.83301 -41 20.5 -55s31.834 -21 54.501 -21s41.167 7 55.5 21s21.5 32.333 21.5 55s-7.16699 41.167 -21.5 55.5s-32.833 21.5 -55.5 21.5s-40.834 -7.16699 -54.501 -21.5s-20.5 -32.833 -20.5 -55.5z" />
    <glyph glyph-name="plusminus" unicode="&#xb1;" 
d="M50 270v120h169v108h120v-108h171v-120h-171v-100h-120v100h-169zM50 139h460v-120h-460v120z" />
    <glyph glyph-name="twosuperior" unicode="&#xb2;" horiz-adv-x="280" 
d="M252 478h-231v90l73 59c30.667 24.667 46 43.667 46 57c0 10 -12.333 15 -37 15l-76 -6l-4 99c48.667 6 90.667 9 126 9s61.333 -7.66699 78 -23s25 -37.5 25 -66.5s-4.33301 -51 -13 -66s-23 -29.833 -43 -44.5l-38 -28h94v-95z" />
    <glyph glyph-name="threesuperior" unicode="&#xb3;" horiz-adv-x="280" 
d="M132 801c80.667 0 120.999 -29.668 120.999 -89.001c0 -35.333 -9.66699 -58.666 -29 -69.999c23.333 -10 35 -33.333 35 -70c0 -70 -39.333 -105 -118 -105l-121 8l6 93c40.667 -4 71.334 -6 92.001 -6s31 5.33301 31 16c0 9.33301 -8.66699 14 -26 14h-66v85h64
c13.333 0 20 4.83301 20 14.5s-9 14.5 -27 14.5l-84 -5l-6 91c45.333 6 81.333 9 108 9z" />
    <glyph glyph-name="acute" unicode="&#xb4;" horiz-adv-x="268" 
d="M5 651l252 102l40 -115l-262 -74z" />
    <glyph glyph-name="mu" unicode="&#xb5;" 
d="M363 500h133.998v-500h-133v28c-48 -26.667 -89.667 -40 -125 -40c-15.333 0 -29.333 1 -42 3v-201h-134v710h134v-289c0.666992 -38.667 5.33398 -65.5 14.001 -80.5s27.334 -22.5 56.001 -22.5c29.333 0 57 4.66699 83 14l13 4v374z" />
    <glyph glyph-name="paragraph" unicode="&#xb6;" horiz-adv-x="599" 
d="M397 0v566h-62v-566h-114v286h-7c-56 0 -101 18.167 -135 54.5s-51 83.5 -51 141.5s17.333 105.5 52 142.5s80 55.5 136 55.5h331v-114h-36v-566h-114z" />
    <glyph glyph-name="periodcentered" unicode="&#xb7;" horiz-adv-x="256" 
d="M56 167v166h144v-166h-144z" />
    <glyph glyph-name="cedilla" unicode="&#xb8;" horiz-adv-x="264" 
d="M204.5 -56c19.667 -12 29.4971 -36.333 29.4971 -73s-9.66699 -64.5 -29 -83.5s-46.666 -28.5 -81.999 -28.5c-29.333 0 -55.666 2.66699 -78.999 8l-14 3l4 78c20.667 -0.666992 36.667 -1 48 -1c25.333 0 38 8.66699 38 26c0 14.667 -12.667 22 -38 22h-24v106h53v-38
c42.667 -0.666992 73.834 -7 93.501 -19z" />
    <glyph glyph-name="onesuperior" unicode="&#xb9;" horiz-adv-x="280" 
d="M212 790v-312h-106v195l-47 -32l-49 74l106 75h96z" />
    <glyph glyph-name="ordmasculine" unicode="&#xba;" horiz-adv-x="420" 
d="M211 659c112.667 0 169 -57.5 169 -172.5s-56.333 -172.5 -169 -172.5c-114 0 -171 57.5 -171 172.5s57 172.5 171 172.5zM211 419c19.333 0 32.166 5.33203 38.499 15.999s9.5 28.334 9.5 53.001s-3.16699 42 -9.5 52s-19.166 15 -38.499 15
s-32.666 -5.16699 -39.999 -15.5s-11 -27.5 -11 -51.5s3.66699 -41.5 11 -52.5s20.666 -16.5 39.999 -16.5z" />
    <glyph glyph-name="guillemotright" unicode="&#xbb;" horiz-adv-x="603" 
d="M447 244l-109 75v135l223 -164v-96l-223 -171v135zM164 244l-109 75v135l223 -164v-96l-223 -171v135z" />
    <glyph glyph-name="onequarter" unicode="&#xbc;" horiz-adv-x="548" 
d="M220 790v-312h-106v195l-47 -32l-49 74l106 75h96zM29 29l393 632l53 -35l-393 -633zM409 -100v35h-132v88l39 189h118l-52 -182h27l14 90h91v-90h11v-95h-11v-35h-105z" />
    <glyph glyph-name="onehalf" unicode="&#xbd;" horiz-adv-x="542" 
d="M220 790v-312h-106v195l-47 -32l-49 74l106 75h96zM29 29l393 632l53 -35l-393 -633zM512 -100h-231v90l73 59c30.667 24.667 46 43.667 46 57c0 10 -12.333 15 -37 15l-76 -6l-4 99c48.667 6 90.667 9 126 9s61.333 -7.66699 78 -23s25 -37.5 25 -66.5
s-4.33301 -51 -13 -66s-23 -29.833 -43 -44.5l-38 -28h94v-95z" />
    <glyph glyph-name="threequarters" unicode="&#xbe;" horiz-adv-x="561" 
d="M148 801c80.667 0 120.999 -29.668 120.999 -89.001c0 -35.333 -9.66699 -58.666 -29 -69.999c23.333 -10 35 -33.333 35 -70c0 -70 -39.333 -105 -118 -105l-121 8l6 93c40.667 -4 71.334 -6 92.001 -6s31 5.33301 31 16c0 9.33301 -8.66699 14 -26 14h-66v85h64
c13.333 0 20 4.83301 20 14.5s-9 14.5 -27 14.5l-84 -5l-6 91c45.333 6 81.333 9 108 9zM42.999 28.999l393 632l53 -35l-393 -633zM422.999 -100.001v35h-132v88l39 189h118l-52 -182h27l14 90h91v-90h11v-95h-11v-35h-105z" />
    <glyph glyph-name="questiondown" unicode="&#xbf;" horiz-adv-x="433" 
d="M77.5 -153c-32.333 26 -48.499 65 -48.499 117s5.16699 89.833 15.5 113.5s32.166 48 65.499 73s54.333 44.167 63 57.5s13 28 13 44v31h107c20.667 -22.667 31 -53 31 -91c0 -24 -21.167 -53 -63.5 -87s-68.333 -57.5 -78 -70.5s-14.5 -28.833 -14.5 -47.5
c0 -39.333 28.333 -59 85 -59c40 0 81 4 123 12l21 4l7 -101c-57.333 -23.333 -118 -35 -182 -35s-112.167 13 -144.5 39zM315.001 500v-161h-144v161h144z" />
    <glyph glyph-name="Agrave" unicode="&#xc0;" horiz-adv-x="602" 
d="M17 0l153 680h262l153 -680h-138l-27 123h-238l-27 -123h-138zM277 566l-69 -323h186l-69 323h-48zM183 945l252 -106l-33 -93l-260 79z" />
    <glyph glyph-name="Aacute" unicode="&#xc1;" horiz-adv-x="602" 
d="M17 0l153 680h262l153 -680h-138l-27 123h-238l-27 -123h-138zM277 566l-69 -323h186l-69 323h-48zM162 839l252 106l41 -120l-260 -79z" />
    <glyph glyph-name="Acircumflex" unicode="&#xc2;" horiz-adv-x="602" 
d="M17 0l153 680h262l153 -680h-138l-27 123h-238l-27 -123h-138zM277 566l-69 -323h186l-69 323h-48zM107 765l134 149h117l134 -149h-142l-49 56l-52 -56h-142z" />
    <glyph glyph-name="Atilde" unicode="&#xc3;" horiz-adv-x="602" 
d="M17 0l153 680h262l153 -680h-138l-27 123h-238l-27 -123h-138zM277 566l-69 -323h186l-69 323h-48zM377 758c-17.333 0 -47.168 7.66699 -89.501 23s-67.833 23 -76.5 23c-16.667 0 -39 -10.667 -67 -32l-14 -10l-29 96c13.333 16 30.5 30.667 51.5 44s41.333 20 61 20
s49.834 -7.66699 90.501 -23s64.667 -23 72 -23c15.333 0 37.333 10.667 66 32l15 10l29 -97c-14 -16 -31.333 -30.5 -52 -43.5s-39.667 -19.5 -57 -19.5z" />
    <glyph glyph-name="Adieresis" unicode="&#xc4;" horiz-adv-x="602" 
d="M17 0l153 680h262l153 -680h-138l-27 123h-238l-27 -123h-138zM277 566l-69 -323h186l-69 323h-48zM129 764v132h128v-132h-128zM343 764v132h128v-132h-128z" />
    <glyph glyph-name="Aring" unicode="&#xc5;" horiz-adv-x="602" 
d="M451 721c0 -20.667 -5.00195 -40.333 -15.002 -59l149 -662h-138l-27 123h-238l-27 -123h-138l149 662c-10 17.333 -15 37 -15 59c0 39.333 14.333 70.166 43 92.499s64.334 33.5 107.001 33.5s78.334 -11.167 107.001 -33.5s43 -53.166 43 -92.499zM276.998 566.001
l-69 -323h186l-69 323h-48zM257.998 751.001c-10.667 -7.33301 -16 -17.168 -16 -29.501s4.66699 -22.166 14 -29.499s22.333 -11.333 39 -12h6c18 0 32.333 3.66699 43 11s16 17.333 16 30s-5.33301 22.667 -16 30s-25 11 -43 11s-32.333 -3.66699 -43 -11z" />
    <glyph glyph-name="AE" unicode="&#xc6;" horiz-adv-x="871" 
d="M392 0v116h-213l-29 -116h-138l184 690h634v-132h-302v-143h242v-131h-242v-152h302v-132h-438zM293 558l-80 -309h179l1 309h-100z" />
    <glyph glyph-name="Ccedilla" unicode="&#xc7;" horiz-adv-x="543" 
d="M408.5 -56c19.667 -12 29.5 -36.333 29.5 -73s-9.66699 -64.5 -29 -83.5s-46.666 -28.5 -81.999 -28.5c-28.667 0 -55 2.66699 -79 8l-14 3l4 78c20.667 -0.666992 36.667 -1 48 -1c25.333 0 38 8.66699 38 26c0 14.667 -12.667 22 -38 22h-24v95
c-82.667 8 -139.167 39.333 -169.5 94s-45.5 143.834 -45.5 267.501s18.5 211.334 55.5 263.001s105.167 77.5 204.5 77.5c57.333 0 123.666 -9 198.999 -27l-4 -110c-66 10 -120.833 15 -164.5 15s-74.834 -5.83301 -93.501 -17.5s-32.5 -33.834 -41.5 -66.501
s-13.5 -88.334 -13.5 -167.001s9.16699 -133.167 27.5 -163.5s55 -45.5 110 -45.5s113.5 4.66699 175.5 14l3 -113c-62.667 -14 -126 -21.667 -190 -23v-25c42.667 -0.666992 73.834 -7 93.501 -19z" />
    <glyph glyph-name="Egrave" unicode="&#xc8;" horiz-adv-x="554" 
d="M74 0v680h440v-120h-302v-159h242v-118h-242v-163h302v-120h-440zM180 945l252 -106l-33 -93l-260 79z" />
    <glyph glyph-name="Eacute" unicode="&#xc9;" horiz-adv-x="554" 
d="M74 0v680h440v-120h-302v-159h242v-118h-242v-163h302v-120h-440zM154 839l252 106l41 -120l-260 -79z" />
    <glyph glyph-name="Ecircumflex" unicode="&#xca;" horiz-adv-x="554" 
d="M74 0v680h440v-120h-302v-159h242v-118h-242v-163h302v-120h-440zM105 765l134 149h117l134 -149h-142l-49 56l-52 -56h-142z" />
    <glyph glyph-name="Edieresis" unicode="&#xcb;" horiz-adv-x="554" 
d="M74 0v680h440v-120h-302v-159h242v-118h-242v-163h302v-120h-440zM123 764v132h128v-132h-128zM337 764v132h128v-132h-128z" />
    <glyph glyph-name="Igrave" unicode="&#xcc;" horiz-adv-x="286" 
d="M74 0v680h138v-680h-138zM17 945l252 -106l-33 -93l-260 79z" />
    <glyph glyph-name="Iacute" unicode="&#xcd;" horiz-adv-x="286" 
d="M74 0v680h138v-680h-138zM7 839l252 106l41 -120l-260 -79z" />
    <glyph glyph-name="Icircumflex" unicode="&#xce;" horiz-adv-x="286" 
d="M74 0v680h138v-680h-138zM-50 765l134 149h117l134 -149h-142l-49 56l-52 -56h-142z" />
    <glyph glyph-name="Idieresis" unicode="&#xcf;" horiz-adv-x="286" 
d="M74 0v680h138v-680h-138zM-28 764v132h128v-132h-128zM186 764v132h128v-132h-128z" />
    <glyph glyph-name="Eth" unicode="&#xd0;" horiz-adv-x="642" 
d="M25 277l-0.000976562 132.001h54v281h227c58.667 0 107 -6.33301 145 -19s67.5 -33.5 88.5 -62.5s35.5 -63 43.5 -102s12 -89.333 12 -151s-3.66699 -112.834 -11 -153.501s-21.166 -77.167 -41.499 -109.5s-49.833 -55.833 -88.5 -70.5s-88 -22 -148 -22h-227v277h-54z
M452.999 354.001c0 28.667 -0.498047 51.3311 -1.49805 67.998s-3.16699 33.334 -6.5 50.001s-8.33301 29.834 -15 39.501s-15.334 18.5 -26.001 26.5c-20.667 14 -53.334 21 -98.001 21h-91v-150h130v-132h-130v-146h91c50 0 86.667 12.667 110 38
c24.667 27.333 37 89 37 185z" />
    <glyph glyph-name="Ntilde" unicode="&#xd1;" horiz-adv-x="693" 
d="M74 0v680h233l164 -560h10v560h138v-680h-227l-170 560h-10v-560h-138zM425 758c-17.333 0 -47.168 7.66699 -89.501 23s-67.833 23 -76.5 23c-16.667 0 -39 -10.667 -67 -32l-14 -10l-29 96c13.333 16 30.5 30.667 51.5 44s41.333 20 61 20s49.834 -7.66699 90.501 -23
s64.667 -23 72 -23c15.333 0 37.333 10.667 66 32l15 10l29 -97c-14 -16 -31.333 -30.5 -52 -43.5s-39.667 -19.5 -57 -19.5z" />
    <glyph glyph-name="Ograve" unicode="&#xd2;" horiz-adv-x="652" 
d="M326 108c54 0 90.833 17.5 110.5 52.5s29.5 93.667 29.5 176s-10 142.166 -30 179.499s-56.667 56 -110 56s-90 -18.667 -110 -56s-30 -97.166 -30 -179.499s9.83301 -141 29.5 -176s56.5 -52.5 110.5 -52.5zM326 -12c-103.333 0 -176.166 28.167 -218.499 84.5
s-63.5 144.5 -63.5 264.5s21.167 209.167 63.5 267.5s115.166 87.5 218.499 87.5s176.166 -29.167 218.499 -87.5s63.5 -147.5 63.5 -267.5s-21.167 -208.167 -63.5 -264.5s-115.166 -84.5 -218.499 -84.5zM204 945l252 -106l-33 -93l-260 79z" />
    <glyph glyph-name="Oacute" unicode="&#xd3;" horiz-adv-x="652" 
d="M326 108c54 0 90.833 17.5 110.5 52.5s29.5 93.667 29.5 176s-10 142.166 -30 179.499s-56.667 56 -110 56s-90 -18.667 -110 -56s-30 -97.166 -30 -179.499s9.83301 -141 29.5 -176s56.5 -52.5 110.5 -52.5zM326 -12c-103.333 0 -176.166 28.167 -218.499 84.5
s-63.5 144.5 -63.5 264.5s21.167 209.167 63.5 267.5s115.166 87.5 218.499 87.5s176.166 -29.167 218.499 -87.5s63.5 -147.5 63.5 -267.5s-21.167 -208.167 -63.5 -264.5s-115.166 -84.5 -218.499 -84.5zM167 839l252 106l41 -120l-260 -79z" />
    <glyph glyph-name="Ocircumflex" unicode="&#xd4;" horiz-adv-x="652" 
d="M326 108c54 0 90.833 17.5 110.5 52.5s29.5 93.667 29.5 176s-10 142.166 -30 179.499s-56.667 56 -110 56s-90 -18.667 -110 -56s-30 -97.166 -30 -179.499s9.83301 -141 29.5 -176s56.5 -52.5 110.5 -52.5zM326 -12c-103.333 0 -176.166 28.167 -218.499 84.5
s-63.5 144.5 -63.5 264.5s21.167 209.167 63.5 267.5s115.166 87.5 218.499 87.5s176.166 -29.167 218.499 -87.5s63.5 -147.5 63.5 -267.5s-21.167 -208.167 -63.5 -264.5s-115.166 -84.5 -218.499 -84.5zM135 765l134 149h117l134 -149h-142l-49 56l-52 -56h-142z" />
    <glyph glyph-name="Otilde" unicode="&#xd5;" horiz-adv-x="652" 
d="M326 108c54 0 90.833 17.5 110.5 52.5s29.5 93.667 29.5 176s-10 142.166 -30 179.499s-56.667 56 -110 56s-90 -18.667 -110 -56s-30 -97.166 -30 -179.499s9.83301 -141 29.5 -176s56.5 -52.5 110.5 -52.5zM326 -12c-103.333 0 -176.166 28.167 -218.499 84.5
s-63.5 144.5 -63.5 264.5s21.167 209.167 63.5 267.5s115.166 87.5 218.499 87.5s176.166 -29.167 218.499 -87.5s63.5 -147.5 63.5 -267.5s-21.167 -208.167 -63.5 -264.5s-115.166 -84.5 -218.499 -84.5zM409 758c-17.333 0 -47.168 7.66699 -89.501 23
s-67.833 23 -76.5 23c-16.667 0 -39 -10.667 -67 -32l-14 -10l-29 96c13.333 16 30.5 30.667 51.5 44s41.333 20 61 20s49.834 -7.66699 90.501 -23s64.667 -23 72 -23c15.333 0 37.333 10.667 66 32l15 10l29 -97c-14 -16 -31.333 -30.5 -52 -43.5s-39.667 -19.5 -57 -19.5
z" />
    <glyph glyph-name="Odieresis" unicode="&#xd6;" horiz-adv-x="652" 
d="M326 108c54 0 90.833 17.5 110.5 52.5s29.5 93.667 29.5 176s-10 142.166 -30 179.499s-56.667 56 -110 56s-90 -18.667 -110 -56s-30 -97.166 -30 -179.499s9.83301 -141 29.5 -176s56.5 -52.5 110.5 -52.5zM326 -12c-103.333 0 -176.166 28.167 -218.499 84.5
s-63.5 144.5 -63.5 264.5s21.167 209.167 63.5 267.5s115.166 87.5 218.499 87.5s176.166 -29.167 218.499 -87.5s63.5 -147.5 63.5 -267.5s-21.167 -208.167 -63.5 -264.5s-115.166 -84.5 -218.499 -84.5zM155 764v132h128v-132h-128zM369 764v132h128v-132h-128z" />
    <glyph glyph-name="multiply" unicode="&#xd7;" 
d="M142 473l138 -141l140 143l84 -85l-143 -140l143 -139l-85 -85l-139 142l-139 -141l-85 84l142 139l-141 138z" />
    <glyph glyph-name="Oslash" unicode="&#xd8;" horiz-adv-x="652" 
d="M326 -12c-32.667 0 -64.668 3.33203 -96.001 9.99902l-58 -125l-98 49l58 124c-58.667 52 -88 148.667 -88 290c0 120.667 21.167 210.167 63.5 268.5s115.166 87.5 218.499 87.5c38.667 0 72.334 -4 101.001 -12l61 130l100 -43l-65 -140
c56.667 -54.667 85 -151.667 85 -291c0 -119.333 -21.167 -207.166 -63.5 -263.499s-115.166 -84.5 -218.499 -84.5zM215.999 515.999c-20 -37.333 -30 -92.167 -30 -164.5s5 -124.833 15 -157.5l173 371c-16 4.66699 -32 7 -48 7c-53.333 0 -90 -18.667 -110 -56z
M325.999 107.998c54 0 90.834 17.5 110.501 52.5s29.5 87.833 29.5 158.5s-4.66699 122.667 -14 156l-169 -363c11.333 -2.66699 25.666 -4 42.999 -4z" />
    <glyph glyph-name="Ugrave" unicode="&#xd9;" horiz-adv-x="654" 
d="M206 227c0 -79.333 40.333 -119 121 -119s121 39.667 121 119v453h138v-450c0 -83.333 -21.5 -144.5 -64.5 -183.5s-107.833 -58.5 -194.5 -58.5s-151.5 19.5 -194.5 58.5s-64.5 100.167 -64.5 183.5v450h138v-453zM216 945l252 -106l-33 -93l-260 79z" />
    <glyph glyph-name="Uacute" unicode="&#xda;" horiz-adv-x="654" 
d="M206 227c0 -79.333 40.333 -119 121 -119s121 39.667 121 119v453h138v-450c0 -83.333 -21.5 -144.5 -64.5 -183.5s-107.833 -58.5 -194.5 -58.5s-151.5 19.5 -194.5 58.5s-64.5 100.167 -64.5 183.5v450h138v-453zM175 839l252 106l41 -120l-260 -79z" />
    <glyph glyph-name="Ucircumflex" unicode="&#xdb;" horiz-adv-x="654" 
d="M206 227c0 -79.333 40.333 -119 121 -119s121 39.667 121 119v453h138v-450c0 -83.333 -21.5 -144.5 -64.5 -183.5s-107.833 -58.5 -194.5 -58.5s-151.5 19.5 -194.5 58.5s-64.5 100.167 -64.5 183.5v450h138v-453zM135 765l134 149h117l134 -149h-142l-49 56l-52 -56
h-142z" />
    <glyph glyph-name="Udieresis" unicode="&#xdc;" horiz-adv-x="654" 
d="M206 227c0 -79.333 40.333 -119 121 -119s121 39.667 121 119v453h138v-450c0 -83.333 -21.5 -144.5 -64.5 -183.5s-107.833 -58.5 -194.5 -58.5s-151.5 19.5 -194.5 58.5s-64.5 100.167 -64.5 183.5v450h138v-453zM156 764v132h128v-132h-128zM370 764v132h128v-132
h-128z" />
    <glyph glyph-name="Yacute" unicode="&#xdd;" horiz-adv-x="557" 
d="M348 0h-138v275l-210 405h153l125 -271l125 271h153l-208 -405v-275zM133 839l252 106l41 -120l-260 -79z" />
    <glyph glyph-name="Thorn" unicode="&#xde;" horiz-adv-x="596" 
d="M323 233c34 0 60 10.5 78 31.5s27 50.5 27 88.5c0 71.333 -35 107 -105 107h-111v-227h111zM324 99h-112v-99h-138v690h138v-98h112c162.667 0 244 -79.667 244 -239c0 -80.667 -20.833 -143.167 -62.5 -187.5s-102.167 -66.5 -181.5 -66.5z" />
    <glyph glyph-name="germandbls" unicode="&#xdf;" horiz-adv-x="611" 
d="M196 0l-134.003 0.00195312v522c0 68 17.833 116.667 53.5 146s93.5 44 173.5 44s139 -12.333 177 -37s57 -64.667 57 -120c0 -36 -7.16699 -62.333 -21.5 -79s-36.166 -31.5 -65.499 -44.5s-47.666 -22.5 -54.999 -28.5s-11 -13.667 -11 -23s5.33301 -18 16 -26
s38.167 -22.167 82.5 -42.5s75.333 -40.333 93 -60s26.5 -48.834 26.5 -87.501c0 -67.333 -15.167 -113.5 -45.5 -138.5s-82.5 -37.5 -156.5 -37.5c-36 0 -79.333 6 -130 18l-24 5l4 107c64.667 -8 109.334 -12 134.001 -12c53.333 0 80 12.667 80 38c0 15.333 -5 27 -15 35
s-37 21.333 -81 40s-75.333 39.167 -94 61.5s-28 50.5 -28 84.5s6 60.333 18 79s32.667 34 62 46s48.833 21.667 58.5 29s14.5 18 14.5 32s-6.66699 24.667 -20 32s-37.833 11 -73.5 11s-60.5 -5.83301 -74.5 -17.5s-21 -30.834 -21 -57.501v-519z" />
    <glyph glyph-name="agrave" unicode="&#xe0;" horiz-adv-x="511" 
d="M445 344l0.00195312 -207.999c1.33301 -16 4 -27.167 8 -33.5s12.333 -10.833 25 -13.5l-4 -101c-34 0 -61.167 2.33301 -81.5 7s-40.833 14 -61.5 28c-48 -23.333 -97 -35 -147 -35c-103.333 0 -155 54.667 -155 164c0 53.333 14.333 91.166 43 113.499
s72.667 35.5 132 39.5l107 8v31c0 20.667 -4.66699 34.834 -14 42.501s-24.333 11.5 -45 11.5l-188 -8l-4 93c71.333 19.333 139.166 29 203.499 29s110.666 -13.333 138.999 -40s42.5 -69.334 42.5 -128.001zM220.002 212.001c-37.333 -3.33301 -56 -23.333 -56 -60
s16.333 -55 49 -55c25.333 0 53 4 83 12l15 4v107zM143.002 753.001l252 -102l-30 -87l-262 74z" />
    <glyph glyph-name="aacute" unicode="&#xe1;" horiz-adv-x="511" 
d="M445 344l0.00195312 -207.999c1.33301 -16 4 -27.167 8 -33.5s12.333 -10.833 25 -13.5l-4 -101c-34 0 -61.167 2.33301 -81.5 7s-40.833 14 -61.5 28c-48 -23.333 -97 -35 -147 -35c-103.333 0 -155 54.667 -155 164c0 53.333 14.333 91.166 43 113.499
s72.667 35.5 132 39.5l107 8v31c0 20.667 -4.66699 34.834 -14 42.501s-24.333 11.5 -45 11.5l-188 -8l-4 93c71.333 19.333 139.166 29 203.499 29s110.666 -13.333 138.999 -40s42.5 -69.334 42.5 -128.001zM220.002 212.001c-37.333 -3.33301 -56 -23.333 -56 -60
s16.333 -55 49 -55c25.333 0 53 4 83 12l15 4v107zM96.002 651.001l252 102l40 -115l-262 -74z" />
    <glyph glyph-name="acircumflex" unicode="&#xe2;" horiz-adv-x="511" 
d="M445 344l0.00195312 -207.999c1.33301 -16 4 -27.167 8 -33.5s12.333 -10.833 25 -13.5l-4 -101c-34 0 -61.167 2.33301 -81.5 7s-40.833 14 -61.5 28c-48 -23.333 -97 -35 -147 -35c-103.333 0 -155 54.667 -155 164c0 53.333 14.333 91.166 43 113.499
s72.667 35.5 132 39.5l107 8v31c0 20.667 -4.66699 34.834 -14 42.501s-24.333 11.5 -45 11.5l-188 -8l-4 93c71.333 19.333 139.166 29 203.499 29s110.666 -13.333 138.999 -40s42.5 -69.334 42.5 -128.001zM220.002 212.001c-37.333 -3.33301 -56 -23.333 -56 -60
s16.333 -55 49 -55c25.333 0 53 4 83 12l15 4v107zM83.002 580.001l126 151h84l128 -151h-123l-46 67l-46 -67h-123z" />
    <glyph glyph-name="atilde" unicode="&#xe3;" horiz-adv-x="511" 
d="M445 344l0.00195312 -207.999c1.33301 -16 4 -27.167 8 -33.5s12.333 -10.833 25 -13.5l-4 -101c-34 0 -61.167 2.33301 -81.5 7s-40.833 14 -61.5 28c-48 -23.333 -97 -35 -147 -35c-103.333 0 -155 54.667 -155 164c0 53.333 14.333 91.166 43 113.499
s72.667 35.5 132 39.5l107 8v31c0 20.667 -4.66699 34.834 -14 42.501s-24.333 11.5 -45 11.5l-188 -8l-4 93c71.333 19.333 139.166 29 203.499 29s110.666 -13.333 138.999 -40s42.5 -69.334 42.5 -128.001zM220.002 212.001c-37.333 -3.33301 -56 -23.333 -56 -60
s16.333 -55 49 -55c25.333 0 53 4 83 12l15 4v107zM340.002 602.001c-18.667 -11.333 -35.4971 -16.999 -50.4971 -16.999s-37.833 6 -68.5 18s-50.334 18 -59.001 18c-19.333 0 -41.333 -7.66699 -66 -23l-13 -8l-29 75c13.333 15.333 30.166 29.166 50.499 41.499
s38 18.5 53 18.5s38 -6 69 -18s50.5 -18 58.5 -18c16 0 38 8.33301 66 25l14 9l29 -76c-4 -4.66699 -9.33301 -10.5 -16 -17.5s-19.334 -16.167 -38.001 -27.5z" />
    <glyph glyph-name="adieresis" unicode="&#xe4;" horiz-adv-x="511" 
d="M445 344l0.00195312 -207.999c1.33301 -16 4 -27.167 8 -33.5s12.333 -10.833 25 -13.5l-4 -101c-34 0 -61.167 2.33301 -81.5 7s-40.833 14 -61.5 28c-48 -23.333 -97 -35 -147 -35c-103.333 0 -155 54.667 -155 164c0 53.333 14.333 91.166 43 113.499
s72.667 35.5 132 39.5l107 8v31c0 20.667 -4.66699 34.834 -14 42.501s-24.333 11.5 -45 11.5l-188 -8l-4 93c71.333 19.333 139.166 29 203.499 29s110.666 -13.333 138.999 -40s42.5 -69.334 42.5 -128.001zM220.002 212.001c-37.333 -3.33301 -56 -23.333 -56 -60
s16.333 -55 49 -55c25.333 0 53 4 83 12l15 4v107zM65.002 596.001v132h128v-132h-128zM281.002 596.001v132h128v-132h-128z" />
    <glyph glyph-name="aring" unicode="&#xe5;" horiz-adv-x="511" 
d="M445 344l0.00195312 -207.999c1.33301 -16 4 -27.167 8 -33.5s12.333 -10.833 25 -13.5l-4 -101c-34 0 -61.167 2.33301 -81.5 7s-40.833 14 -61.5 28c-48 -23.333 -97 -35 -147 -35c-103.333 0 -155 54.667 -155 164c0 53.333 14.333 91.166 43 113.499
s72.667 35.5 132 39.5l107 8v31c0 20.667 -4.66699 34.834 -14 42.501s-24.333 11.5 -45 11.5l-188 -8l-4 93c71.333 19.333 139.166 29 203.499 29s110.666 -13.333 138.999 -40s42.5 -69.334 42.5 -128.001zM220.002 212.001c-37.333 -3.33301 -56 -23.333 -56 -60
s16.333 -55 49 -55c25.333 0 53 4 83 12l15 4v107zM181.502 554.501c-22.333 22.333 -33.5 50 -33.5 83s11.167 60.833 33.5 83.5s50 34 83 34s60.833 -11.333 83.5 -34s34 -50.5 34 -83.5s-11.333 -60.667 -34 -83s-50.5 -33.5 -83.5 -33.5s-60.667 11.167 -83 33.5z
M220.002 638.001c0 -13.333 4.33301 -24.333 13 -33s19.667 -13 33 -13s24.166 4.33301 32.499 13s12.5 19.667 12.5 33s-4.16699 24.166 -12.5 32.499s-19.166 12.5 -32.499 12.5s-24.333 -4.16699 -33 -12.5s-13 -19.166 -13 -32.499z" />
    <glyph glyph-name="ae" unicode="&#xe6;" horiz-adv-x="784" 
d="M469 130c15.333 -12.667 38 -18.998 68 -18.998c45.333 0 100.666 2.33301 165.999 7l28 2l2 -104c-76.667 -18.667 -147.5 -28 -212.5 -28s-114.5 16 -148.5 48l-23 -11c-56 -24.667 -110.667 -37 -164 -37s-92.666 14.5 -117.999 43.5s-38 69.667 -38 122
s14.5 90 43.5 113s72.5 36.167 130.5 39.5l108 7v25c0 13.333 -4.66699 24.166 -14 32.499s-23 12.5 -41 12.5c-48 0 -100.333 -2.66699 -157 -8l-32 -3l-4 117c88.667 14.667 159.5 22 212.5 22s93.833 -12.333 122.5 -37c34.667 24.667 79 37 133 37
c145.333 0 218 -75 218 -225l-10 -94h-294c0.666992 -28.667 8.66699 -49.334 24 -62.001zM311 118.002l-1.00098 93l-90 -4c-37.333 -2 -56 -19 -56 -51c0 -35.333 13.667 -53 41 -53c26.667 0 56.334 3.66699 89.001 11zM444.999 295.002h172.001
c0 35.333 -6.5 60.333 -19.5 75s-35.333 22 -67 22s-53.834 -7.66699 -66.501 -23s-19 -40 -19 -74z" />
    <glyph glyph-name="ccedilla" unicode="&#xe7;" horiz-adv-x="446" 
d="M348.5 -56c19.667 -12 29.498 -36.332 29.498 -72.999s-9.66699 -64.5 -29 -83.5s-46.666 -28.5 -81.999 -28.5c-28.667 0 -55 2.66699 -79 8l-14 3l4 78c20.667 -0.666992 36.667 -1 48 -1c25.333 0 38 8.66699 38 26c0 14.667 -12.667 22 -38 22h-24v96
c-58 7.33301 -99.833 32 -125.5 74s-38.5 106.5 -38.5 193.5s16.667 151 50 192s87 61.5 161 61.5c34.667 0 79 -5.33301 133 -16l27 -6l-4 -106c-52.667 5.33301 -91.667 8 -117 8c-46 0 -76.5 -9.83301 -91.5 -29.5s-22.5 -56.834 -22.5 -111.501s7.5 -92.167 22.5 -112.5
s45.833 -30.5 92.5 -30.5l116 8l4 -107c-64.667 -12.667 -116 -19.667 -154 -21v-25c42.667 -0.666992 73.834 -7 93.501 -19z" />
    <glyph glyph-name="egrave" unicode="&#xe8;" horiz-adv-x="510" 
d="M196.5 126.5c15.667 -13.667 38.166 -20.499 67.499 -20.499c62 0 117.333 2 166 6l28 3l2 -99c-76.667 -18.667 -146 -28 -208 -28c-75.333 0 -130 20 -164 60s-51 105 -51 195c0 179.333 73.667 269 221 269c145.333 0 218 -75.333 218 -226l-10 -93h-294
c0.666992 -30.667 8.83398 -52.834 24.501 -66.501zM343.999 295.001c0 40 -6.33203 67.833 -18.999 83.5s-34.834 23.5 -66.501 23.5s-54 -8.16699 -67 -24.5s-19.833 -43.833 -20.5 -82.5h173zM150 753.001l252 -102l-30 -87l-262 74z" />
    <glyph glyph-name="eacute" unicode="&#xe9;" horiz-adv-x="510" 
d="M196.5 126.5c15.667 -13.667 38.166 -20.499 67.499 -20.499c62 0 117.333 2 166 6l28 3l2 -99c-76.667 -18.667 -146 -28 -208 -28c-75.333 0 -130 20 -164 60s-51 105 -51 195c0 179.333 73.667 269 221 269c145.333 0 218 -75.333 218 -226l-10 -93h-294
c0.666992 -30.667 8.83398 -52.834 24.501 -66.501zM343.999 295.001c0 40 -6.33203 67.833 -18.999 83.5s-34.834 23.5 -66.501 23.5s-54 -8.16699 -67 -24.5s-19.833 -43.833 -20.5 -82.5h173zM105 651.001l252 102l40 -115l-262 -74z" />
    <glyph glyph-name="ecircumflex" unicode="&#xea;" horiz-adv-x="510" 
d="M196.5 126.5c15.667 -13.667 38.166 -20.499 67.499 -20.499c62 0 117.333 2 166 6l28 3l2 -99c-76.667 -18.667 -146 -28 -208 -28c-75.333 0 -130 20 -164 60s-51 105 -51 195c0 179.333 73.667 269 221 269c145.333 0 218 -75.333 218 -226l-10 -93h-294
c0.666992 -30.667 8.83398 -52.834 24.501 -66.501zM343.999 295.001c0 40 -6.33203 67.833 -18.999 83.5s-34.834 23.5 -66.501 23.5s-54 -8.16699 -67 -24.5s-19.833 -43.833 -20.5 -82.5h173zM89 580.001l126 151h84l128 -151h-123l-46 67l-46 -67h-123z" />
    <glyph glyph-name="edieresis" unicode="&#xeb;" horiz-adv-x="510" 
d="M196.5 126.5c15.667 -13.667 38.166 -20.499 67.499 -20.499c62 0 117.333 2 166 6l28 3l2 -99c-76.667 -18.667 -146 -28 -208 -28c-75.333 0 -130 20 -164 60s-51 105 -51 195c0 179.333 73.667 269 221 269c145.333 0 218 -75.333 218 -226l-10 -93h-294
c0.666992 -30.667 8.83398 -52.834 24.501 -66.501zM343.999 295.001c0 40 -6.33203 67.833 -18.999 83.5s-34.834 23.5 -66.501 23.5s-54 -8.16699 -67 -24.5s-19.833 -43.833 -20.5 -82.5h173zM84 596.001v132h128v-132h-128zM300 596.001v132h128v-132h-128z" />
    <glyph glyph-name="igrave" unicode="&#xec;" horiz-adv-x="258" 
d="M62 0v500h134v-500h-134zM-19 753l252 -102l-30 -87l-262 74z" />
    <glyph glyph-name="iacute" unicode="&#xed;" horiz-adv-x="258" 
d="M31 651l252 102l40 -115l-262 -74zM62 500h134v-500h-134v500z" />
    <glyph glyph-name="icircumflex" unicode="&#xee;" horiz-adv-x="258" 
d="M62 500h134v-500h-134v500zM-45 580l126 151h84l128 -151h-123l-46 67l-46 -67h-123z" />
    <glyph glyph-name="idieresis" unicode="&#xef;" horiz-adv-x="258" 
d="M62 500h134v-500h-134v500zM-48 596v132h128v-132h-128zM168 596v132h128v-132h-128z" />
    <glyph glyph-name="eth" unicode="&#xf0;" horiz-adv-x="567" 
d="M405 625c82 -58.667 122.997 -150.165 122.997 -274.498s-20 -215.333 -60 -273s-105 -86.5 -195 -86.5c-156.667 0 -235 75 -235 225c0 69.333 18.167 123.666 54.5 162.999s90.833 59 163.5 59c41.333 0 79 -6 113 -18l17 -6
c-3.33301 31.333 -11.666 58.166 -24.999 80.499s-34.666 41.833 -63.999 58.5l-129 -86l-54 76l76 51c-30.667 8 -66.667 16 -108 24l18 94c80.667 -6 150.334 -19 209.001 -39l96 64l54 -76zM263.997 320.002c-27.333 0 -48.167 -10.167 -62.5 -30.5
s-21.5 -44.833 -21.5 -73.5c0 -70 31 -105 93 -105c37.333 0 65.5 14.667 84.5 44s28.5 77 28.5 143c-33.333 14.667 -74 22 -122 22z" />
    <glyph glyph-name="ntilde" unicode="&#xf1;" horiz-adv-x="553" 
d="M62 0v499.999h133v-28l19 10c12 6.66699 28.5 13.334 49.5 20.001s39.833 10 56.5 10c66.667 0 112.667 -19.667 138 -59s38 -100 38 -182v-271h-134v267c0 42.667 -5 74.167 -15 94.5s-30.333 30.5 -61 30.5s-60.667 -6 -90 -18v-374h-134zM397 601.999
c-18.667 -11.333 -35.4971 -16.999 -50.4971 -16.999s-37.833 6 -68.5 18s-50.667 18 -60 18c-18.667 0 -40.334 -7.66699 -65.001 -23l-13 -8l-29 75c13.333 15.333 30.166 29.166 50.499 41.499s38 18.5 53 18.5s38 -6 69 -18s50.5 -18 58.5 -18c16 0 38 8.33301 66 25
l14 9l29 -76c-4 -4.66699 -9.33301 -10.5 -16 -17.5s-19.334 -16.167 -38.001 -27.5z" />
    <glyph glyph-name="ograve" unicode="&#xf2;" horiz-adv-x="532" 
d="M266 512c82.667 0 141.667 -22.833 177 -68.5s53 -109.834 53 -192.501c0 -175.333 -76.667 -263 -230 -263s-230 87.667 -230 263c0 82.667 17.667 146.834 53 192.501s94.333 68.5 177 68.5zM266 102c35.333 0 59.833 12 73.5 36s20.5 61.667 20.5 113
s-6.83301 88.666 -20.5 111.999s-38.167 35 -73.5 35s-59.833 -11.667 -73.5 -35s-20.5 -60.666 -20.5 -111.999s6.83301 -89 20.5 -113s38.167 -36 73.5 -36zM163 753l252 -102l-30 -87l-262 74z" />
    <glyph glyph-name="oacute" unicode="&#xf3;" horiz-adv-x="532" 
d="M266 512c82.667 0 141.667 -22.833 177 -68.5s53 -109.834 53 -192.501c0 -175.333 -76.667 -263 -230 -263s-230 87.667 -230 263c0 82.667 17.667 146.834 53 192.501s94.333 68.5 177 68.5zM266 102c35.333 0 59.833 12 73.5 36s20.5 61.667 20.5 113
s-6.83301 88.666 -20.5 111.999s-38.167 35 -73.5 35s-59.833 -11.667 -73.5 -35s-20.5 -60.666 -20.5 -111.999s6.83301 -89 20.5 -113s38.167 -36 73.5 -36zM116 651l252 102l40 -115l-262 -74z" />
    <glyph glyph-name="ocircumflex" unicode="&#xf4;" horiz-adv-x="532" 
d="M266 512c82.667 0 141.667 -22.833 177 -68.5s53 -109.834 53 -192.501c0 -175.333 -76.667 -263 -230 -263s-230 87.667 -230 263c0 82.667 17.667 146.834 53 192.501s94.333 68.5 177 68.5zM266 102c35.333 0 59.833 12 73.5 36s20.5 61.667 20.5 113
s-6.83301 88.666 -20.5 111.999s-38.167 35 -73.5 35s-59.833 -11.667 -73.5 -35s-20.5 -60.666 -20.5 -111.999s6.83301 -89 20.5 -113s38.167 -36 73.5 -36zM91 580l126 151h84l128 -151h-123l-46 67l-46 -67h-123z" />
    <glyph glyph-name="otilde" unicode="&#xf5;" horiz-adv-x="532" 
d="M266 512c82.667 0 141.667 -22.833 177 -68.5s53 -109.834 53 -192.501c0 -175.333 -76.667 -263 -230 -263s-230 87.667 -230 263c0 82.667 17.667 146.834 53 192.501s94.333 68.5 177 68.5zM266 102c35.333 0 59.833 12 73.5 36s20.5 61.667 20.5 113
s-6.83301 88.666 -20.5 111.999s-38.167 35 -73.5 35s-59.833 -11.667 -73.5 -35s-20.5 -60.666 -20.5 -111.999s6.83301 -89 20.5 -113s38.167 -36 73.5 -36zM377 602c-18.667 -11.333 -35.4971 -16.999 -50.4971 -16.999s-37.833 6 -68.5 18s-50.667 18 -60 18
c-18.667 0 -40.334 -7.66699 -65.001 -23l-13 -8l-29 75c13.333 15.333 30.166 29.166 50.499 41.499s38 18.5 53 18.5s38 -6 69 -18s50.5 -18 58.5 -18c16 0 38 8.33301 66 25l14 9l29 -76c-4 -4.66699 -9.33301 -10.5 -16 -17.5s-19.334 -16.167 -38.001 -27.5z" />
    <glyph glyph-name="odieresis" unicode="&#xf6;" horiz-adv-x="532" 
d="M266 512c82.667 0 141.667 -22.833 177 -68.5s53 -109.834 53 -192.501c0 -175.333 -76.667 -263 -230 -263s-230 87.667 -230 263c0 82.667 17.667 146.834 53 192.501s94.333 68.5 177 68.5zM266 102c35.333 0 59.833 12 73.5 36s20.5 61.667 20.5 113
s-6.83301 88.666 -20.5 111.999s-38.167 35 -73.5 35s-59.833 -11.667 -73.5 -35s-20.5 -60.666 -20.5 -111.999s6.83301 -89 20.5 -113s38.167 -36 73.5 -36zM93 596v132h128v-132h-128zM309 596v132h128v-132h-128z" />
    <glyph glyph-name="divide" unicode="&#xf7;" 
d="M213 352v132h132v-132h-132zM50 191v120h460v-120h-460zM213 17v132h132v-132h-132z" />
    <glyph glyph-name="oslash" unicode="&#xf8;" horiz-adv-x="532" 
d="M266 512c18.667 0 37.333 -1.66797 56 -5.00098l40 100l81 -30l-41 -98c62.667 -39.333 94 -115.333 94 -228c0 -175.333 -76.667 -263 -230 -263c-22.667 0 -43.667 2 -63 6l-41 -102l-80 30l43 103c-59.333 40 -89 115.333 -89 226c0 82.667 17.667 146.834 53 192.501
s94.333 68.5 177 68.5zM265.999 101.999c35.333 0 59.833 12 73.5 36s20.5 59.667 20.5 107s-4.66699 82.333 -14 105l-100 -247c4 -0.666992 10.667 -1 20 -1zM278.999 396.999l-13 1c-35.333 0 -59.833 -11.667 -73.5 -35s-20.5 -58.333 -20.5 -105s4 -80.667 12 -102z
" />
    <glyph glyph-name="ugrave" unicode="&#xf9;" horiz-adv-x="553" 
d="M357 500h134v-500h-133v28c-48 -26.667 -89.667 -40 -125 -40c-69.333 0 -116 19.167 -140 57.5s-36 102.5 -36 192.5v262h134v-264c0 -49.333 4 -83 12 -101s27.333 -27 58 -27c29.333 0 57 4.66699 83 14l13 4v374zM138 753l252 -102l-30 -87l-262 74z" />
    <glyph glyph-name="uacute" unicode="&#xfa;" horiz-adv-x="553" 
d="M491 500l0.000976562 -499.999h-133v28l-20 -10c-12.667 -6.66699 -29.334 -13.334 -50.001 -20.001s-39 -10 -55 -10c-69.333 0 -116 19.167 -140 57.5s-36 102.5 -36 192.5v262h134v-264c0 -49.333 4 -83 12 -101s28 -27 60 -27s63.333 6 94 18v374h134z
M130.001 651.001l252 102l40 -115l-262 -74z" />
    <glyph glyph-name="ucircumflex" unicode="&#xfb;" horiz-adv-x="553" 
d="M491 500l0.000976562 -499.999h-133v28l-20 -10c-12.667 -6.66699 -29.334 -13.334 -50.001 -20.001s-39 -10 -55 -10c-69.333 0 -116 19.167 -140 57.5s-36 102.5 -36 192.5v262h134v-264c0 -49.333 4 -83 12 -101s28 -27 60 -27s63.333 6 94 18v374h134z
M82.001 580.001l126 151h84l128 -151h-123l-46 67l-46 -67h-123z" />
    <glyph glyph-name="udieresis" unicode="&#xfc;" horiz-adv-x="553" 
d="M491 500l0.000976562 -499.999h-133v28l-20 -10c-12.667 -6.66699 -29.334 -13.334 -50.001 -20.001s-39 -10 -55 -10c-69.333 0 -116 19.167 -140 57.5s-36 102.5 -36 192.5v262h134v-264c0 -49.333 4 -83 12 -101s28 -27 60 -27s63.333 6 94 18v374h134z
M106.001 596.001v132h128v-132h-128zM322.001 596.001v132h128v-132h-128z" />
    <glyph glyph-name="yacute" unicode="&#xfd;" horiz-adv-x="500" 
d="M16 500h132l91 -386h23l91 386h132l-176 -710h-131l55 210h-94zM122 651l252 102l40 -115l-262 -74z" />
    <glyph glyph-name="thorn" unicode="&#xfe;" horiz-adv-x="544" 
d="M269 104c38.667 0 65.167 11.333 79.5 34s21.5 61.667 21.5 117c0 91.333 -28 137 -84 137c-26.667 0 -52 -3.33301 -76 -10l-14 -3v-269c30 -4 54.333 -6 73 -6zM304 512c70 0 121.167 -19.166 153.5 -57.499s48.5 -106.833 48.5 -205.5s-17.667 -166.834 -53 -204.501
s-93.333 -56.5 -174 -56.5c-22 0 -45.667 2 -71 6l-12 2v-206h-134v910h134v-215c42.667 18 78.667 27 108 27z" />
    <glyph glyph-name="ydieresis" unicode="&#xff;" horiz-adv-x="500" 
d="M16 500h132l91 -386h23l91 386h132l-176 -710h-131l55 210h-94zM79 596v132h128v-132h-128zM295 596v132h128v-132h-128z" />
    <glyph glyph-name="Amacron" unicode="&#x100;" horiz-adv-x="602" 
d="M17 0l153 680h262l153 -680h-138l-27 123h-238l-27 -123h-138zM277 566l-69 -323h186l-69 323h-48zM124 782v98h347v-98h-347z" />
    <glyph glyph-name="amacron" unicode="&#x101;" horiz-adv-x="511" 
d="M445 344l0.00195312 -207.999c1.33301 -16 4 -27.167 8 -33.5s12.333 -10.833 25 -13.5l-4 -101c-34 0 -61.167 2.33301 -81.5 7s-40.833 14 -61.5 28c-48 -23.333 -97 -35 -147 -35c-103.333 0 -155 54.667 -155 164c0 53.333 14.333 91.166 43 113.499
s72.667 35.5 132 39.5l107 8v31c0 20.667 -4.66699 34.834 -14 42.501s-24.333 11.5 -45 11.5l-188 -8l-4 93c71.333 19.333 139.166 29 203.499 29s110.666 -13.333 138.999 -40s42.5 -69.334 42.5 -128.001zM220.002 212.001c-37.333 -3.33301 -56 -23.333 -56 -60
s16.333 -55 49 -55c25.333 0 53 4 83 12l15 4v107zM107.002 597.001v100h287v-100h-287z" />
    <glyph glyph-name="Abreve" unicode="&#x102;" horiz-adv-x="602" 
d="M17 0l153 680h262l153 -680h-138l-27 123h-238l-27 -123h-138zM277 566l-69 -323h186l-69 323h-48zM253 869c11.333 -10.667 26.167 -16 44.5 -16s33.333 5.33301 45 16s18.5 24.334 20.5 41.001h121c-5.33301 -45.333 -23.5 -81.833 -54.5 -109.5
s-75.167 -41.5 -132.5 -41.5s-101.333 13.833 -132 41.5s-48.667 64.167 -54 109.5h121c2.66699 -16.667 9.66699 -30.334 21 -41.001z" />
    <glyph glyph-name="abreve" unicode="&#x103;" horiz-adv-x="512" 
d="M445 154c0 -19.333 2.00098 -32.166 6.00098 -38.499s12.667 -10.833 26 -13.5l-4 -114c-40 0 -69 2.5 -87 7.5s-36.333 13.833 -55 26.5l-23 -8c-46 -17.333 -89.333 -26 -130 -26c-48.667 0 -85.667 14.5 -111 43.5s-38 69.667 -38 122s14.167 89.833 42.5 112.5
s72.166 36 131.499 40l108 7v25c0 13.333 -4.66699 24.166 -14 32.499s-21.333 12.5 -36 12.5c-49.333 0 -114 -2.66699 -194 -8l-4 114l35 5c71.333 11.333 128.333 17 171 17c58.667 0 102.667 -13.167 132 -39.5s44 -70.5 44 -132.5v-185zM205.001 103
c27.333 0 62.667 5 106 15v93l-91 -4c-37.333 -2 -56 -19 -56 -51c0 -35.333 13.667 -53 41 -53zM198.002 748c4.66699 -29.333 23.1631 -44 55.4961 -44s50.5 14.667 54.5 44h139c-5.33301 -50 -24.166 -89.667 -56.499 -119s-78.166 -44 -137.499 -44
s-105.166 14.667 -137.499 44s-51.166 69 -56.499 119h139z" />
    <glyph glyph-name="Aogonek" unicode="&#x104;" horiz-adv-x="602" 
d="M567 0c-37.333 -31.333 -56.002 -58.166 -56.002 -80.499s10.667 -33.5 32 -33.5l42 4l12 -95c-39.333 -7.33301 -74.166 -11 -104.499 -11s-55.666 8.66699 -75.999 26s-30.5 40.666 -30.5 69.999c0 45.333 22 85.333 66 120h-5l-27 123h-238l-27 -123h-138l153 680h262
l153 -680h-18zM276.998 566l-69 -323h186l-69 323h-48z" />
    <glyph glyph-name="aogonek" unicode="&#x105;" horiz-adv-x="510" 
d="M474 -12l-38 0.999023c-29.333 -27.333 -44 -50.666 -44 -69.999c0 -22 10.667 -33 32 -33l42 4l12 -95c-39.333 -7.33301 -74.166 -11 -104.499 -11s-55.666 8.66699 -75.999 26s-30.5 39.333 -30.5 66s6.83301 50.834 20.5 72.501s27.167 37.5 40.5 47.5l20 15l3 -1
l-20 13c-48 -23.333 -97 -35 -147 -35c-103.333 0 -155 54.667 -155 164c0 53.333 14.333 91.166 43 113.499s72.667 35.5 132 39.5l107 8v31c0 20.667 -4.66699 34.834 -14 42.501s-24.333 11.5 -45 11.5l-188 -8l-4 93c71.333 19.333 139.166 29 203.499 29
s110.666 -13.333 138.999 -40s42.5 -69.334 42.5 -128.001v-208c1.33301 -16 4 -27.167 8 -33.5s12.333 -10.833 25 -13.5zM220 211.999c-37.333 -3.33301 -56 -23.333 -56 -60s16.333 -55 49 -55c25.333 0 53 4 83 12l15 4v107z" />
    <glyph glyph-name="Cacute" unicode="&#x106;" horiz-adv-x="543" 
d="M505 11c-70.667 -15.333 -134.332 -22.998 -190.999 -22.998s-102 7 -136 21s-60.667 36.333 -80 67s-32.666 66.667 -39.999 108s-11 93.333 -11 156c0 131.333 18.5 222.833 55.5 274.5s105.167 77.5 204.5 77.5c57.333 0 123.666 -9 198.999 -27l-4 -110
c-66 10 -120.833 15 -164.5 15s-74.834 -5.83301 -93.501 -17.5s-32.5 -33.834 -41.5 -66.501s-13.5 -88.334 -13.5 -167.001s9.16699 -133.167 27.5 -163.5s55 -45.5 110 -45.5s113.5 4.66699 175.5 14zM147.002 839.002l252 106l41 -120l-260 -79z" />
    <glyph glyph-name="cacute" unicode="&#x107;" horiz-adv-x="446" 
d="M249 512c34.667 0 78.999 -5.33203 132.999 -15.999l27 -6l-4 -106c-52.667 5.33301 -91.667 8 -117 8c-46 0 -76.5 -9.83301 -91.5 -29.5s-22.5 -56.834 -22.5 -111.501s7.5 -92.167 22.5 -112.5s45.833 -30.5 92.5 -30.5l116 8l4 -107
c-71.333 -14 -125.666 -21 -162.999 -21c-74 0 -127.167 20.833 -159.5 62.5s-48.5 108.5 -48.5 200.5s16.667 158.5 50 199.5s87 61.5 161 61.5zM96.999 651.001l252 102l40 -115l-262 -74z" />
    <glyph glyph-name="Ccircumflex" unicode="&#x108;" horiz-adv-x="543" 
d="M505 11c-70.667 -15.333 -134.332 -22.998 -190.999 -22.998s-102 7 -136 21s-60.667 36.333 -80 67s-32.666 66.667 -39.999 108s-11 93.333 -11 156c0 131.333 18.5 222.833 55.5 274.5s105.167 77.5 204.5 77.5c57.333 0 123.666 -9 198.999 -27l-4 -110
c-66 10 -120.833 15 -164.5 15s-74.834 -5.83301 -93.501 -17.5s-32.5 -33.834 -41.5 -66.501s-13.5 -88.334 -13.5 -167.001s9.16699 -133.167 27.5 -163.5s55 -45.5 110 -45.5s113.5 4.66699 175.5 14zM107.002 765.002l134 149h117l134 -149h-142l-49 56l-52 -56h-142z
" />
    <glyph glyph-name="ccircumflex" unicode="&#x109;" horiz-adv-x="446" 
d="M249 512c34.667 0 78.999 -5.33203 132.999 -15.999l27 -6l-4 -106c-52.667 5.33301 -91.667 8 -117 8c-46 0 -76.5 -9.83301 -91.5 -29.5s-22.5 -56.834 -22.5 -111.501s7.5 -92.167 22.5 -112.5s45.833 -30.5 92.5 -30.5l116 8l4 -107
c-71.333 -14 -125.666 -21 -162.999 -21c-74 0 -127.167 20.833 -159.5 62.5s-48.5 108.5 -48.5 200.5s16.667 158.5 50 199.5s87 61.5 161 61.5zM53.999 580.001l126 151h84l128 -151h-123l-46 67l-46 -67h-123z" />
    <glyph glyph-name="Cdotaccent" unicode="&#x10a;" horiz-adv-x="543" 
d="M505 11c-70.667 -15.333 -134.332 -22.998 -190.999 -22.998s-102 7 -136 21s-60.667 36.333 -80 67s-32.666 66.667 -39.999 108s-11 93.333 -11 156c0 131.333 18.5 222.833 55.5 274.5s105.167 77.5 204.5 77.5c57.333 0 123.666 -9 198.999 -27l-4 -110
c-66 10 -120.833 15 -164.5 15s-74.834 -5.83301 -93.501 -17.5s-32.5 -33.834 -41.5 -66.501s-13.5 -88.334 -13.5 -167.001s9.16699 -133.167 27.5 -163.5s55 -45.5 110 -45.5s113.5 4.66699 175.5 14zM219.002 760.002v135h134v-135h-134z" />
    <glyph glyph-name="cdotaccent" unicode="&#x10b;" horiz-adv-x="446" 
d="M249 512c34.667 0 78.999 -5.33203 132.999 -15.999l27 -6l-4 -106c-52.667 5.33301 -91.667 8 -117 8c-46 0 -76.5 -9.83301 -91.5 -29.5s-22.5 -56.834 -22.5 -111.501s7.5 -92.167 22.5 -112.5s45.833 -30.5 92.5 -30.5l116 8l4 -107
c-71.333 -14 -125.666 -21 -162.999 -21c-74 0 -127.167 20.833 -159.5 62.5s-48.5 108.5 -48.5 200.5s16.667 158.5 50 199.5s87 61.5 161 61.5zM188.999 556.001v135h134v-135h-134z" />
    <glyph glyph-name="Ccaron" unicode="&#x10c;" horiz-adv-x="543" 
d="M505 11c-70.667 -15.333 -134.332 -22.998 -190.999 -22.998s-102 7 -136 21s-60.667 36.333 -80 67s-32.666 66.667 -39.999 108s-11 93.333 -11 156c0 131.333 18.5 222.833 55.5 274.5s105.167 77.5 204.5 77.5c57.333 0 123.666 -9 198.999 -27l-4 -110
c-66 10 -120.833 15 -164.5 15s-74.834 -5.83301 -93.501 -17.5s-32.5 -33.834 -41.5 -66.501s-13.5 -88.334 -13.5 -167.001s9.16699 -133.167 27.5 -163.5s55 -45.5 110 -45.5s113.5 4.66699 175.5 14zM250.002 765.002l-134 149h142l52 -56l49 56h142l-134 -149h-117z
" />
    <glyph glyph-name="ccaron" unicode="&#x10d;" horiz-adv-x="446" 
d="M249 512c34.667 0 78.999 -5.33203 132.999 -15.999l27 -6l-4 -106c-52.667 5.33301 -91.667 8 -117 8c-46 0 -76.5 -9.83301 -91.5 -29.5s-22.5 -56.834 -22.5 -111.501s7.5 -92.167 22.5 -112.5s45.833 -30.5 92.5 -30.5l116 8l4 -107
c-71.333 -14 -125.666 -21 -162.999 -21c-74 0 -127.167 20.833 -159.5 62.5s-48.5 108.5 -48.5 200.5s16.667 158.5 50 199.5s87 61.5 161 61.5zM198.999 580.001l-126 151h123l46 -67l46 67h123l-128 -151h-84z" />
    <glyph glyph-name="Dcaron" unicode="&#x10e;" horiz-adv-x="638" 
d="M303 0l-229.001 -0.00390625v680h229c58.667 0 107 -6.16699 145 -18.5s67.5 -32.666 88.5 -60.999s35.5 -61.666 43.5 -99.999s12 -88.166 12 -149.499s-3.66699 -112.166 -11 -152.499s-21.166 -76.333 -41.499 -108s-49.833 -54.667 -88.5 -69s-88 -21.5 -148 -21.5z
M447.999 269.996c1.33301 21.333 2 50.8311 2 88.498s-1.33301 67.834 -4 90.501s-9 43.334 -19 62.001s-24.833 31.5 -44.5 38.5s-46.167 10.5 -79.5 10.5h-91v-440h91c50 0 86.333 12.667 109 38c19.333 20.667 31.333 58 36 112zM245.999 764.994l-134 149h142l52 -56
l49 56h142l-134 -149h-117z" />
    <glyph glyph-name="dcaron" unicode="&#x10f;" horiz-adv-x="664" 
d="M590 678h130l-55 -234h-121zM487 700l0.00195312 -700h-133v21c-46.667 -22 -87 -33 -121 -33c-72.667 0 -123.334 21 -152.001 63s-43 108.5 -43 199.5s17.167 157.333 51.5 199s86.166 62.5 155.499 62.5c21.333 0 51 -3.33301 89 -10l19 -4v202h134zM339.002 120l14 3
v263c-36.667 6.66699 -69.334 10 -98.001 10c-54 0 -81 -48 -81 -144c0 -52 6 -89 18 -111s31.833 -33 59.5 -33s56.834 4 87.501 12z" />
    <glyph glyph-name="Dcroat" unicode="&#x110;" horiz-adv-x="642" 
d="M25 277l-0.000976562 132.001h54v281h227c58.667 0 107 -6.33301 145 -19s67.5 -33.5 88.5 -62.5s35.5 -63 43.5 -102s12 -89.333 12 -151s-3.66699 -112.834 -11 -153.501s-21.166 -77.167 -41.499 -109.5s-49.833 -55.833 -88.5 -70.5s-88 -22 -148 -22h-227v277h-54z
M452.999 354.001c0 28.667 -0.498047 51.3311 -1.49805 67.998s-3.16699 33.334 -6.5 50.001s-8.33301 29.834 -15 39.501s-15.334 18.5 -26.001 26.5c-20.667 14 -53.334 21 -98.001 21h-91v-150h130v-132h-130v-146h91c50 0 86.667 12.667 110 38
c24.667 27.333 37 89 37 185z" />
    <glyph glyph-name="dcroat" unicode="&#x111;" horiz-adv-x="549" 
d="M129 622l0.00195312 116h327v-38h31v-700h-133v21c-46.667 -22 -87 -33 -121 -33c-72.667 0 -123.334 21 -152.001 63s-43 108.5 -43 199.5s17.167 157.333 51.5 199s86.166 62.5 155.499 62.5c21.333 0 51 -3.33301 89 -10l19 -4v124h-224zM339.002 120l14 3v263
c-36.667 6.66699 -69.334 10 -98.001 10c-54 0 -81 -48 -81 -144c0 -52 6 -89 18 -111s31.833 -33 59.5 -33s56.834 4 87.501 12z" />
    <glyph glyph-name="Emacron" unicode="&#x112;" horiz-adv-x="554" 
d="M74 0v680h440v-120h-302v-159h242v-118h-242v-163h302v-120h-440zM116 782v98h347v-98h-347z" />
    <glyph glyph-name="emacron" unicode="&#x113;" horiz-adv-x="510" 
d="M196.5 126.5c15.667 -13.667 38.166 -20.499 67.499 -20.499c62 0 117.333 2 166 6l28 3l2 -99c-76.667 -18.667 -146 -28 -208 -28c-75.333 0 -130 20 -164 60s-51 105 -51 195c0 179.333 73.667 269 221 269c145.333 0 218 -75.333 218 -226l-10 -93h-294
c0.666992 -30.667 8.83398 -52.834 24.501 -66.501zM343.999 295.001c0 40 -6.33203 67.833 -18.999 83.5s-34.834 23.5 -66.501 23.5s-54 -8.16699 -67 -24.5s-19.833 -43.833 -20.5 -82.5h173zM113 597.001v100h287v-100h-287z" />
    <glyph glyph-name="Ebreve" unicode="&#x114;" horiz-adv-x="554" 
d="M74 0v680h440v-120h-302v-159h242v-118h-242v-163h302v-120h-440zM256 869c11.333 -10.667 26.167 -16 44.5 -16s33.333 5.33301 45 16s18.5 24.334 20.5 41.001h121c-5.33301 -45.333 -23.5 -81.833 -54.5 -109.5s-75.167 -41.5 -132.5 -41.5s-101.333 13.833 -132 41.5
s-48.667 64.167 -54 109.5h121c2.66699 -16.667 9.66699 -30.334 21 -41.001z" />
    <glyph glyph-name="ebreve" unicode="&#x115;" horiz-adv-x="510" 
d="M196.5 126.5c15.667 -13.667 38.166 -20.499 67.499 -20.499c62 0 117.333 2 166 6l28 3l2 -99c-76.667 -18.667 -146 -28 -208 -28c-75.333 0 -130 20 -164 60s-51 105 -51 195c0 179.333 73.667 269 221 269c145.333 0 218 -75.333 218 -226l-10 -93h-294
c0.666992 -30.667 8.83398 -52.834 24.501 -66.501zM343.999 295.001c0 40 -6.33203 67.833 -18.999 83.5s-34.834 23.5 -66.501 23.5s-54 -8.16699 -67 -24.5s-19.833 -43.833 -20.5 -82.5h173zM258 664.001c37.333 0 58.3291 22.001 62.9961 66.001h101
c-5.33301 -43.333 -22.166 -80.333 -50.499 -111s-66.166 -46 -113.499 -46s-85.166 15.333 -113.499 46s-45.166 67.667 -50.499 111h101c2.66699 -20.667 9.5 -36.834 20.5 -48.501s25.167 -17.5 42.5 -17.5z" />
    <glyph glyph-name="Edotaccent" unicode="&#x116;" horiz-adv-x="554" 
d="M74 0v680h440v-120h-302v-159h242v-118h-242v-163h302v-120h-440zM233 767v135h134v-135h-134z" />
    <glyph glyph-name="edotaccent" unicode="&#x117;" horiz-adv-x="510" 
d="M196.5 126.5c15.667 -13.667 38.166 -20.499 67.499 -20.499c62 0 117.333 2 166 6l28 3l2 -99c-76.667 -18.667 -146 -28 -208 -28c-75.333 0 -130 20 -164 60s-51 105 -51 195c0 179.333 73.667 269 221 269c145.333 0 218 -75.333 218 -226l-10 -93h-294
c0.666992 -30.667 8.83398 -52.834 24.501 -66.501zM343.999 295.001c0 40 -6.33203 67.833 -18.999 83.5s-34.834 23.5 -66.501 23.5s-54 -8.16699 -67 -24.5s-19.833 -43.833 -20.5 -82.5h173zM190 556.001v135h134v-135h-134z" />
    <glyph glyph-name="Eogonek" unicode="&#x118;" horiz-adv-x="554" 
d="M74 0l-0.00195312 680h440v-120h-302v-159h242v-118h-242v-163h302v-120h-28c-37.333 -31.333 -56 -58.166 -56 -80.499s10.667 -33.5 32 -33.5l42 4l12 -95c-39.333 -7.33301 -74.166 -11 -104.499 -11s-55.666 8.66699 -75.999 26s-30.5 40.666 -30.5 69.999
c0 45.333 22 85.333 66 120h-297z" />
    <glyph glyph-name="eogonek" unicode="&#x119;" horiz-adv-x="511" 
d="M407 1c-38.667 -31.333 -58.0029 -58.3291 -58.0029 -80.9961s10.667 -34 32 -34l42 4l12 -95c-39.333 -7.33301 -74.166 -11 -104.499 -11s-55.666 8.66699 -75.999 26s-30.5 40.666 -30.5 69.999c0 39.333 17.333 75.666 52 108.999
c-5.33301 -0.666992 -13.333 -1 -24 -1c-75.333 0 -130 20 -164 60s-51 105 -51 195c0 179.333 73.667 269 221 269c145.333 0 218 -75.333 218 -226l-10 -93h-294c0.666992 -30.667 8.83398 -52.834 24.501 -66.501s38.167 -20.5 67.5 -20.5c62 0 117.333 2 166 6l28 3
l2 -99c-20 -4.66699 -42.333 -9.33398 -67 -14.001zM343.997 295.004c0 40 -6.33203 67.833 -18.999 83.5s-34.834 23.5 -66.501 23.5s-54 -8.16699 -67 -24.5s-19.833 -43.833 -20.5 -82.5h173z" />
    <glyph glyph-name="Ecaron" unicode="&#x11a;" horiz-adv-x="554" 
d="M74 0v680h440v-120h-302v-159h242v-118h-242v-163h302v-120h-440zM221 765l-134 149h142l52 -56l49 56h142l-134 -149h-117z" />
    <glyph glyph-name="ecaron" unicode="&#x11b;" horiz-adv-x="510" 
d="M196.5 126.5c15.667 -13.667 38.166 -20.499 67.499 -20.499c62 0 117.333 2 166 6l28 3l2 -99c-76.667 -18.667 -146 -28 -208 -28c-75.333 0 -130 20 -164 60s-51 105 -51 195c0 179.333 73.667 269 221 269c145.333 0 218 -75.333 218 -226l-10 -93h-294
c0.666992 -30.667 8.83398 -52.834 24.501 -66.501zM343.999 295.001c0 40 -6.33203 67.833 -18.999 83.5s-34.834 23.5 -66.501 23.5s-54 -8.16699 -67 -24.5s-19.833 -43.833 -20.5 -82.5h173zM211 580.001l-126 151h123l46 -67l46 67h123l-128 -151h-84z" />
    <glyph glyph-name="Gcircumflex" unicode="&#x11c;" horiz-adv-x="611" 
d="M357 244l0.000976562 119.998h198v-353c-95.333 -15.333 -172.666 -23 -231.999 -23c-106 0 -178.833 28.333 -218.5 85s-59.5 146.667 -59.5 270s20.667 212.333 62 267s111.666 82 210.999 82c62 0 129 -7 201 -21l36 -7l-4 -107c-80 8.66699 -145.5 13 -196.5 13
s-86.833 -6 -107.5 -18s-35.834 -34.167 -45.501 -66.5s-14.5 -87.666 -14.5 -165.999s9.66699 -133.166 29 -164.499s59.333 -47 120 -47l83 4v132h-62zM136.001 764.998l134 149h117l134 -149h-142l-49 56l-52 -56h-142z" />
    <glyph glyph-name="gcircumflex" unicode="&#x11d;" horiz-adv-x="534" 
d="M449 -189c-44 -27.333 -103.499 -41 -178.499 -41s-132.667 10 -173 30s-60.5 56.333 -60.5 109c0 42 24 81.667 72 119c-24.667 16.667 -37 42 -37 76c0 13.333 10 35.333 30 66l9 14c-45.333 32.667 -68 80.834 -68 144.501s19.167 109.834 57.5 138.501
s89.166 43 152.499 43c28.667 0 57 -3.33301 85 -10l16 -3l161 5v-107l-75 6c14.667 -22.667 22 -45.334 22 -68.001c0 -66.667 -17 -112.667 -51 -138s-87.333 -38 -160 -38c-15.333 0 -29 1.33301 -41 4c-6.66699 -17.333 -10 -31.5 -10 -42.5s5.66699 -18.5 17 -22.5
s38 -6.33301 80 -7c84 -0.666992 141.333 -11.834 172 -33.501s46 -61 46 -118s-22 -99.167 -66 -126.5zM169.001 -77c0 -28.667 35.167 -43 105.5 -43s105.5 16.667 105.5 50c0 18 -6 29.5 -18 34.5s-37.333 7.83301 -76 8.5l-90 7c-18 -18 -27 -37 -27 -57zM253.501 259
c51 0 76.5 24.5 76.5 73.5s-25.5 73.5 -76.5 73.5s-76.5 -24.5 -76.5 -73.5s25.5 -73.5 76.5 -73.5zM103.001 580l126 151h84l128 -151h-123l-46 67l-46 -67h-123z" />
    <glyph glyph-name="Gbreve" unicode="&#x11e;" horiz-adv-x="611" 
d="M357 244l0.000976562 119.998h198v-353c-95.333 -15.333 -172.666 -23 -231.999 -23c-106 0 -178.833 28.333 -218.5 85s-59.5 146.667 -59.5 270s20.667 212.333 62 267s111.666 82 210.999 82c62 0 129 -7 201 -21l36 -7l-4 -107c-80 8.66699 -145.5 13 -196.5 13
s-86.833 -6 -107.5 -18s-35.834 -34.167 -45.501 -66.5s-14.5 -87.666 -14.5 -165.999s9.66699 -133.166 29 -164.499s59.333 -47 120 -47l83 4v132h-62zM278.001 868.998c11.333 -10.667 26.167 -16 44.5 -16s33.333 5.33301 45 16s18.5 24.334 20.5 41.001h121
c-5.33301 -45.333 -23.5 -81.833 -54.5 -109.5s-75.167 -41.5 -132.5 -41.5s-101.333 13.833 -132 41.5s-48.667 64.167 -54 109.5h121c2.66699 -16.667 9.66699 -30.334 21 -41.001z" />
    <glyph glyph-name="gbreve" unicode="&#x11f;" horiz-adv-x="534" 
d="M449 -189c-44 -27.333 -103.499 -41 -178.499 -41s-132.667 10 -173 30s-60.5 56.333 -60.5 109c0 42 24 81.667 72 119c-24.667 16.667 -37 42 -37 76c0 13.333 10 35.333 30 66l9 14c-45.333 32.667 -68 80.834 -68 144.501s19.167 109.834 57.5 138.501
s89.166 43 152.499 43c28.667 0 57 -3.33301 85 -10l16 -3l161 5v-107l-75 6c14.667 -22.667 22 -45.334 22 -68.001c0 -66.667 -17 -112.667 -51 -138s-87.333 -38 -160 -38c-15.333 0 -29 1.33301 -41 4c-6.66699 -17.333 -10 -31.5 -10 -42.5s5.66699 -18.5 17 -22.5
s38 -6.33301 80 -7c84 -0.666992 141.333 -11.834 172 -33.501s46 -61 46 -118s-22 -99.167 -66 -126.5zM169.001 -77c0 -28.667 35.167 -43 105.5 -43s105.5 16.667 105.5 50c0 18 -6 29.5 -18 34.5s-37.333 7.83301 -76 8.5l-90 7c-18 -18 -27 -37 -27 -57zM253.501 259
c51 0 76.5 24.5 76.5 73.5s-25.5 73.5 -76.5 73.5s-76.5 -24.5 -76.5 -73.5s25.5 -73.5 76.5 -73.5zM271.001 664c37.333 0 58.3291 22.001 62.9961 66.001h101c-5.33301 -43.333 -22.166 -80.333 -50.499 -111s-66.166 -46 -113.499 -46s-85.166 15.333 -113.499 46
s-45.166 67.667 -50.499 111h101c2.66699 -20.667 9.5 -36.834 20.5 -48.501s25.167 -17.5 42.5 -17.5z" />
    <glyph glyph-name="Gdotaccent" unicode="&#x120;" horiz-adv-x="611" 
d="M357 244l0.000976562 119.998h198v-353c-95.333 -15.333 -172.666 -23 -231.999 -23c-106 0 -178.833 28.333 -218.5 85s-59.5 146.667 -59.5 270s20.667 212.333 62 267s111.666 82 210.999 82c62 0 129 -7 201 -21l36 -7l-4 -107c-80 8.66699 -145.5 13 -196.5 13
s-86.833 -6 -107.5 -18s-35.834 -34.167 -45.501 -66.5s-14.5 -87.666 -14.5 -165.999s9.66699 -133.166 29 -164.499s59.333 -47 120 -47l83 4v132h-62zM245.001 766.998v135h134v-135h-134z" />
    <glyph glyph-name="gdotaccent" unicode="&#x121;" horiz-adv-x="534" 
d="M449 -189c-44 -27.333 -103.499 -41 -178.499 -41s-132.667 10 -173 30s-60.5 56.333 -60.5 109c0 42 24 81.667 72 119c-24.667 16.667 -37 42 -37 76c0 13.333 10 35.333 30 66l9 14c-45.333 32.667 -68 80.834 -68 144.501s19.167 109.834 57.5 138.501
s89.166 43 152.499 43c28.667 0 57 -3.33301 85 -10l16 -3l161 5v-107l-75 6c14.667 -22.667 22 -45.334 22 -68.001c0 -66.667 -17 -112.667 -51 -138s-87.333 -38 -160 -38c-15.333 0 -29 1.33301 -41 4c-6.66699 -17.333 -10 -31.5 -10 -42.5s5.66699 -18.5 17 -22.5
s38 -6.33301 80 -7c84 -0.666992 141.333 -11.834 172 -33.501s46 -61 46 -118s-22 -99.167 -66 -126.5zM169.001 -77c0 -28.667 35.167 -43 105.5 -43s105.5 16.667 105.5 50c0 18 -6 29.5 -18 34.5s-37.333 7.83301 -76 8.5l-90 7c-18 -18 -27 -37 -27 -57zM253.501 259
c51 0 76.5 24.5 76.5 73.5s-25.5 73.5 -76.5 73.5s-76.5 -24.5 -76.5 -73.5s25.5 -73.5 76.5 -73.5zM203.001 556v135h134v-135h-134z" />
    <glyph glyph-name="Gcommaaccent" unicode="&#x122;" horiz-adv-x="611" 
d="M357 244l0.000976562 119.998h198v-353c-95.333 -15.333 -172.666 -23 -231.999 -23c-106 0 -178.833 28.333 -218.5 85s-59.5 146.667 -59.5 270s20.667 212.333 62 267s111.666 82 210.999 82c62 0 129 -7 201 -21l36 -7l-4 -107c-80 8.66699 -145.5 13 -196.5 13
s-86.833 -6 -107.5 -18s-35.834 -34.167 -45.501 -66.5s-14.5 -87.666 -14.5 -165.999s9.66699 -133.166 29 -164.499s59.333 -47 120 -47l83 4v132h-62zM266.001 -77.002h130l-55 -234h-121z" />
    <glyph glyph-name="gcommaaccent" unicode="&#x123;" horiz-adv-x="534" 
d="M346 817l-46 -234h-130l55 234h121zM449 -189c-44 -27.333 -103.499 -41 -178.499 -41s-132.667 10 -173 30s-60.5 56.333 -60.5 109c0 42 24 81.667 72 119c-24.667 16.667 -37 42 -37 76c0 13.333 10 35.333 30 66l9 14c-45.333 32.667 -68 80.834 -68 144.501
s19.167 109.834 57.5 138.501s89.166 43 152.499 43c28.667 0 57 -3.33301 85 -10l16 -3l161 5v-107l-75 6c14.667 -22.667 22 -45.334 22 -68.001c0 -66.667 -17 -112.667 -51 -138s-87.333 -38 -160 -38c-15.333 0 -29 1.33301 -41 4
c-6.66699 -17.333 -10 -31.5 -10 -42.5s5.66699 -18.5 17 -22.5s38 -6.33301 80 -7c84 -0.666992 141.333 -11.834 172 -33.501s46 -61 46 -118s-22 -99.167 -66 -126.5zM169.001 -77c0 -28.667 35.167 -43 105.5 -43s105.5 16.667 105.5 50c0 18 -6 29.5 -18 34.5
s-37.333 7.83301 -76 8.5l-90 7c-18 -18 -27 -37 -27 -57zM253.501 259c51 0 76.5 24.5 76.5 73.5s-25.5 73.5 -76.5 73.5s-76.5 -24.5 -76.5 -73.5s25.5 -73.5 76.5 -73.5z" />
    <glyph glyph-name="Hcircumflex" unicode="&#x124;" horiz-adv-x="677" 
d="M465 0v282h-253v-282h-138v680h138v-278h253v278h138v-680h-138zM146 765l134 149h117l134 -149h-142l-49 56l-52 -56h-142z" />
    <glyph glyph-name="hcircumflex" unicode="&#x125;" horiz-adv-x="553" 
d="M196 0h-134v700h134v-224c46 24 87.333 36 124 36c66.667 0 112.667 -19.667 138 -59s38 -100 38 -182v-271h-134v268c0 42 -5 73.167 -15 93.5s-30 30.5 -60 30.5c-26 0 -52 -4 -78 -12l-13 -4v-376zM107 750l126 151h84l128 -151h-123l-46 67l-46 -67h-123z" />
    <glyph glyph-name="Hbar" unicode="&#x126;" horiz-adv-x="685" 
d="M19 486v116h59v78h138v-78h253v78h138v-78h66v-116h-66v-486h-138v282h-253v-282h-138v486h-59zM216 402h253v84h-253v-84z" />
    <glyph glyph-name="hbar" unicode="&#x127;" horiz-adv-x="553" 
d="M12 532v116h50v52h134v-52h143v-116h-143v-56c46 24 87.333 36 124 36c66.667 0 112.667 -19.667 138 -59s38 -100 38 -182v-271h-134v268c0 42 -5 73.167 -15 93.5s-30 30.5 -60 30.5c-26 0 -52 -4 -78 -12l-13 -4v-376h-134v532h-50z" />
    <glyph glyph-name="Itilde" unicode="&#x128;" horiz-adv-x="286" 
d="M74 0v680h138v-680h-138zM225 758c-17.333 0 -47.168 7.66699 -89.501 23s-67.833 23 -76.5 23c-16.667 0 -39 -10.667 -67 -32l-14 -10l-29 96c13.333 16 30.5 30.667 51.5 44s41.333 20 61 20s49.834 -7.66699 90.501 -23s64.667 -23 72 -23
c15.333 0 37.333 10.667 66 32l15 10l29 -97c-14 -16 -31.333 -30.5 -52 -43.5s-39.667 -19.5 -57 -19.5z" />
    <glyph glyph-name="itilde" unicode="&#x129;" horiz-adv-x="258" 
d="M62 500h134v-500h-134v500zM248 602c-18.667 -11.333 -35.4971 -16.999 -50.4971 -16.999s-37.833 6 -68.5 18s-50.334 18 -59.001 18c-19.333 0 -41.333 -7.66699 -66 -23l-13 -8l-29 75c13.333 15.333 30.166 29.166 50.499 41.499s38 18.5 53 18.5s38 -6 69 -18
s50.5 -18 58.5 -18c16 0 38 8.33301 66 25l14 9l29 -76c-4 -4.66699 -9.33301 -10.5 -16 -17.5s-19.334 -16.167 -38.001 -27.5z" />
    <glyph glyph-name="Imacron" unicode="&#x12a;" horiz-adv-x="286" 
d="M74 0v680h138v-680h-138zM-27 782v98h347v-98h-347z" />
    <glyph glyph-name="imacron" unicode="&#x12b;" horiz-adv-x="258" 
d="M62 500h134v-500h-134v500zM-14 597v100h287v-100h-287z" />
    <glyph glyph-name="Ibreve" unicode="&#x12c;" horiz-adv-x="286" 
d="M74 0v680h138v-680h-138zM116 869c11.333 -10.667 26.167 -16 44.5 -16s33.333 5.33301 45 16s18.5 24.334 20.5 41.001h121c-5.33301 -45.333 -23.5 -81.833 -54.5 -109.5s-75.167 -41.5 -132.5 -41.5s-101.333 13.833 -132 41.5s-48.667 64.167 -54 109.5h121
c2.66699 -16.667 9.66699 -30.334 21 -41.001z" />
    <glyph glyph-name="ibreve" unicode="&#x12d;" horiz-adv-x="258" 
d="M62 500h134v-500h-134v500zM129 664c37.333 0 58.3291 22.001 62.9961 66.001h101c-5.33301 -43.333 -22.166 -80.333 -50.499 -111s-66.166 -46 -113.499 -46s-85.166 15.333 -113.499 46s-45.166 67.667 -50.499 111h101c2.66699 -20.667 9.5 -36.834 20.5 -48.501
s25.167 -17.5 42.5 -17.5z" />
    <glyph glyph-name="Iogonek" unicode="&#x12e;" horiz-adv-x="286" 
d="M74 0l-0.00195312 680.002h138v-680c-16 -10 -31.167 -23.333 -45.5 -40s-21.5 -30.334 -21.5 -41.001c0 -22 10.667 -33 32 -33l42 4l12 -95c-39.333 -7.33301 -74.166 -11 -104.499 -11s-55.666 8.66699 -75.999 26s-30.5 40.666 -30.5 69.999c0 44 22.667 84 68 120
h-14z" />
    <glyph glyph-name="iogonek" unicode="&#x12f;" horiz-adv-x="258" 
d="M62 0l-0.00195312 500.002h134v-500c-16 -10 -31.167 -23.333 -45.5 -40s-21.5 -30.334 -21.5 -41.001c0 -22 10.667 -33 32 -33l42 4l12 -95c-39.333 -7.33301 -74.166 -11 -104.499 -11s-55.666 8.66699 -75.999 26s-30.5 40.666 -30.5 69.999
c0 44.667 23.333 84.667 70 120h-12zM61.998 564.002v136h134v-136h-134z" />
    <glyph glyph-name="Idotaccent" unicode="&#x130;" horiz-adv-x="286" 
d="M74 0v680h138v-680h-138zM76 767v135h134v-135h-134z" />
    <glyph glyph-name="dotlessi" unicode="&#x131;" horiz-adv-x="258" 
d="M62 0v500h134v-500h-134z" />
    <glyph glyph-name="Jcircumflex" unicode="&#x134;" horiz-adv-x="302" 
d="M19 -70v120c26.667 0 46 5 58 15s18 28.667 18 56v559h137l1 -565c0 -72.667 -16.167 -121.667 -48.5 -147s-87.5 -38 -165.5 -38zM-29 765l134 149h117l134 -149h-142l-49 56l-52 -56h-142z" />
    <glyph glyph-name="jcircumflex" unicode="&#x135;" horiz-adv-x="259" 
d="M63 24v476h134v-477c0 -68 -11.833 -118.167 -35.5 -150.5s-71.167 -66.5 -142.5 -102.5l-53 99c30 20 51 35.667 63 47s20.667 24.833 26 40.5s8 38.167 8 67.5zM-37 580l126 151h84l128 -151h-123l-46 67l-46 -67h-123z" />
    <glyph glyph-name="Kcommaaccent" unicode="&#x136;" horiz-adv-x="591" 
d="M212 0h-138v690h138v-296l90 10l112 286h159l-148 -343l152 -347h-159l-114 271l-92 -10v-261zM245 -77h130l-55 -234h-121z" />
    <glyph glyph-name="kcommaaccent" unicode="&#x137;" horiz-adv-x="515" 
d="M-10 -311l46 234h130l-55 -234h-121zM196 0h-134v700h134v-398l51 9l99 189h150l-130 -237l137 -263h-151l-101 195l-55 -9v-186z" />
    <glyph glyph-name="Lacute" unicode="&#x139;" horiz-adv-x="473" 
d="M461 0h-387v690h138v-557h249v-133zM110 839l252 106l41 -120l-260 -79z" />
    <glyph glyph-name="lacute" unicode="&#x13a;" horiz-adv-x="270" 
d="M68 0v700h134v-700h-134zM41 861l252 102l40 -115l-262 -74z" />
    <glyph glyph-name="Lcommaaccent" unicode="&#x13b;" horiz-adv-x="472" 
d="M204 -77h130l-55 -234h-121zM461 0h-387v680h138v-558h249v-122z" />
    <glyph glyph-name="lcommaaccent" unicode="&#x13c;" horiz-adv-x="270" 
d="M68 0v700h134v-700h-134zM66 -77h130l-55 -234h-121z" />
    <glyph glyph-name="Lcaron" unicode="&#x13d;" horiz-adv-x="498" 
d="M461 690v-260h-130v260h130zM461 0h-387v680h138v-558h249v-122z" />
    <glyph glyph-name="lcaron" unicode="&#x13e;" horiz-adv-x="377" 
d="M303 678h130l-55 -234h-121zM68 0v700h134v-700h-134z" />
    <glyph glyph-name="Lslash" unicode="&#x141;" horiz-adv-x="481" 
d="M470 0h-387v217l-42 -29l-65 90l107 75v327h138v-231l99 70l65 -90l-164 -115v-192h249v-122z" />
    <glyph glyph-name="lslash" unicode="&#x142;" horiz-adv-x="381" 
d="M119 0v218l-51 -35l-65 90l116 81v346h134v-252l63 44l65 -90l-128 -90v-312h-134z" />
    <glyph glyph-name="Nacute" unicode="&#x143;" horiz-adv-x="693" 
d="M74 0v680h233l164 -560h10v560h138v-680h-227l-170 560h-10v-560h-138zM202 839l252 106l41 -120l-260 -79z" />
    <glyph glyph-name="nacute" unicode="&#x144;" horiz-adv-x="553" 
d="M62 0v499.999h133v-28l19 10c12 6.66699 28.5 13.334 49.5 20.001s39.833 10 56.5 10c66.667 0 112.667 -19.667 138 -59s38 -100 38 -182v-271h-134v267c0 42.667 -5 74.167 -15 94.5s-30.333 30.5 -61 30.5s-60.667 -6 -90 -18v-374h-134zM146 650.999l252 102l40 -115
l-262 -74z" />
    <glyph glyph-name="Ncommaaccent" unicode="&#x145;" horiz-adv-x="693" 
d="M299 -77h130l-55 -234h-121zM74 0v680h233l164 -560h10v560h138v-680h-227l-170 560h-10v-560h-138z" />
    <glyph glyph-name="ncommaaccent" unicode="&#x146;" horiz-adv-x="553" 
d="M-10 -311l46 234h130l-55 -234h-121zM196 0h-134.001v500h133v-28c45.333 26.667 87 40 125 40c66.667 0 112.667 -19.667 138 -59s38 -100 38 -182v-271h-134v267c0 42.667 -5 74.167 -15 94.5s-30 30.5 -60 30.5c-27.333 0 -53.666 -4.66699 -78.999 -14l-12 -4v-374z
" />
    <glyph glyph-name="Ncaron" unicode="&#x147;" horiz-adv-x="693" 
d="M74 0v680h233l164 -560h10v560h138v-680h-227l-170 560h-10v-560h-138zM289 765l-134 149h142l52 -56l49 56h142l-134 -149h-117z" />
    <glyph glyph-name="ncaron" unicode="&#x148;" horiz-adv-x="553" 
d="M196 0h-134.001v500h133v-28c45.333 26.667 87 40 125 40c66.667 0 112.667 -19.667 138 -59s38 -100 38 -182v-271h-134v267c0 42.667 -5 74.167 -15 94.5s-30 30.5 -60 30.5c-27.333 0 -53.666 -4.66699 -78.999 -14l-12 -4v-374zM230.999 580l-126 151h123l46 -67
l46 67h123l-128 -151h-84z" />
    <glyph glyph-name="Eng" unicode="&#x14a;" horiz-adv-x="693" 
d="M74 0v680h233l164 -560h10v560h138v-707c0 -72.667 -16.167 -121.667 -48.5 -147s-87.5 -38 -165.5 -38v120c26.667 0 46 5 58 15s18 28.667 18 56v21h-89l-170 560h-10v-560h-138z" />
    <glyph glyph-name="eng" unicode="&#x14b;" horiz-adv-x="552" 
d="M195 0h-134v499h134v-22c54.667 23.333 97.667 35 129 35c62 0 106.167 -21.5 132.5 -64.5s39.5 -105.167 39.5 -186.5v-256c0 -70 -11.167 -121 -33.5 -153s-70.5 -65.333 -144.5 -100l-60 111c46 25.333 74.833 45.5 86.5 60.5s17.5 40.5 17.5 76.5v261
c0 85.333 -22 128 -66 128c-19.333 0 -47 -4.33301 -83 -13l-18 -5v-371z" />
    <glyph glyph-name="Omacron" unicode="&#x14c;" horiz-adv-x="652" 
d="M326 108c54 0 90.833 17.5 110.5 52.5s29.5 93.667 29.5 176s-10 142.166 -30 179.499s-56.667 56 -110 56s-90 -18.667 -110 -56s-30 -97.166 -30 -179.499s9.83301 -141 29.5 -176s56.5 -52.5 110.5 -52.5zM326 -12c-103.333 0 -176.166 28.167 -218.499 84.5
s-63.5 144.5 -63.5 264.5s21.167 209.167 63.5 267.5s115.166 87.5 218.499 87.5s176.166 -29.167 218.499 -87.5s63.5 -147.5 63.5 -267.5s-21.167 -208.167 -63.5 -264.5s-115.166 -84.5 -218.499 -84.5zM149 782v98h347v-98h-347z" />
    <glyph glyph-name="omacron" unicode="&#x14d;" horiz-adv-x="532" 
d="M266 512c82.667 0 141.667 -22.833 177 -68.5s53 -109.834 53 -192.501c0 -175.333 -76.667 -263 -230 -263s-230 87.667 -230 263c0 82.667 17.667 146.834 53 192.501s94.333 68.5 177 68.5zM266 102c35.333 0 59.833 12 73.5 36s20.5 61.667 20.5 113
s-6.83301 88.666 -20.5 111.999s-38.167 35 -73.5 35s-59.833 -11.667 -73.5 -35s-20.5 -60.666 -20.5 -111.999s6.83301 -89 20.5 -113s38.167 -36 73.5 -36zM126 597v100h287v-100h-287z" />
    <glyph glyph-name="Obreve" unicode="&#x14e;" horiz-adv-x="652" 
d="M326 108c54 0 90.833 17.5 110.5 52.5s29.5 93.667 29.5 176s-10 142.166 -30 179.499s-56.667 56 -110 56s-90 -18.667 -110 -56s-30 -97.166 -30 -179.499s9.83301 -141 29.5 -176s56.5 -52.5 110.5 -52.5zM326 -12c-103.333 0 -176.166 28.167 -218.499 84.5
s-63.5 144.5 -63.5 264.5s21.167 209.167 63.5 267.5s115.166 87.5 218.499 87.5s176.166 -29.167 218.499 -87.5s63.5 -147.5 63.5 -267.5s-21.167 -208.167 -63.5 -264.5s-115.166 -84.5 -218.499 -84.5zM283 869c11.333 -10.667 26.167 -16 44.5 -16
s33.333 5.33301 45 16s18.5 24.334 20.5 41.001h121c-5.33301 -45.333 -23.5 -81.833 -54.5 -109.5s-75.167 -41.5 -132.5 -41.5s-101.333 13.833 -132 41.5s-48.667 64.167 -54 109.5h121c2.66699 -16.667 9.66699 -30.334 21 -41.001z" />
    <glyph glyph-name="obreve" unicode="&#x14f;" horiz-adv-x="532" 
d="M266 512c82.667 0 141.667 -22.833 177 -68.5s53 -109.834 53 -192.501c0 -175.333 -76.667 -263 -230 -263s-230 87.667 -230 263c0 82.667 17.667 146.834 53 192.501s94.333 68.5 177 68.5zM266 102c35.333 0 59.833 12 73.5 36s20.5 61.667 20.5 113
s-6.83301 88.666 -20.5 111.999s-38.167 35 -73.5 35s-59.833 -11.667 -73.5 -35s-20.5 -60.666 -20.5 -111.999s6.83301 -89 20.5 -113s38.167 -36 73.5 -36zM268 664c37.333 0 58.3291 22.001 62.9961 66.001h101c-5.33301 -43.333 -22.166 -80.333 -50.499 -111
s-66.166 -46 -113.499 -46s-85.166 15.333 -113.499 46s-45.166 67.667 -50.499 111h101c2.66699 -20.667 9.5 -36.834 20.5 -48.501s25.167 -17.5 42.5 -17.5z" />
    <glyph glyph-name="Ohungarumlaut" unicode="&#x150;" horiz-adv-x="652" 
d="M326 108c54 0 90.833 17.5 110.5 52.5s29.5 93.667 29.5 176s-10 142.166 -30 179.499s-56.667 56 -110 56s-90 -18.667 -110 -56s-30 -97.166 -30 -179.499s9.83301 -141 29.5 -176s56.5 -52.5 110.5 -52.5zM326 -12c-103.333 0 -176.166 28.167 -218.499 84.5
s-63.5 144.5 -63.5 264.5s21.167 209.167 63.5 267.5s115.166 87.5 218.499 87.5s176.166 -29.167 218.499 -87.5s63.5 -147.5 63.5 -267.5s-21.167 -208.167 -63.5 -264.5s-115.166 -84.5 -218.499 -84.5zM366 775l67 197l116 -42l-78 -191zM158 776l67 197l116 -42
l-78 -191z" />
    <glyph glyph-name="ohungarumlaut" unicode="&#x151;" horiz-adv-x="532" 
d="M266 512c82.667 0 141.667 -22.833 177 -68.5s53 -109.834 53 -192.501c0 -175.333 -76.667 -263 -230 -263s-230 87.667 -230 263c0 82.667 17.667 146.834 53 192.501s94.333 68.5 177 68.5zM266 102c35.333 0 59.833 12 73.5 36s20.5 61.667 20.5 113
s-6.83301 88.666 -20.5 111.999s-38.167 35 -73.5 35s-59.833 -11.667 -73.5 -35s-20.5 -60.666 -20.5 -111.999s6.83301 -89 20.5 -113s38.167 -36 73.5 -36zM257 628l117 190l109 -67l-125 -188zM53 628l117 189l109 -66l-125 -188z" />
    <glyph glyph-name="OE" unicode="&#x152;" horiz-adv-x="902" 
d="M861 0l-435.999 -0.00195312c-50.667 -8 -90.334 -12 -119.001 -12c-100.667 0 -169.167 27.833 -205.5 83.5s-54.5 147.834 -54.5 276.501s19.5 219.834 58.5 273.501s106.167 80.5 201.5 80.5c28.667 0 67.667 -4 117 -12h438v-132h-302v-143h242v-131h-242v-152h302
v-132zM330.001 123.998c16.667 0 47.667 2.00098 93 6.00098v430c-46.667 4 -83.667 6 -111 6s-50.5 -5.83301 -69.5 -17.5s-32.833 -33.334 -41.5 -65.001s-13 -84.5 -13 -158.5s9.16699 -126 27.5 -156s56.5 -45 114.5 -45z" />
    <glyph glyph-name="oe" unicode="&#x153;" horiz-adv-x="834" 
d="M519 130c15.333 -12.667 38 -19.001 68 -19.001c45.333 0 100.666 2.33301 165.999 7l28 2l2 -104c-76.667 -18.667 -148.5 -28 -215.5 -28s-115.5 22.667 -145.5 68c-32 -45.333 -86.667 -68 -164 -68s-133.666 23 -168.999 69s-53 110.333 -53 193
s17.667 146.834 53 192.501s94.333 68.5 177 68.5c38.667 0 71 -6.16699 97 -18.5s47.667 -33.166 65 -62.499c17.333 30 38.5 51 63.5 63s54.833 18 89.5 18c145.333 0 218 -75 218 -225l-10 -94h-294c0.666992 -28.667 8.66699 -49.334 24 -62.001zM266 108.999
c35.333 0 59.833 11.333 73.5 34s20.5 58.334 20.5 107.001s-6.83301 84.167 -20.5 106.5s-38.167 33.5 -73.5 33.5s-59.833 -11.167 -73.5 -33.5s-20.5 -57.833 -20.5 -106.5s6.83301 -84.334 20.5 -107.001s38.167 -34 73.5 -34zM494 294.999h172.999
c0 35.333 -6.5 60.333 -19.5 75s-35.167 22 -66.5 22s-53.666 -7.83301 -66.999 -23.5s-20 -40.167 -20 -73.5z" />
    <glyph glyph-name="Racute" unicode="&#x154;" horiz-adv-x="620" 
d="M212 228v-228h-138v680h264c160 0 240 -74.667 240 -224c0 -88.667 -33.333 -154 -100 -196l97 -260h-151l-79 228h-133zM411.5 533c-17 19.333 -41.5 29 -73.5 29h-126v-216h128c32.667 0 57 10 73 30s24 46.333 24 79s-8.5 58.667 -25.5 78zM170 839l252 106l41 -120
l-260 -79z" />
    <glyph glyph-name="racute" unicode="&#x155;" horiz-adv-x="372" 
d="M62 0v500h133v-53c56 33.333 109.333 55 160 65v-135c-54 -11.333 -100.333 -23 -139 -35l-20 -7v-335h-134zM48 651l252 102l40 -115l-262 -74z" />
    <glyph glyph-name="Rcommaaccent" unicode="&#x156;" horiz-adv-x="620" 
d="M211 -311l46 234h130l-55 -234h-121zM212 228v-228h-138v680h264c160 0 240 -74.667 240 -224c0 -88.667 -33.333 -154 -100 -196l97 -260h-151l-79 228h-133zM413 376c16 20 24 46.333 24 79s-8.5 58.667 -25.5 78s-41.5 29 -73.5 29h-126v-216h128
c32.667 0 57 10 73 30z" />
    <glyph glyph-name="rcommaaccent" unicode="&#x157;" horiz-adv-x="372" 
d="M62 -77h130l-55 -234h-121zM62 0v500h133v-53c56 33.333 109.333 55 160 65v-135c-54 -11.333 -100.333 -23 -139 -35l-20 -7v-335h-134z" />
    <glyph glyph-name="Rcaron" unicode="&#x158;" horiz-adv-x="620" 
d="M212 228v-228h-138v680h264c160 0 240 -74.667 240 -224c0 -88.667 -33.333 -154 -100 -196l97 -260h-151l-79 228h-133zM413 376c16 20 24 46.333 24 79s-8.5 58.667 -25.5 78s-41.5 29 -73.5 29h-126v-216h128c32.667 0 57 10 73 30zM241 765l-134 149h142l52 -56
l49 56h142l-134 -149h-117z" />
    <glyph glyph-name="rcaron" unicode="&#x159;" horiz-adv-x="372" 
d="M62 0v500h133v-53c56 33.333 109.333 55 160 65v-135c-54 -11.333 -100.333 -23 -139 -35l-20 -7v-335h-134zM131 580l-126 151h123l46 -67l46 67h123l-128 -151h-84z" />
    <glyph glyph-name="Sacute" unicode="&#x15a;" horiz-adv-x="544" 
d="M283 572c-72.667 0 -108.999 -24.002 -108.999 -72.002c0 -21.333 9 -37.666 27 -48.999s60.167 -27.666 126.5 -48.999s112.833 -45.5 139.5 -72.5s40 -68.5 40 -124.5c0 -71.333 -21.667 -125.333 -65 -162s-100 -55 -170 -55c-52 0 -115.667 8 -191 24l-36 7l14 107
c89.333 -12 157.666 -18 204.999 -18c70.667 0 106 29.333 106 88c0 21.333 -8.16699 38 -24.5 50s-48.833 25 -97.5 39c-77.333 22 -131.833 48.167 -163.5 78.5s-47.5 72.5 -47.5 126.5c0 68 20.667 118.667 62 152s98 50 170 50c49.333 0 112 -6.66699 188 -20l36 -7
l-11 -109c-94 10.667 -160.333 16 -199 16zM144.001 838.998l252 106l41 -120l-260 -79z" />
    <glyph glyph-name="sacute" unicode="&#x15b;" horiz-adv-x="472" 
d="M421 375c-82.667 10.667 -140.501 15.999 -173.501 15.999s-54.333 -3 -64 -9s-14.5 -15.5 -14.5 -28.5s6.5 -22 19.5 -27s46.333 -12.333 100 -22s91.834 -25.5 114.501 -47.5s34 -57.667 34 -107c0 -108 -67 -162 -201 -162c-44 0 -97.333 6 -160 18l-32 6l4 112
c82.667 -10.667 140.167 -16 172.5 -16s54.333 3.16699 66 9.5s17.5 15.833 17.5 28.5s-6.16699 22 -18.5 28s-44.333 13.333 -96 22s-90.167 23.334 -115.5 44.001s-38 57.5 -38 110.5s18 93 54 120s82.333 40.5 139 40.5c39.333 0 93 -6.33301 161 -19l33 -6z
M90.999 650.999l252 102l40 -115l-262 -74z" />
    <glyph glyph-name="Scircumflex" unicode="&#x15c;" horiz-adv-x="544" 
d="M283 572c-72.667 0 -108.999 -24.002 -108.999 -72.002c0 -21.333 9 -37.666 27 -48.999s60.167 -27.666 126.5 -48.999s112.833 -45.5 139.5 -72.5s40 -68.5 40 -124.5c0 -71.333 -21.667 -125.333 -65 -162s-100 -55 -170 -55c-52 0 -115.667 8 -191 24l-36 7l14 107
c89.333 -12 157.666 -18 204.999 -18c70.667 0 106 29.333 106 88c0 21.333 -8.16699 38 -24.5 50s-48.833 25 -97.5 39c-77.333 22 -131.833 48.167 -163.5 78.5s-47.5 72.5 -47.5 126.5c0 68 20.667 118.667 62 152s98 50 170 50c49.333 0 112 -6.66699 188 -20l36 -7
l-11 -109c-94 10.667 -160.333 16 -199 16zM84.001 764.998l134 149h117l134 -149h-142l-49 56l-52 -56h-142z" />
    <glyph glyph-name="scircumflex" unicode="&#x15d;" horiz-adv-x="472" 
d="M421 375c-82.667 10.667 -140.501 15.999 -173.501 15.999s-54.333 -3 -64 -9s-14.5 -15.5 -14.5 -28.5s6.5 -22 19.5 -27s46.333 -12.333 100 -22s91.834 -25.5 114.501 -47.5s34 -57.667 34 -107c0 -108 -67 -162 -201 -162c-44 0 -97.333 6 -160 18l-32 6l4 112
c82.667 -10.667 140.167 -16 172.5 -16s54.333 3.16699 66 9.5s17.5 15.833 17.5 28.5s-6.16699 22 -18.5 28s-44.333 13.333 -96 22s-90.167 23.334 -115.5 44.001s-38 57.5 -38 110.5s18 93 54 120s82.333 40.5 139 40.5c39.333 0 93 -6.33301 161 -19l33 -6z
M67.999 579.999l126 151h84l128 -151h-123l-46 67l-46 -67h-123z" />
    <glyph glyph-name="Scedilla" unicode="&#x15e;" horiz-adv-x="544" 
d="M404.5 -56c19.667 -12 29.498 -36.335 29.498 -73.002s-9.66699 -64.5 -29 -83.5s-46.666 -28.5 -81.999 -28.5c-29.333 0 -55.666 2.66699 -78.999 8l-14 3l4 78c20.667 -0.666992 36.667 -1 48 -1c25.333 0 38 8.66699 38 26c0 14.667 -12.667 22 -38 22h-24v93
c-50.667 1.33301 -110.667 9.33301 -180 24l-33 7l14 107c89.333 -12 157.666 -18 204.999 -18c70.667 0 106 29.333 106 88c0 21.333 -8.16699 38 -24.5 50s-48.833 25 -97.5 39c-77.333 22 -131.833 48.167 -163.5 78.5s-47.5 72.5 -47.5 126.5
c0 68 20.667 118.667 62 152s98 50 170 50c49.333 0 112 -6.66699 188 -20l36 -7l-11 -109c-94 10.667 -160.333 16 -199 16c-72.667 0 -109 -24 -109 -72c0 -21.333 9 -37.666 27 -48.999s60.167 -27.666 126.5 -48.999s112.833 -45.5 139.5 -72.5s40 -70.5 40 -130.5
s-17.833 -108.333 -53.5 -145s-83.167 -58 -142.5 -64v-27c42.667 -0.666992 73.834 -7 93.501 -19z" />
    <glyph glyph-name="scedilla" unicode="&#x15f;" horiz-adv-x="472" 
d="M349.5 -56c19.667 -12 29.498 -36.334 29.498 -73.001s-9.66699 -64.5 -29 -83.5s-46.666 -28.5 -81.999 -28.5c-28.667 0 -55.334 2.66699 -80.001 8l-13 3l4 78c20.667 -0.666992 36.667 -1 48 -1c25.333 0 38 8.66699 38 26c0 14.667 -12.667 22 -38 22h-24v95
c-42 2.66699 -87 8.66699 -135 18l-24 4l4 112c82.667 -10.667 140.167 -16 172.5 -16s54.333 3.16699 66 9.5s17.5 15.833 17.5 28.5s-6.16699 22 -18.5 28s-44.333 13.333 -96 22s-90.167 23.334 -115.5 44.001s-38 57.5 -38 110.5s18 93 54 120s82.333 40.5 139 40.5
c39.333 0 93 -6.33301 161 -19l33 -6l-2 -111c-82.667 10.667 -140.5 16 -173.5 16s-54.333 -3 -64 -9s-14.5 -15.5 -14.5 -28.5s6.5 -22 19.5 -27s46.333 -12.333 100 -22s91.834 -25.5 114.501 -47.5s34 -57.667 34 -107c0 -103.333 -60.333 -157 -181 -161v-26
c42.667 -0.666992 73.834 -7 93.501 -19z" />
    <glyph glyph-name="Scaron" unicode="&#x160;" horiz-adv-x="544" 
d="M283 572c-72.667 0 -108.999 -24.002 -108.999 -72.002c0 -21.333 9 -37.666 27 -48.999s60.167 -27.666 126.5 -48.999s112.833 -45.5 139.5 -72.5s40 -68.5 40 -124.5c0 -71.333 -21.667 -125.333 -65 -162s-100 -55 -170 -55c-52 0 -115.667 8 -191 24l-36 7l14 107
c89.333 -12 157.666 -18 204.999 -18c70.667 0 106 29.333 106 88c0 21.333 -8.16699 38 -24.5 50s-48.833 25 -97.5 39c-77.333 22 -131.833 48.167 -163.5 78.5s-47.5 72.5 -47.5 126.5c0 68 20.667 118.667 62 152s98 50 170 50c49.333 0 112 -6.66699 188 -20l36 -7
l-11 -109c-94 10.667 -160.333 16 -199 16zM235.001 764.998l-134 149h142l52 -56l49 56h142l-134 -149h-117z" />
    <glyph glyph-name="scaron" unicode="&#x161;" horiz-adv-x="472" 
d="M421 375c-82.667 10.667 -140.501 15.999 -173.501 15.999s-54.333 -3 -64 -9s-14.5 -15.5 -14.5 -28.5s6.5 -22 19.5 -27s46.333 -12.333 100 -22s91.834 -25.5 114.501 -47.5s34 -57.667 34 -107c0 -108 -67 -162 -201 -162c-44 0 -97.333 6 -160 18l-32 6l4 112
c82.667 -10.667 140.167 -16 172.5 -16s54.333 3.16699 66 9.5s17.5 15.833 17.5 28.5s-6.16699 22 -18.5 28s-44.333 13.333 -96 22s-90.167 23.334 -115.5 44.001s-38 57.5 -38 110.5s18 93 54 120s82.333 40.5 139 40.5c39.333 0 93 -6.33301 161 -19l33 -6z
M202.999 579.999l-126 151h123l46 -67l46 67h123l-128 -151h-84z" />
    <glyph glyph-name="Tcedilla" unicode="&#x162;" horiz-adv-x="0" 
 />
    <glyph glyph-name="tcedilla" unicode="&#x163;" horiz-adv-x="364" 
d="M254.5 -56c19.667 -12 29.499 -36.333 29.499 -73s-9.66699 -64.5 -29 -83.5s-46.666 -28.5 -81.999 -28.5c-29.333 0 -55.666 2.66699 -78.999 8l-14 3l4 78c20.667 -0.666992 36.667 -1 48 -1c25.333 0 38 8.66699 38 26c0 14.667 -12.667 22 -38 22h-24v106h45
c-26.667 10.667 -45.167 29.667 -55.5 57s-15.5 67.333 -15.5 120v208h-59v114h59v139h134v-139h123v-114h-123v-205c0 -20 0.5 -34.167 1.5 -42.5s4.66699 -15.5 11 -21.5s16.166 -9 29.499 -9l76 2l6 -107c-44.667 -10 -80.834 -15 -108.501 -15s-51.167 3.33301 -70.5 10
v-35c42.667 -0.666992 73.834 -7 93.501 -19z" />
    <glyph glyph-name="Tcaron" unicode="&#x164;" horiz-adv-x="526" 
d="M13 558v122h500v-122h-180v-558h-138v558h-182zM206 765l-134 149h142l52 -56l49 56h142l-134 -149h-117z" />
    <glyph glyph-name="tcaron" unicode="&#x165;" horiz-adv-x="487" 
d="M340 378h-122.999v-189c0 -20 0.5 -34.167 1.5 -42.5s4.66699 -15.5 11 -21.5s16.166 -9 29.499 -9l76 2l6 -115c-44.667 -10 -78.667 -15 -102 -15c-60 0 -101 13.5 -123 40.5s-33 76.833 -33 149.5v200h-59v121h59v140h134v-140h123v-121zM506.001 690v-260h-130v260
h130z" />
    <glyph glyph-name="Tbar" unicode="&#x166;" horiz-adv-x="528" 
d="M14 558v122h500v-122h-180v-189h139v-116h-139v-253h-138v253h-132v116h132v189h-182z" />
    <glyph glyph-name="tbar" unicode="&#x167;" horiz-adv-x="365" 
d="M339 378h-122.999v-69h95v-100h-95v-20c0 -20 0.5 -34.167 1.5 -42.5s4.66699 -15.5 11 -21.5s16.166 -9 29.499 -9l76 2l6 -115c-44.667 -10 -78.667 -15 -102 -15c-60 0 -101 13.5 -123 40.5s-33 76.833 -33 149.5v31h-30v100h30v69h-59v121h59v140h134v-140h123v-121z
" />
    <glyph glyph-name="Utilde" unicode="&#x168;" horiz-adv-x="654" 
d="M206 227c0 -79.333 40.333 -119 121 -119s121 39.667 121 119v453h138v-450c0 -83.333 -21.5 -144.5 -64.5 -183.5s-107.833 -58.5 -194.5 -58.5s-151.5 19.5 -194.5 58.5s-64.5 100.167 -64.5 183.5v450h138v-453zM404 758c-17.333 0 -47.167 7.66699 -89.5 23
s-67.833 23 -76.5 23c-16.667 0 -39 -10.667 -67 -32l-14 -10l-29 96c13.333 16 30.5 30.667 51.5 44s41.333 20 61 20s49.834 -7.66699 90.501 -23s64.667 -23 72 -23c15.333 0 37.666 10.667 66.999 32l14 10l29 -97c-14 -16 -31.333 -30.5 -52 -43.5
s-39.667 -19.5 -57 -19.5z" />
    <glyph glyph-name="utilde" unicode="&#x169;" horiz-adv-x="553" 
d="M491 500l0.000976562 -499.999h-133v28l-20 -10c-12.667 -6.66699 -29.334 -13.334 -50.001 -20.001s-39 -10 -55 -10c-69.333 0 -116 19.167 -140 57.5s-36 102.5 -36 192.5v262h134v-264c0 -49.333 4 -83 12 -101s28 -27 60 -27s63.333 6 94 18v374h134z
M385.001 602.001c-18.667 -11.333 -35.4971 -16.999 -50.4971 -16.999s-37.833 6 -68.5 18s-50.667 18 -60 18c-18.667 0 -40.334 -7.66699 -65.001 -23l-13 -8l-29 75c13.333 15.333 30.166 29.166 50.499 41.499s38 18.5 53 18.5s38 -6 69 -18s50.5 -18 58.5 -18
c16 0 38 8.33301 66 25l14 9l29 -76c-4 -4.66699 -9.33301 -10.5 -16 -17.5s-19.334 -16.167 -38.001 -27.5z" />
    <glyph glyph-name="Umacron" unicode="&#x16a;" horiz-adv-x="654" 
d="M206 227c0 -79.333 40.333 -119 121 -119s121 39.667 121 119v453h138v-450c0 -83.333 -21.5 -144.5 -64.5 -183.5s-107.833 -58.5 -194.5 -58.5s-151.5 19.5 -194.5 58.5s-64.5 100.167 -64.5 183.5v450h138v-453zM157 782v98h347v-98h-347z" />
    <glyph glyph-name="umacron" unicode="&#x16b;" horiz-adv-x="553" 
d="M491 500l0.000976562 -499.999h-133v28l-20 -10c-12.667 -6.66699 -29.334 -13.334 -50.001 -20.001s-39 -10 -55 -10c-69.333 0 -116 19.167 -140 57.5s-36 102.5 -36 192.5v262h134v-264c0 -49.333 4 -83 12 -101s28 -27 60 -27s63.333 6 94 18v374h134z
M133.001 597.001v100h287v-100h-287z" />
    <glyph glyph-name="Ubreve" unicode="&#x16c;" horiz-adv-x="654" 
d="M206 227c0 -79.333 40.333 -119 121 -119s121 39.667 121 119v453h138v-450c0 -83.333 -21.5 -144.5 -64.5 -183.5s-107.833 -58.5 -194.5 -58.5s-151.5 19.5 -194.5 58.5s-64.5 100.167 -64.5 183.5v450h138v-453zM287 869c11.333 -10.667 26.167 -16 44.5 -16
s33.333 5.33301 45 16s18.5 24.334 20.5 41.001h121c-5.33301 -45.333 -23.5 -81.833 -54.5 -109.5s-75.167 -41.5 -132.5 -41.5s-101.333 13.833 -132 41.5s-48.667 64.167 -54 109.5h121c2.66699 -16.667 9.66699 -30.334 21 -41.001z" />
    <glyph glyph-name="ubreve" unicode="&#x16d;" horiz-adv-x="553" 
d="M491 500l0.000976562 -499.999h-133v28l-20 -10c-12.667 -6.66699 -29.334 -13.334 -50.001 -20.001s-39 -10 -55 -10c-69.333 0 -116 19.167 -140 57.5s-36 102.5 -36 192.5v262h134v-264c0 -49.333 4 -83 12 -101s28 -27 60 -27s63.333 6 94 18v374h134z
M276.001 664.001c37.333 0 58.3291 22.001 62.9961 66.001h101c-5.33301 -43.333 -22.166 -80.333 -50.499 -111s-66.166 -46 -113.499 -46s-85.166 15.333 -113.499 46s-45.166 67.667 -50.499 111h101c2.66699 -20.667 9.5 -36.834 20.5 -48.501s25.167 -17.5 42.5 -17.5z
" />
    <glyph glyph-name="Uring" unicode="&#x16e;" horiz-adv-x="654" 
d="M206 227c0 -79.333 40.333 -119 121 -119s121 39.667 121 119v453h138v-450c0 -83.333 -21.5 -144.5 -64.5 -183.5s-107.833 -58.5 -194.5 -58.5s-151.5 19.5 -194.5 58.5s-64.5 100.167 -64.5 183.5v450h138v-453zM481 839c0 -39.333 -14.333 -70.166 -43 -92.499
s-64.334 -33.5 -107.001 -33.5s-78.334 11.167 -107.001 33.5s-43 53.166 -43 92.499s14.333 70.166 43 92.499s64.334 33.5 107.001 33.5s78.334 -11.167 107.001 -33.5s43 -53.166 43 -92.499zM272 839c0 -12.667 5.33301 -22.667 16 -30s25 -11 43 -11
s32.333 3.66699 43 11s16 17.333 16 30s-5.33301 22.667 -16 30s-25 11 -43 11s-32.333 -3.66699 -43 -11s-16 -17.333 -16 -30z" />
    <glyph glyph-name="uring" unicode="&#x16f;" horiz-adv-x="553" 
d="M491 500l0.000976562 -499.999h-133v28l-20 -10c-12.667 -6.66699 -29.334 -13.334 -50.001 -20.001s-39 -10 -55 -10c-69.333 0 -116 19.167 -140 57.5s-36 102.5 -36 192.5v262h134v-264c0 -49.333 4 -83 12 -101s28 -27 60 -27s63.333 6 94 18v374h134z
M192.501 554.501c-22.333 22.333 -33.5 50 -33.5 83s11.167 60.833 33.5 83.5s50 34 83 34s60.833 -11.333 83.5 -34s34 -50.5 34 -83.5s-11.333 -60.667 -34 -83s-50.5 -33.5 -83.5 -33.5s-60.667 11.167 -83 33.5zM231.001 638.001c0 -13.333 4.33398 -24.333 13.001 -33
s19.667 -13 33 -13s24.166 4.33301 32.499 13s12.5 19.667 12.5 33s-4.33301 24.166 -13 32.499s-19.5 12.5 -32.5 12.5s-23.833 -4.16699 -32.5 -12.5s-13 -19.166 -13 -32.499z" />
    <glyph glyph-name="Uhungarumlaut" unicode="&#x170;" horiz-adv-x="654" 
d="M206 227c0 -79.333 40.333 -119 121 -119s121 39.667 121 119v453h138v-450c0 -83.333 -21.5 -144.5 -64.5 -183.5s-107.833 -58.5 -194.5 -58.5s-151.5 19.5 -194.5 58.5s-64.5 100.167 -64.5 183.5v450h138v-453zM361 775l67 197l116 -42l-78 -191zM153 776l67 197
l116 -42l-78 -191z" />
    <glyph glyph-name="uhungarumlaut" unicode="&#x171;" horiz-adv-x="553" 
d="M491 500l0.000976562 -499.999h-133v28l-20 -10c-12.667 -6.66699 -29.334 -13.334 -50.001 -20.001s-39 -10 -55 -10c-69.333 0 -116 19.167 -140 57.5s-36 102.5 -36 192.5v262h134v-264c0 -49.333 4 -83 12 -101s28 -27 60 -27s63.333 6 94 18v374h134z
M300.001 628.001l117 190l109 -67l-125 -188zM96.001 628.001l117 189l109 -66l-125 -188z" />
    <glyph glyph-name="Uogonek" unicode="&#x172;" horiz-adv-x="656" 
d="M207 227c0 -79.333 40.3311 -119.001 120.998 -119.001s121 39.667 121 119v453h138v-450c0 -131.333 -55.667 -209 -167 -233c-35.333 -30 -53 -56 -53 -78s10.667 -33 32 -33l42 4l12 -95c-39.333 -7.33301 -74.166 -11 -104.499 -11s-55.666 8.66699 -75.999 26
s-30.5 40.666 -30.5 69.999c0 40 17.667 76.333 53 109c-75.333 4.66699 -131.833 26.334 -169.5 65.001s-56.5 97.334 -56.5 176.001v450h138v-453z" />
    <glyph glyph-name="uogonek" unicode="&#x173;" horiz-adv-x="553" 
d="M357 499l133.999 0.00195312v-499c-5.33301 -2.66699 -12 -6.33398 -20 -11.001s-18.5 -14.167 -31.5 -28.5s-19.5 -28.166 -19.5 -41.499c0 -22 10.667 -33 32 -33l42 4l12 -95c-39.333 -7.33301 -74.166 -11 -104.499 -11s-55.666 8.66699 -75.999 26
s-30.5 40.666 -30.5 69.999c0 44 24.667 84 74 120h-12v21c-52 -22 -93.333 -33 -124 -33c-70 0 -116.833 19 -140.5 57s-35.5 102.333 -35.5 193v261h134v-261c0 -50.667 3.83301 -84.834 11.5 -102.501s27.167 -26.5 58.5 -26.5c17.333 0 43.666 4.33301 78.999 13l17 4
v373z" />
    <glyph glyph-name="Wcircumflex" unicode="&#x174;" horiz-adv-x="930" 
d="M19 680h145l84 -562h15l122 562h160l122 -562h15l84 562h145l-130 -680h-209l-107 517l-107 -517h-209zM273 765l134 149h117l134 -149h-142l-49 56l-52 -56h-142z" />
    <glyph glyph-name="wcircumflex" unicode="&#x175;" horiz-adv-x="772" 
d="M24 500h132l61 -386h24l76 376h138l76 -376h24l61 386h132l-95 -500h-210l-57 306l-57 -306h-210zM219 580l126 151h84l128 -151h-123l-46 67l-46 -67h-123z" />
    <glyph glyph-name="Ycircumflex" unicode="&#x176;" horiz-adv-x="557" 
d="M348 0h-138v275l-210 405h153l125 -271l125 271h153l-208 -405v-275zM88 765l134 149h117l134 -149h-142l-49 56l-52 -56h-142z" />
    <glyph glyph-name="ycircumflex" unicode="&#x177;" horiz-adv-x="500" 
d="M16 500h132l91 -386h23l91 386h132l-176 -710h-131l55 210h-94zM82 580l126 151h84l128 -151h-123l-46 67l-46 -67h-123z" />
    <glyph glyph-name="Ydieresis" unicode="&#x178;" horiz-adv-x="557" 
d="M348 0h-138v275l-210 405h153l125 -271l125 271h153l-208 -405v-275zM105 764v132h128v-132h-128zM319 764v132h128v-132h-128z" />
    <glyph glyph-name="Zacute" unicode="&#x179;" horiz-adv-x="532" 
d="M41 560v120h450v-120l-284 -422v-18h284v-120h-450v119l284 423v18h-284zM121 839l252 106l41 -120l-260 -79z" />
    <glyph glyph-name="zacute" unicode="&#x17a;" horiz-adv-x="454" 
d="M41 500h371v-120l-210 -260h210v-120h-371v120l210 260h-210v120zM82 651l252 102l40 -115l-262 -74z" />
    <glyph glyph-name="Zdotaccent" unicode="&#x17b;" horiz-adv-x="532" 
d="M41 560v120h450v-120l-284 -422v-18h284v-120h-450v119l284 423v18h-284zM199 767v135h134v-135h-134z" />
    <glyph glyph-name="zdotaccent" unicode="&#x17c;" horiz-adv-x="454" 
d="M41 500h371v-120l-210 -260h210v-120h-371v120l210 260h-210v120zM159 556v135h134v-135h-134z" />
    <glyph glyph-name="Zcaron" unicode="&#x17d;" horiz-adv-x="532" 
d="M41 560v120h450v-120l-284 -422v-18h284v-120h-450v119l284 423v18h-284zM210 765l-134 149h142l52 -56l49 56h142l-134 -149h-117z" />
    <glyph glyph-name="zcaron" unicode="&#x17e;" horiz-adv-x="454" 
d="M41 380v120h371v-120l-210 -260h210v-120h-371v120l210 260h-210zM194 580l-126 151h123l46 -67l46 67h123l-128 -151h-84z" />
    <glyph glyph-name="florin" unicode="&#x192;" 
d="M321 -47c0 -68.667 -13.1689 -116.334 -39.502 -143.001s-69.166 -40 -128.499 -40c-34 0 -65 3.33301 -93 10l-16 3v110c42.667 -2 73.334 -3 92.001 -3c34 0 51 22 51 66v430h-54v114h54v24c0 71.333 10.5 120.5 31.5 147.5s59.167 40.5 114.5 40.5
c24 0 54.333 -3.33301 91 -10l21 -3v-109c-29.333 1.33301 -54 2 -74 2s-33.333 -5.16699 -40 -15.5s-10 -28.166 -10 -53.499v-23h121v-114h-121v-433z" />
    <glyph glyph-name="Aringacute" unicode="&#x1fa;" horiz-adv-x="602" 
d="M450 721c0 -22 -4.66895 -41.332 -14.002 -57.999l149 -663h-138l-27 123h-238l-27 -123h-138l148 660c-10 17.333 -15 37.666 -15 60.999c0 39.333 14.333 70.166 43 92.499s64.334 33.5 107.001 33.5s78.334 -11.167 107.001 -33.5s43 -53.166 43 -92.499z
M276.998 566.001l-69 -323h186l-69 323h-48zM141.998 939.001l252 106l41 -120l-260 -79zM240.998 721.001c0 -12.667 5.33203 -22.665 15.999 -29.998s25 -11 43 -11h5c16.667 0.666992 29.834 4.66699 39.501 12s14.5 17.166 14.5 29.499s-5.33301 22.166 -16 29.499
s-25 11 -43 11s-32.333 -3.66699 -43 -11s-16 -17.333 -16 -30z" />
    <glyph glyph-name="aringacute" unicode="&#x1fb;" horiz-adv-x="511" 
d="M445 344l0.00195312 -207.999c1.33301 -16 4 -27.167 8 -33.5s12.333 -10.833 25 -13.5l-4 -101c-34 0 -61.167 2.33301 -81.5 7s-40.833 14 -61.5 28c-48 -23.333 -97 -35 -147 -35c-103.333 0 -155 54.667 -155 164c0 53.333 14.333 91.166 43 113.499
s72.667 35.5 132 39.5l107 8v31c0 20.667 -4.66699 34.834 -14 42.501s-24.333 11.5 -45 11.5l-188 -8l-4 93c71.333 19.333 139.166 29 203.499 29s110.666 -13.333 138.999 -40s42.5 -69.334 42.5 -128.001zM220.002 212.001c-37.333 -3.33301 -56 -23.333 -56 -60
s16.333 -55 49 -55c25.333 0 53 4 83 12l15 4v107zM168.502 554.501c-22.333 22.333 -33.5 50 -33.5 83s11.167 60.833 33.5 83.5s50 34 83 34s60.833 -11.333 83.5 -34s34 -50.5 34 -83.5s-11.333 -60.667 -34 -83s-50.5 -33.5 -83.5 -33.5s-60.667 11.167 -83 33.5z
M207.002 638.001c0 -13.333 4.33398 -24.333 13.001 -33s19.667 -13 33 -13s24.166 4.33301 32.499 13s12.5 19.667 12.5 33s-4.33301 24.166 -13 32.499s-19.5 12.5 -32.5 12.5s-23.833 -4.16699 -32.5 -12.5s-13 -19.166 -13 -32.499zM108.003 852.001l252 102l40 -115
l-262 -74z" />
    <glyph glyph-name="AEacute" unicode="&#x1fc;" horiz-adv-x="872" 
d="M393 0v116h-213l-29 -116h-138l184 690h634v-132h-302v-143h242v-131h-242v-152h302v-132h-438zM294 558l-80 -309h179l1 309h-100zM365 839l252 106l41 -120l-260 -79z" />
    <glyph glyph-name="aeacute" unicode="&#x1fd;" horiz-adv-x="784" 
d="M469 130c15.333 -12.667 38 -18.998 68 -18.998c45.333 0 100.666 2.33301 165.999 7l28 2l2 -104c-76.667 -18.667 -147.5 -28 -212.5 -28s-114.5 16 -148.5 48l-23 -11c-56 -24.667 -110.667 -37 -164 -37s-92.666 14.5 -117.999 43.5s-38 69.667 -38 122
s14.5 90 43.5 113s72.5 36.167 130.5 39.5l108 7v25c0 13.333 -4.66699 24.166 -14 32.499s-23 12.5 -41 12.5c-48 0 -100.333 -2.66699 -157 -8l-32 -3l-4 117c88.667 14.667 159.5 22 212.5 22s93.833 -12.333 122.5 -37c34.667 24.667 79 37 133 37
c145.333 0 218 -75 218 -225l-10 -94h-294c0.666992 -28.667 8.66699 -49.334 24 -62.001zM311 118.002l-1.00098 93l-90 -4c-37.333 -2 -56 -19 -56 -51c0 -35.333 13.667 -53 41 -53c26.667 0 56.334 3.66699 89.001 11zM444.999 295.002h172.001
c0 35.333 -6.5 60.333 -19.5 75s-35.333 22 -67 22s-53.834 -7.66699 -66.501 -23s-19 -40 -19 -74zM256 651.002l252 102l40 -115l-262 -74z" />
    <glyph glyph-name="Oslashacute" unicode="&#x1fe;" horiz-adv-x="654" 
d="M327 -12c-32.667 0 -64.667 3.33203 -96 9.99902l-58 -125l-98 49l58 124c-58.667 52 -88 148.667 -88 290c0 120.667 21.167 210.167 63.5 268.5s115.166 87.5 218.499 87.5c38 0 71.667 -4 101 -12l61 130l100 -43l-65 -140c56.667 -54.667 85 -151.667 85 -291
c0 -119.333 -21.167 -207.166 -63.5 -263.499s-115.166 -84.5 -218.499 -84.5zM217 515.999c-20 -37.333 -30 -92.167 -30 -164.5s5 -124.833 15 -157.5l173 371c-16.667 4.66699 -32.667 7 -48 7c-53.333 0 -90 -18.667 -110 -56zM327 107.998
c54 0 90.834 17.5 110.501 52.5s29.5 87.833 29.5 158.5s-4.66699 122.667 -14 156l-169 -363c11.333 -2.66699 25.666 -4 42.999 -4zM170.001 838.998l252 106l41 -120l-260 -79z" />
    <glyph glyph-name="oslashacute" unicode="&#x1ff;" horiz-adv-x="532" 
d="M266 512c18.667 0 37.333 -1.66797 56 -5.00098l40 100l81 -30l-41 -98c62.667 -39.333 94 -115.333 94 -228c0 -175.333 -76.667 -263 -230 -263c-22.667 0 -43.667 2 -63 6l-41 -102l-80 30l43 103c-59.333 40 -89 115.333 -89 226c0 82.667 17.667 146.834 53 192.501
s94.333 68.5 177 68.5zM120.999 650.999l252 102l40 -115l-262 -74zM265.999 101.999c35.333 0 59.833 12 73.5 36s20.5 59.667 20.5 107s-4.66699 82.333 -14 105l-100 -247c4 -0.666992 10.667 -1 20 -1zM265.999 397.999c-35.333 0 -59.833 -11.667 -73.5 -35
s-20.5 -58.333 -20.5 -105s4 -80.667 12 -102l95 241c-1.33301 0 -3.5 0.166992 -6.5 0.5s-5.16699 0.5 -6.5 0.5z" />
    <glyph glyph-name="Scommaaccent" unicode="&#x218;" horiz-adv-x="544" 
d="M215 -77h130l-55 -234h-121zM283 572c-72.667 0 -108.999 -24.002 -108.999 -72.002c0 -21.333 9 -37.666 27 -48.999s60.167 -27.666 126.5 -48.999s112.833 -45.5 139.5 -72.5s40 -68.5 40 -124.5c0 -71.333 -21.667 -125.333 -65 -162s-100 -55 -170 -55
c-52 0 -115.667 8 -191 24l-36 7l14 107c89.333 -12 157.666 -18 204.999 -18c70.667 0 106 29.333 106 88c0 21.333 -8.16699 38 -24.5 50s-48.833 25 -97.5 39c-77.333 22 -131.833 48.167 -163.5 78.5s-47.5 72.5 -47.5 126.5c0 68 20.667 118.667 62 152s98 50 170 50
c49.333 0 112 -6.66699 188 -20l36 -7l-11 -109c-94 10.667 -160.333 16 -199 16z" />
    <glyph glyph-name="scommaaccent" unicode="&#x219;" horiz-adv-x="472" 
d="M29 -77h130l-55 -234h-121zM421 375c-82.667 10.667 -140.501 15.999 -173.501 15.999s-54.333 -3 -64 -9s-14.5 -15.5 -14.5 -28.5s6.5 -22 19.5 -27s46.333 -12.333 100 -22s91.834 -25.5 114.501 -47.5s34 -57.667 34 -107c0 -108 -67 -162 -201 -162
c-44 0 -97.333 6 -160 18l-32 6l4 112c82.667 -10.667 140.167 -16 172.5 -16s54.333 3.16699 66 9.5s17.5 15.833 17.5 28.5s-6.16699 22 -18.5 28s-44.333 13.333 -96 22s-90.167 23.334 -115.5 44.001s-38 57.5 -38 110.5s18 93 54 120s82.333 40.5 139 40.5
c39.333 0 93 -6.33301 161 -19l33 -6z" />
    <glyph glyph-name="Tcommaaccent" unicode="&#x21a;" horiz-adv-x="526" 
d="M223 -77h130l-55 -234h-121zM13 558v122h500v-122h-180v-558h-138v558h-182z" />
    <glyph glyph-name="tcommaaccent" unicode="&#x21b;" horiz-adv-x="364" 
d="M49 -77h130l-55 -234h-121zM339 386h-122.999v-205c0 -20 0.5 -34.167 1.5 -42.5s4.66699 -15.5 11 -21.5s16.166 -9 29.499 -9l76 2l6 -107c-44.667 -10 -78.667 -15 -102 -15c-60 0 -101 13.5 -123 40.5s-33 76.833 -33 149.5v208h-59v114h59v139h134v-139h123v-114z
" />
    <glyph glyph-name="circumflex" unicode="&#x2c6;" horiz-adv-x="268" 
d="M-24 580l126 151h84l128 -151h-123l-46 67l-46 -67h-123z" />
    <glyph glyph-name="caron" unicode="&#x2c7;" horiz-adv-x="268" 
d="M106 580l-126 151h123l46 -67l46 67h123l-128 -151h-84z" />
    <glyph glyph-name="breve" unicode="&#x2d8;" horiz-adv-x="268" 
d="M144 664c37.333 0 58.3291 22.001 62.9961 66.001h101c-5.33301 -43.333 -22.166 -80.333 -50.499 -111s-66.166 -46 -113.499 -46s-85.166 15.333 -113.499 46s-45.166 67.667 -50.499 111h101c2.66699 -20.667 9.5 -36.834 20.5 -48.501s25.167 -17.5 42.5 -17.5z" />
    <glyph glyph-name="dotaccent" unicode="&#x2d9;" horiz-adv-x="268" 
d="M67 556v135h134v-135h-134z" />
    <glyph glyph-name="ring" unicode="&#x2da;" horiz-adv-x="268" 
d="M53.5 554.5c-22.333 22.333 -33.5 50 -33.5 83s11.167 60.833 33.5 83.5s50 34 83 34s60.833 -11.333 83.5 -34s34 -50.5 34 -83.5s-11.333 -60.667 -34 -83s-50.5 -33.5 -83.5 -33.5s-60.667 11.167 -83 33.5zM92 638c0 -13.333 4.33301 -24.333 13 -33
s19.667 -13 33 -13s24.166 4.33301 32.499 13s12.5 19.667 12.5 33s-4.16699 24.166 -12.5 32.499s-19.166 12.5 -32.499 12.5s-24.333 -4.16699 -33 -12.5s-13 -19.166 -13 -32.499z" />
    <glyph glyph-name="ogonek" unicode="&#x2db;" horiz-adv-x="474" 
d="M402 1c-38.667 -31.333 -58.002 -58.334 -58.002 -81.001s10.667 -34 32 -34l42 4l12 -95c-39.333 -7.33301 -74.166 -11 -104.499 -11s-55.666 8.66699 -75.999 26s-30.5 39.333 -30.5 66s6.83301 50.834 20.5 72.501s27.167 37.5 40.5 47.5l20 15z" />
    <glyph glyph-name="tilde" unicode="&#x2dc;" horiz-adv-x="268" 
d="M264 602c-18.667 -11.333 -35.4971 -16.999 -50.4971 -16.999s-37.833 6 -68.5 18s-50.334 18 -59.001 18c-19.333 0 -41.333 -7.66699 -66 -23l-13 -8l-29 75c13.333 15.333 30.166 29.166 50.499 41.499s38 18.5 53 18.5s38 -6 69 -18s50.5 -18 58.5 -18
c16 0 38 8.33301 66 25l14 9l29 -76c-4 -4.66699 -9.33301 -10.5 -16 -17.5s-19.334 -16.167 -38.001 -27.5z" />
    <glyph glyph-name="hungarumlaut" unicode="&#x2dd;" horiz-adv-x="268" 
d="M154 628l117 190l109 -67l-125 -188zM-50 628l117 189l109 -66l-125 -188z" />
    <glyph glyph-name="pi" unicode="&#x3c0;" 
d="M320 154l0.00195312 232h-85l-26 -386h-135l32 386c-21.333 0 -45.666 -3.33301 -72.999 -10l-15 -3v109c42.667 12 92.667 18 150 18h251c34 0 65.667 3 95 9l14 3v-110c-16 -7.33301 -40.667 -12 -74 -14v-234c0 -18 4.66699 -30.833 14 -38.5
s27.666 -11.5 54.999 -11.5v-114c-46.667 0 -82.834 2 -108.501 6s-45.834 12.833 -60.501 26.5s-24 30 -28 49s-6 46.5 -6 82.5z" />
    <glyph glyph-name="Wgrave" unicode="&#x1e80;" horiz-adv-x="930" 
d="M19 680h145l84 -562h15l122 562h160l122 -562h15l84 562h145l-130 -680h-209l-107 517l-107 -517h-209zM368 945l252 -106l-33 -93l-260 79z" />
    <glyph glyph-name="wgrave" unicode="&#x1e81;" horiz-adv-x="772" 
d="M24 500h132l61 -386h24l76 376h138l76 -376h24l61 386h132l-95 -500h-210l-57 306l-57 -306h-210zM264 753l252 -102l-30 -87l-262 74z" />
    <glyph glyph-name="Wacute" unicode="&#x1e82;" horiz-adv-x="930" 
d="M19 680h145l84 -562h15l122 562h160l122 -562h15l84 562h145l-130 -680h-209l-107 517l-107 -517h-209zM329 839l252 106l41 -120l-260 -79z" />
    <glyph glyph-name="wacute" unicode="&#x1e83;" horiz-adv-x="772" 
d="M24 500h132l61 -386h24l76 376h138l76 -376h24l61 386h132l-95 -500h-210l-57 306l-57 -306h-210zM251 651l252 102l40 -115l-262 -74z" />
    <glyph glyph-name="Wdieresis" unicode="&#x1e84;" horiz-adv-x="930" 
d="M19 680h145l84 -562h15l122 562h160l122 -562h15l84 562h145l-130 -680h-209l-107 517l-107 -517h-209zM292 764v132h128v-132h-128zM506 764v132h128v-132h-128z" />
    <glyph glyph-name="wdieresis" unicode="&#x1e85;" horiz-adv-x="772" 
d="M24 500h132l61 -386h24l76 376h138l76 -376h24l61 386h132l-95 -500h-210l-57 306l-57 -306h-210zM216 596v132h128v-132h-128zM432 596v132h128v-132h-128z" />
    <glyph glyph-name="uni1EAB" unicode="&#x1eab;" horiz-adv-x="511" 
d="M445 344l0.00195312 -207.999c1.33301 -16 4 -27.167 8 -33.5s12.333 -10.833 25 -13.5l-4 -101c-34 0 -61.167 2.33301 -81.5 7s-40.833 14 -61.5 28c-48 -23.333 -97 -35 -147 -35c-103.333 0 -155 54.667 -155 164c0 53.333 14.333 91.166 43 113.499
s72.667 35.5 132 39.5l107 8v31c0 20.667 -4.66699 34.834 -14 42.501s-24.333 11.5 -45 11.5l-188 -8l-4 93c71.333 19.333 139.166 29 203.499 29s110.666 -13.333 138.999 -40s42.5 -69.334 42.5 -128.001zM220.002 212.001c-37.333 -3.33301 -56 -23.333 -56 -60
s16.333 -55 49 -55c25.333 0 53 4 83 12l15 4v107zM66.002 550.001l126 151h84l128 -151h-123l-46 67l-46 -67h-123zM347.002 762.001c-18.667 -11.333 -35.4971 -16.999 -50.4971 -16.999s-37.833 6 -68.5 18s-50.667 18 -60 18c-18.667 0 -40.334 -7.66699 -65.001 -23
l-13 -8l-29 75c13.333 15.333 30.166 29.166 50.499 41.499s38 18.5 53 18.5s38 -6 69 -18s50.5 -18 58.5 -18c16 0 38 8.33301 66 25l14 9l29 -76c-4 -4.66699 -9.33301 -10.5 -16 -17.5s-19.334 -16.167 -38.001 -27.5z" />
    <glyph glyph-name="uni1EB0" unicode="&#x1eb0;" horiz-adv-x="600" 
d="M17 0l153 690h262l150 -690h-138l-31 116h-232l-26 -116h-138zM277 563l-67 -314h177l-65 314h-45zM260 829c11.333 -10.667 26.167 -16 44.5 -16s33.333 5.33301 45 16s18.5 24.334 20.5 41.001h121c-5.33301 -45.333 -23.5 -81.833 -54.5 -109.5
s-75.167 -41.5 -132.5 -41.5s-101.333 13.833 -132 41.5s-48.667 64.167 -54 109.5h121c2.66699 -16.667 9.66699 -30.334 21 -41.001zM143.001 1114l252 -102l-30 -87l-262 74z" />
    <glyph glyph-name="uni1EC5" unicode="&#x1ec5;" horiz-adv-x="511" 
d="M196 130c15.333 -12.667 38.001 -18.999 68.001 -18.999c45.333 0 100.666 2.33301 165.999 7l28 2l2 -104c-76.667 -18.667 -146 -28 -208 -28c-75.333 0 -130 20 -164 60s-51 105 -51 195c0 178.667 73.667 268 221 268c145.333 0 218 -75 218 -225l-10 -94h-294
c0.666992 -28.667 8.66699 -49.334 24 -62.001zM344.001 295.001c0 35.333 -6.5 60.333 -19.5 75s-35.167 22 -66.5 22s-53.5 -7.66699 -66.5 -23s-19.833 -40 -20.5 -74h173zM95.001 550.001l126 151h84l128 -151h-123l-46 67l-46 -67h-123zM369.001 762.001
c-18.667 -11.333 -35.4971 -16.999 -50.4971 -16.999s-37.833 6 -68.5 18s-50.667 18 -60 18c-18.667 0 -40.334 -7.66699 -65.001 -23l-13 -8l-29 75c13.333 15.333 30.166 29.166 50.499 41.499s38 18.5 53 18.5s38 -6 69 -18s50.5 -18 58.5 -18c16 0 38 8.33301 66 25
l14 9l29 -76c-4 -4.66699 -9.33301 -10.5 -16 -17.5s-19.334 -16.167 -38.001 -27.5z" />
    <glyph glyph-name="uni1ED7" unicode="&#x1ed7;" horiz-adv-x="532" 
d="M266 512c82.667 0 141.667 -22.833 177 -68.5s53 -109.834 53 -192.501c0 -175.333 -76.667 -263 -230 -263s-230 87.667 -230 263c0 82.667 17.667 146.834 53 192.501s94.333 68.5 177 68.5zM266 102c35.333 0 59.833 12 73.5 36s20.5 61.667 20.5 113
s-6.83301 88.666 -20.5 111.999s-38.167 35 -73.5 35s-59.833 -11.667 -73.5 -35s-20.5 -60.666 -20.5 -111.999s6.83301 -89 20.5 -113s38.167 -36 73.5 -36zM98 550l126 151h84l128 -151h-123l-46 67l-46 -67h-123zM369 762
c-18.667 -11.333 -35.4971 -16.999 -50.4971 -16.999s-37.833 6 -68.5 18s-50.667 18 -60 18c-18.667 0 -40.334 -7.66699 -65.001 -23l-13 -8l-29 75c13.333 15.333 30.166 29.166 50.499 41.499s38 18.5 53 18.5s38 -6 69 -18s50.5 -18 58.5 -18c16 0 38 8.33301 66 25
l14 9l29 -76c-4 -4.66699 -9.33301 -10.5 -16 -17.5s-19.334 -16.167 -38.001 -27.5z" />
    <glyph glyph-name="Ygrave" unicode="&#x1ef2;" horiz-adv-x="557" 
d="M348 0h-138v275l-210 405h153l125 -271l125 271h153l-208 -405v-275zM182 945l252 -106l-33 -93l-260 79z" />
    <glyph glyph-name="ygrave" unicode="&#x1ef3;" horiz-adv-x="500" 
d="M16 500h132l91 -386h23l91 386h132l-176 -710h-131l55 210h-94zM120 753l252 -102l-30 -87l-262 74z" />
    <glyph glyph-name="uni1EF8" unicode="&#x1ef8;" horiz-adv-x="541" 
d="M341 0h-138v295l-208 395h153l123 -241l122 241h153l-205 -396v-294zM384 793c-18.667 -11.333 -35.4971 -16.999 -50.4971 -16.999s-37.833 6 -68.5 18s-50.334 18 -59.001 18c-16.667 0 -38.667 -8 -66 -24l-13 -7l-29 75c13.333 15.333 30.166 29.166 50.499 41.499
s38 18.5 53 18.5s38 -6 69 -18s50.5 -18 58.5 -18c16 0 38 8.66699 66 26l14 8l29 -76c-4 -4.66699 -9.33301 -10.5 -16 -17.5s-19.334 -16.167 -38.001 -27.5z" />
    <glyph glyph-name="uni1EF9" unicode="&#x1ef9;" horiz-adv-x="500" 
d="M16 499h132l91 -368h23l91 368h132l-176 -709h-131l51 210h-90zM364 602c-18.667 -11.333 -35.4971 -16.999 -50.4971 -16.999s-37.833 6 -68.5 18s-50.334 18 -59.001 18c-19.333 0 -41.333 -7.66699 -66 -23l-13 -8l-29 75c13.333 15.333 30.166 29.166 50.499 41.499
s38 18.5 53 18.5s38 -6 69 -18s50.5 -18 58.5 -18c16 0 38 8.33301 66 25l14 9l29 -76c-4 -4.66699 -9.33301 -10.5 -16 -17.5s-19.334 -16.167 -38.001 -27.5z" />
    <glyph glyph-name="endash" unicode="&#x2013;" horiz-adv-x="614" 
d="M57 323h500v-114h-500v114z" />
    <glyph glyph-name="emdash" unicode="&#x2014;" horiz-adv-x="1114" 
d="M57 323h1000v-114h-1000v114z" />
    <glyph glyph-name="quoteleft" unicode="&#x2018;" horiz-adv-x="259" 
d="M223 679l-48 -247h-140l85 247h103z" />
    <glyph glyph-name="quoteright" unicode="&#x2019;" horiz-adv-x="254" 
d="M41 433l47 247h141l-85 -247h-103z" />
    <glyph glyph-name="quotesinglbase" unicode="&#x201a;" horiz-adv-x="256" 
d="M23 -117l47 247h141l-85 -247h-103z" />
    <glyph glyph-name="quotedblleft" unicode="&#x201c;" horiz-adv-x="443" 
d="M407 679l-48 -247h-140l85 247h103zM223 679l-48 -247h-140l85 247h103z" />
    <glyph glyph-name="quotedblright" unicode="&#x201d;" horiz-adv-x="439" 
d="M41 434l47 247h141l-86 -247h-102zM225 434l47 247h141l-85 -247h-103z" />
    <glyph glyph-name="quotedblbase" unicode="&#x201e;" horiz-adv-x="421" 
d="M181 117l-48 -247h-140l85 247h103zM371 117l-48 -247h-140l85 247h103z" />
    <glyph glyph-name="dagger" unicode="&#x2020;" horiz-adv-x="480" 
d="M28 386v114h145v180h134v-180h145v-114h-145l-10 -457h-114l-10 457h-145z" />
    <glyph glyph-name="daggerdbl" unicode="&#x2021;" horiz-adv-x="512" 
d="M189 -71v180h-145v114h145v163h-145v114h145v180h134v-180h144v-114h-144v-163h145v-114h-145v-180h-134z" />
    <glyph glyph-name="bullet" unicode="&#x2022;" horiz-adv-x="450" 
d="M100 100v280h250v-280h-250z" />
    <glyph glyph-name="ellipsis" unicode="&#x2026;" horiz-adv-x="766" 
d="M56 0v166h144v-166h-144zM311 0v166h144v-166h-144zM566 0v166h144v-166h-144z" />
    <glyph glyph-name="perthousand" unicode="&#x2030;" horiz-adv-x="845" 
d="M149 592c-8.66699 0 -14.5 -4.83301 -17.5 -14.5s-4.5 -26.5 -4.5 -50.5s1.5 -41 4.5 -51s8.83301 -15 17.5 -15s14.5 5 17.5 15s4.5 27 4.5 51s-1.5 40.833 -4.5 50.5s-8.83301 14.5 -17.5 14.5zM140 -8l235 707l73 -26l-235 -705zM149 672c80 0 120 -48.5 120 -145.5
s-40 -145.5 -120 -145.5s-120 48.5 -120 145.5s40 145.5 120 145.5zM441 -12c-80 0 -120 48.5 -120 145.5s40 145.5 120 145.5s120 -48.5 120 -145.5s-40 -145.5 -120 -145.5zM419 134c0 -24 1.5 -41 4.5 -51s8.83301 -15 17.5 -15s14.5 5 17.5 15s4.5 27 4.5 51
s-1.5 40.833 -4.5 50.5s-8.83301 14.5 -17.5 14.5s-14.5 -4.83301 -17.5 -14.5s-4.5 -26.5 -4.5 -50.5zM698 -12c-80 0 -120 48.5 -120 145.5s40 145.5 120 145.5s120 -48.5 120 -145.5s-40 -145.5 -120 -145.5zM676 134c0 -24 1.5 -41 4.5 -51s8.83301 -15 17.5 -15
s14.5 5 17.5 15s4.5 27 4.5 51s-1.5 40.833 -4.5 50.5s-8.83301 14.5 -17.5 14.5s-14.5 -4.83301 -17.5 -14.5s-4.5 -26.5 -4.5 -50.5z" />
    <glyph glyph-name="guilsinglleft" unicode="&#x2039;" horiz-adv-x="318" 
d="M263 319l-109 -75l109 -86v-135l-223 171v96l223 164v-135z" />
    <glyph glyph-name="guilsinglright" unicode="&#x203a;" horiz-adv-x="318" 
d="M163 254l-109 75v135l223 -164v-96l-223 -171v135z" />
    <glyph glyph-name="fraction" unicode="&#x2044;" horiz-adv-x="10" 
d="M-224 29l393 632l53 -35l-393 -633z" />
    <glyph glyph-name="zerosuperior" unicode="&#x2070;" horiz-adv-x="280" 
d="M140 801c44 0 76.502 -12.667 97.502 -38s31.5 -68.833 31.5 -130.5s-10.333 -104.667 -31 -129s-53.334 -36.5 -98.001 -36.5s-77.334 12.167 -98.001 36.5s-31 67.333 -31 129s10.5 105.167 31.5 130.5s53.5 38 97.5 38zM140.002 706
c-4.66699 0 -8.33301 -1.50195 -11 -4.50195s-4.66699 -10 -6 -21s-2 -27.167 -2 -48.5s0.833008 -37.166 2.5 -47.499s3.66699 -16.666 6 -18.999s6.5 -3.5 12.5 -3.5s10.333 4 13 12s4 27.5 4 58.5s-1.33301 51 -4 60s-7.66699 13.5 -15 13.5z" />
    <glyph glyph-name="foursuperior" unicode="&#x2074;" horiz-adv-x="280" 
d="M146 478v35h-132v88l39 189h118l-52 -182h27l14 90h91v-90h11v-95h-11v-35h-105z" />
    <glyph glyph-name="fivesuperior" unicode="&#x2075;" horiz-adv-x="280" 
d="M251 790l-0.000976562 -90h-124l-3 -25c18.667 4 33.334 6 44.001 6c62 0 93 -33 93 -99c0 -74 -39.333 -111 -118 -111c-30.667 0 -64 3.66699 -100 11l-18 3l8 85c37.333 -6 66.333 -9 87 -9s31 5.16699 31 15.5s-4.66699 15.5 -14 15.5l-26 -4l-78 11l11 191h207z" />
    <glyph glyph-name="sixsuperior" unicode="&#x2076;" horiz-adv-x="280" 
d="M124 682c20 3.33301 32.667 5 38 5c36 0 62.333 -8.66699 79 -26s25 -43.833 25 -79.5s-11.167 -63.667 -33.5 -84s-50.833 -30.5 -85.5 -30.5c-87.333 0 -131 51.667 -131 155c0 59.333 10.167 104 30.5 134s55.833 45 106.5 45c21.333 0 50 -3 86 -9l18 -3l-6 -87
c-44 4 -76.167 6 -96.5 6s-30.5 -8.66699 -30.5 -26zM143 601c-7.33301 0 -13.667 -2.66699 -19 -8c0 -22.667 5.83301 -34 17.5 -34s17.5 7 17.5 21s-5.33301 21 -16 21z" />
    <glyph glyph-name="sevensuperior" unicode="&#x2077;" horiz-adv-x="280" 
d="M26 685v105h227v-101l-95 -221l-121 19l91 185v13h-102z" />
    <glyph glyph-name="eightsuperior" unicode="&#x2078;" horiz-adv-x="280" 
d="M17 712c0 59.333 41.168 89.002 123.501 89.002s123.5 -30 123.5 -90c0 -25.333 -6.66699 -46.333 -20 -63l-7 -8c8.66699 -6 16 -15.167 22 -27.5s9 -25.833 9 -40.5c0 -38 -10.667 -65 -32 -81s-53.5 -24 -96.5 -24s-75 8 -96 24s-31.5 43 -31.5 81
c0 13.333 2.66699 25.666 8 36.999s10.666 19.666 15.999 24.999l8 7c-18 13.333 -27 37 -27 71zM140.001 552.002c12.667 0 19 7.33301 19 22c0 8.66699 -4 17 -12 25h-14c-8 -8 -12 -16.333 -12 -25c0 -14.667 6.33301 -22 19 -22zM140.001 716.002
c-12 0 -18 -6.33301 -18 -19c0 -8 3.66699 -16.333 11 -25h14c7.33301 8.66699 11 17 11 25c0 12.667 -6 19 -18 19z" />
    <glyph glyph-name="ninesuperior" unicode="&#x2079;" horiz-adv-x="280" 
d="M152 585c-13.333 -2.66699 -25.001 -4 -35.001 -4c-68 0 -102 34.667 -102 104c0 36.667 10.667 65.167 32 85.5s50.333 30.5 87 30.5c87.333 0 131 -55 131 -165c0 -58 -10 -100.667 -30 -128s-53.667 -41 -101 -41c-28 0 -58.667 3.66699 -92 11l-16 3l6 87
c32.667 -4 60.834 -6 84.501 -6s35.5 7.66699 35.5 23zM137.999 708c-10.667 0 -16 -7.5 -16 -22.5s5.33301 -22.5 16 -22.5l19 6c0 26 -6.33301 39 -19 39z" />
    <glyph glyph-name="zeroinferior" unicode="&#x2080;" horiz-adv-x="280" 
d="M140 223c44 0 76.502 -12.667 97.502 -38s31.5 -68.833 31.5 -130.5s-10.333 -104.667 -31 -129s-53.334 -36.5 -98.001 -36.5s-77.334 12.167 -98.001 36.5s-31 67.333 -31 129s10.5 105.167 31.5 130.5s53.5 38 97.5 38zM140.002 128
c-4.66699 0 -8.33301 -1.50195 -11 -4.50195s-4.66699 -10 -6 -21s-2 -27.167 -2 -48.5s0.833008 -37.166 2.5 -47.499s3.66699 -16.666 6 -18.999s6.5 -3.5 12.5 -3.5s10.333 4 13 12s4 27.5 4 58.5s-1.33301 51 -4 60s-7.66699 13.5 -15 13.5z" />
    <glyph glyph-name="oneinferior" unicode="&#x2081;" horiz-adv-x="280" 
d="M227 212v-312h-106v195l-47 -32l-49 74l106 75h96z" />
    <glyph glyph-name="twoinferior" unicode="&#x2082;" horiz-adv-x="280" 
d="M257 -100h-231v90l73 59c30.667 24.667 46 43.667 46 57c0 10 -12.333 15 -37 15l-76 -6l-4 99c48.667 6 90.667 9 126 9s61.333 -7.66699 78 -23s25 -37.5 25 -66.5s-4.33301 -51 -13 -66s-23 -29.833 -43 -44.5l-38 -28h94v-95z" />
    <glyph glyph-name="threeinferior" unicode="&#x2083;" horiz-adv-x="280" 
d="M131 223c80.667 0 120.999 -29.668 120.999 -89.001c0 -35.333 -9.66699 -58.666 -29 -69.999c23.333 -10 35 -33.333 35 -70c0 -70 -39.333 -105 -118 -105l-121 8l6 93c40.667 -4 71.334 -6 92.001 -6s31 5.33301 31 16c0 9.33301 -8.66699 14 -26 14h-66v85h64
c13.333 0 20 4.83301 20 14.5s-9 14.5 -27 14.5l-84 -5l-6 91c45.333 6 81.333 9 108 9z" />
    <glyph glyph-name="fourinferior" unicode="&#x2084;" horiz-adv-x="280" 
d="M150 -100v35h-132v88l39 189h118l-52 -182h27l14 90h91v-90h11v-95h-11v-35h-105z" />
    <glyph glyph-name="fiveinferior" unicode="&#x2085;" horiz-adv-x="280" 
d="M244 212l-0.000976562 -90h-124l-3 -25c18.667 4 33.334 6 44.001 6c62 0 93 -33 93 -99c0 -74 -39.333 -111 -118 -111c-30.667 0 -64 3.66699 -100 11l-18 3l8 85c37.333 -6 66.333 -9 87 -9s31 5.16699 31 15.5s-4.66699 15.5 -14 15.5l-26 -4l-78 11l11 191h207z" />
    <glyph glyph-name="sixinferior" unicode="&#x2086;" horiz-adv-x="280" 
d="M120 104c20 3.33301 32.667 5 38 5c36 0 62.333 -8.66699 79 -26s25 -43.833 25 -79.5s-11.167 -63.667 -33.5 -84s-50.833 -30.5 -85.5 -30.5c-87.333 0 -131 51.667 -131 155c0 59.333 10.167 104 30.5 134s55.833 45 106.5 45c21.333 0 50 -3 86 -9l18 -3l-6 -87
c-44 4 -76.167 6 -96.5 6s-30.5 -8.66699 -30.5 -26zM139 23c-7.33301 0 -13.667 -2.66699 -19 -8c0 -22.667 5.83301 -34 17.5 -34s17.5 7 17.5 21s-5.33301 21 -16 21z" />
    <glyph glyph-name="seveninferior" unicode="&#x2087;" horiz-adv-x="280" 
d="M26 107v105h227v-101l-95 -221l-121 19l91 185v13h-102z" />
    <glyph glyph-name="eightinferior" unicode="&#x2088;" horiz-adv-x="280" 
d="M16 134c0 59.333 41.168 89.002 123.501 89.002s123.5 -30 123.5 -90c0 -13.333 -2.16699 -25.833 -6.5 -37.5s-8.83301 -20.167 -13.5 -25.5l-7 -8c8.66699 -6 16 -15.167 22 -27.5s9 -25.833 9 -40.5c0 -38 -10.667 -65 -32 -81s-53.5 -24 -96.5 -24s-75 8 -96 24
s-31.5 43 -31.5 81c0 13.333 2.66699 25.666 8 36.999s10.666 19.666 15.999 24.999l8 7c-18 13.333 -27 37 -27 71zM139.001 -25.998c12.667 0 19 7.33301 19 22c0 8.66699 -4 17 -12 25h-14c-8 -8 -12 -16.333 -12 -25c0 -14.667 6.33301 -22 19 -22zM139.001 138.002
c-12 0 -18 -6.33301 -18 -19c0 -8 3.66699 -16.333 11 -25h14c7.33301 8.66699 11 17 11 25c0 12.667 -6 19 -18 19z" />
    <glyph glyph-name="nineinferior" unicode="&#x2089;" horiz-adv-x="280" 
d="M151 7c-13.333 -2.66699 -25.001 -4 -35.001 -4c-68 0 -102 34.667 -102 104c0 36.667 10.667 65.167 32 85.5s50.333 30.5 87 30.5c87.333 0 131 -55 131 -165c0 -58 -10 -100.667 -30 -128s-53.667 -41 -101 -41c-28 0 -58.333 3.66699 -91 11l-17 3l6 87
c32.667 -4 60.834 -6 84.501 -6s35.5 7.66699 35.5 23zM136.999 130c-10.667 0 -16 -7.5 -16 -22.5s5.33301 -22.5 16 -22.5l19 6c0 26 -6.33301 39 -19 39z" />
    <glyph glyph-name="Euro" unicode="&#x20ac;" 
d="M26 355l-0.00195312 101.999h62c10 78 33.5 133.333 70.5 166s95.167 49 174.5 49c51.333 0 115.666 -8.66699 192.999 -26l-4 -107c-58.667 9.33301 -111.167 14 -157.5 14s-78.833 -6.66699 -97.5 -20s-32 -38.666 -40 -75.999h235v-102h-243v-66h243v-102h-231
c8 -30 21.333 -50.833 40 -62.5s48.667 -17.5 90 -17.5s95 4.33301 161 13l3 -109c-67.333 -15.333 -135.166 -23 -203.499 -23s-121.166 16 -158.499 48s-61.666 82.333 -72.999 151h-64v102h55v66h-55z" />
    <glyph glyph-name="trademark" unicode="&#x2122;" horiz-adv-x="660" 
d="M80 565v79h200v-79h-41v-233h-88v233h-71zM305 331v313h103l41 -158l45 158h102v-313h-82v174l-34 -153h-55l-38 153v-174h-82z" />
    <glyph glyph-name="Omega" unicode="&#x2126;" 
d="M52 105l80.002 -0.00195312c-6 6 -15.5 20.333 -28.5 43s-23.5 44 -31.5 64c-21.333 54.667 -32 112.334 -32 173.001c0 100.667 18.667 173.667 56 219s98.666 68 183.999 68s146.666 -22.667 183.999 -68s56 -118.333 56 -219c0 -50.667 -7.66699 -99.334 -23 -146.001
s-30.666 -80.667 -45.999 -102l-23 -32h80v-114h-208v99c19.333 32.667 37.166 74.834 53.499 126.501s24.5 96.167 24.5 133.5c0 77.333 -6.16699 130.333 -18.5 159s-38.833 43 -79.5 43s-67.167 -14.333 -79.5 -43s-18.5 -81.667 -18.5 -159
c0 -37.333 6.5 -77.666 19.5 -120.999s25.833 -77.333 38.5 -102l20 -37v-99h-208v114z" />
    <glyph glyph-name="partialdiff" unicode="&#x2202;" 
d="M262 712c90 0 155.169 -29.6689 195.502 -89.002s60.5 -150.666 60.5 -273.999s-20 -213.833 -60 -271.5s-105 -86.5 -195 -86.5c-156.667 0 -235 75 -235 225c0 70.667 19 125.334 57 164.001s92 58 162 58c40.667 0 77.667 -6 111 -18l16 -6
c-4 70 -15.333 118.167 -34 144.5s-52.334 39.5 -101.001 39.5c-21.333 0 -44.833 -2.83301 -70.5 -8.5s-45.834 -11.5 -60.501 -17.5l-23 -8l-4 103c56.667 30 117 45 181 45zM264.002 323.998c-61.333 0 -91.999 -36.5 -91.999 -109.5s30.333 -109.5 91 -109.5
c37.333 0 65.166 15.5 83.499 46.5s27.5 81.167 27.5 150.5c-25.333 14.667 -62 22 -110 22z" />
    <glyph glyph-name="Delta" unicode="&#x2206;" 
d="M516 0h-472v104l124 556h225l123 -558v-102zM294 548h-27l-90 -434h206z" />
    <glyph glyph-name="product" unicode="&#x220f;" 
d="M335 -180v820h-113v-820h-138v820h-53v120h499v-120h-57v-820h-138z" />
    <glyph glyph-name="summation" unicode="&#x2211;" 
d="M30 760h500v-120h-354v-15l215 -281v-93l-215 -296v-15h354v-120h-500v139l238 339l-238 322v140z" />
    <glyph glyph-name="minus" unicode="&#x2212;" 
d="M62 191v120h436v-120h-436z" />
    <glyph glyph-name="radical" unicode="&#x221a;" 
d="M1 320v120h166l92 -456h13l163 807h136l-200 -921h-214l-102 450h-54z" />
    <glyph glyph-name="infinity" unicode="&#x221e;" 
d="M166 121c-92.667 0 -139 57 -139 171s45.667 171 137 171c50 0 88.667 -26 116 -78c27.333 52 66 78 116 78c91.333 0 137 -57 137 -171s-46.333 -171 -139 -171c-50 0 -88 25.667 -114 77c-26.667 -51.333 -64.667 -77 -114 -77zM185 348
c-24 0 -35.999 -18.667 -35.999 -56s12 -56 36 -56c8.66699 0 16.667 4.5 24 13.5s16 23.167 26 42.5c-18.667 37.333 -35.334 56 -50.001 56zM375.001 236c24 0 36.001 18.667 36.001 56s-12 56 -36 56c-14.667 0 -31.334 -18.667 -50.001 -56
c10 -19.333 18.667 -33.5 26 -42.5s15.333 -13.5 24 -13.5z" />
    <glyph glyph-name="integral" unicode="&#x222b;" 
d="M345 -16c0 -122 -49.667 -183.002 -149 -183.002c-20 0 -47.333 3.33301 -82 10l-15 3l4 110c16.667 -2 34.5 -3 53.5 -3s32.167 4.83301 39.5 14.5s11 26.834 11 51.501v606c0 70.667 11 119.667 33 147s60.667 41 116 41c22 0 51 -3.66699 87 -11l18 -3l-4 -110
c-21.333 2.66699 -42 4 -62 4s-33.333 -5.16699 -40 -15.5s-10 -28.166 -10 -53.499v-608z" />
    <glyph glyph-name="approxequal" unicode="&#x2248;" 
d="M383.5 265c-19 0 -54.999 7.33398 -107.999 22.001s-86 22 -99 22s-28.667 -3.16699 -47 -9.5s-32.833 -12.833 -43.5 -19.5l-17 -10l-10 107c14.667 12.667 34.5 24.5 59.5 35.5s46.667 16.5 65 16.5s53 -7.33301 104 -22s83.167 -22 96.5 -22c26 0 56 9.66699 90 29
l17 9l8 -107c-12.667 -12.667 -30.334 -24.334 -53.001 -35.001s-43.5 -16 -62.5 -16zM383.501 45.001c-19 0 -54.999 7.33398 -107.999 22.001s-86 22 -99 22s-28.667 -3.16699 -47 -9.5s-32.833 -12.833 -43.5 -19.5l-17 -10l-10 107c14.667 12.667 34.5 24.5 59.5 35.5
s46.667 16.5 65 16.5s53 -7.33301 104 -22s83.167 -22 96.5 -22c26 0 56 9.66699 90 29l17 9l8 -107c-12.667 -12.667 -30.334 -24.334 -53.001 -35.001s-43.5 -16 -62.5 -16z" />
    <glyph glyph-name="notequal" unicode="&#x2260;" 
d="M57 295v121h228l68 154l104 -41l-50 -113h94v-121h-147l-38 -87h185v-121h-238l-63 -143l-104 41l45 102h-84v121h137l38 87h-175z" />
    <glyph glyph-name="lessequal" unicode="&#x2264;" 
d="M487 386l-272 -49l272 -54v-130l-421 121v116l421 126v-130zM66 19v120h421v-120h-421z" />
    <glyph glyph-name="greaterequal" unicode="&#x2265;" 
d="M345 337l-272 49v130l421 -126v-116l-421 -121v130zM494 139v-120h-421v120h421z" />
    <glyph glyph-name="lozenge" unicode="&#x25ca;" 
d="M193 0l-149 324l149 336h175l148 -336l-148 -324h-175zM289 114l94 210l-94 222h-17l-95 -222l95 -210h17z" />
    <glyph glyph-name="dotlessj" unicode="&#xf6be;" horiz-adv-x="259" 
d="M63 24v476h134v-477c0 -68 -11.833 -118.167 -35.5 -150.5s-71.167 -66.5 -142.5 -102.5l-53 99c30 20 51 35.667 63 47s20.667 24.833 26 40.5s8 38.167 8 67.5z" />
    <glyph glyph-name="commaaccent" unicode="&#xf6c3;" horiz-adv-x="170" 
d="M-5 -311l46 234h130l-55 -234h-121z" />
    <glyph glyph-name=".null" horiz-adv-x="0" 
 />
    <glyph glyph-name="nonmarkingreturn" horiz-adv-x="333" 
 />
    <glyph glyph-name="CR" horiz-adv-x="235" 
 />
    <glyph glyph-name="DLE" horiz-adv-x="0" 
 />
    <glyph glyph-name="zero.pnum" horiz-adv-x="536" 
d="M268 509c72.667 0 128.667 -20.5 168 -61.5s59 -108.833 59 -203.5s-19.167 -160.5 -57.5 -197.5s-94.833 -55.5 -169.5 -55.5s-131.167 18.5 -169.5 55.5s-57.5 102.833 -57.5 197.5s19.667 162.5 59 203.5s95.333 61.5 168 61.5zM268 395
c-35.333 0 -61.166 -10.667 -77.499 -32s-24.5 -59.833 -24.5 -115.5s8.16699 -93.334 24.5 -113.001s42.166 -29.5 77.499 -29.5s61.166 9.83301 77.499 29.5s24.5 57.334 24.5 113.001s-8.16699 94.167 -24.5 115.5s-42.166 32 -77.499 32z" />
    <glyph glyph-name="one.pnum" horiz-adv-x="396" 
d="M331 500v-500h-125v355l-147 -77l-46 101l213 121h105z" />
    <glyph glyph-name="two.pnum" horiz-adv-x="487" 
d="M445 0l-401 0.00195312v109l127 91c52 36.667 87.167 64.5 105.5 83.5s27.5 38.167 27.5 57.5s-7.83301 32.166 -23.5 38.499s-36 9.5 -61 9.5s-49.5 -1 -73.5 -3c-62.667 -6.66699 -94 -10.334 -94 -11.001l-8 114c80 13.333 146.333 20 199 20
c130.667 0 196 -49.667 196 -149c0 -40.667 -9.66699 -73.5 -29 -98.5s-53.333 -54.5 -102 -88.5l-83 -58h220v-115z" />
    <glyph glyph-name="three.pnum" horiz-adv-x="481" 
d="M44 491c76.667 12.667 143.334 19 200.001 19s101.167 -9.5 133.5 -28.5s48.5 -50.833 48.5 -95.5c0 -54.667 -21.333 -94.334 -64 -119.001c52.667 -23.333 79 -62.166 79 -116.499s-18.333 -94.5 -55 -120.5s-84.667 -39 -144 -39c-49.333 0 -107 5.66699 -173 17
l-33 5l15 114c73.333 -7.33301 130.666 -11 171.999 -11s67.166 3.5 77.499 10.5s15.5 18.167 15.5 33.5c0 24.667 -26 37 -78 37h-132v110h131c42.667 0 64 14.333 64 43c0 26.667 -21.667 40 -65 40c-45.333 0 -96.666 -2.66699 -153.999 -8l-26 -3z" />
    <glyph glyph-name="four.pnum" horiz-adv-x="484" 
d="M288 0v82h-259v90l126 328h133l-122 -298h122v114h125v-114h41v-120h-41v-82h-125z" />
    <glyph glyph-name="five.pnum" horiz-adv-x="506" 
d="M449 504l0.000976562 -131.999h-261l-12 -67c29.333 12 59.666 18 90.999 18c65.333 0 115.333 -13.667 150 -41s52 -67.333 52 -120s-18.167 -94.334 -54.5 -125.001s-88.833 -46 -157.5 -46c-53.333 0 -115 8 -185 24l-35 8l15 114c84 -16 151.5 -24 202.5 -24
s76.5 14 76.5 42c0 33.333 -27.333 50 -82 50c-22 0 -49.667 -5.33301 -83 -16l-15 -5l-99 19l22 301h375z" />
    <glyph glyph-name="six.pnum" horiz-adv-x="511" 
d="M269 399c-68.667 0 -102.997 -34.002 -102.997 -102.002c45.333 18 85.333 27 120 27c128 0 192 -55.667 192 -167c0 -52.667 -20.833 -93.667 -62.5 -123s-96.834 -44 -165.501 -44s-120.667 20.833 -156 62.5s-53 107.834 -53 198.501s21.167 156.334 63.5 197.001
s97.166 61 164.499 61c59.333 0 111.666 -3.66699 156.999 -11l24 -4l-9 -104c-72 6 -129.333 9 -172 9zM265.003 206.998c-23.333 0 -51 -3 -83 -9l-16 -3c2 -63.333 34.333 -95 97 -95c60 0 90 19 90 57c0 33.333 -29.333 50 -88 50z" />
    <glyph glyph-name="seven.pnum" horiz-adv-x="421" 
d="M27 390v110h367v-133l-197 -376l-107 29l185 347v23h-248z" />
    <glyph glyph-name="eight.pnum" horiz-adv-x="502" 
d="M251 509c62 0 110.669 -11.5 146.002 -34.5s53 -57.667 53 -104s-21.333 -82.833 -64 -109.5c17.333 -11.333 30.166 -20.333 38.499 -27s16.666 -18.5 24.999 -35.5s12.5 -37.833 12.5 -62.5c0 -48.667 -19.667 -85.167 -59 -109.5s-90 -36.5 -152 -36.5
s-112.667 12.167 -152 36.5s-59 60.833 -59 109.5c0 32 6.66699 57.5 20 76.5s32 35.167 56 48.5c-42.667 26.667 -64 63.167 -64 109.5s17.667 81 53 104s84 34.5 146 34.5zM251.002 98c57.333 0 86 16.666 86 49.999c0 15.333 -4.5 27.333 -13.5 36
s-23.167 16.334 -42.5 23.001h-60c-37.333 -13.333 -56 -33 -56 -59c0 -33.333 28.667 -50 86 -50zM251.002 400.999c-25.333 0 -44 -4.33398 -56 -13.001s-18 -19 -18 -31c0 -25.333 14.667 -43.666 44 -54.999h60c29.333 10 44 28.667 44 56c0 12 -6 22.167 -18 30.5
s-30.667 12.5 -56 12.5z" />
    <glyph glyph-name="nine.pnum" horiz-adv-x="486" 
d="M224 103c30 0 53.332 9 69.999 27s25 42.667 25 74l-11 -4c-24 -9.33301 -53.667 -14 -89 -14c-122.667 0 -184 51.667 -184 155c0 53.333 18.333 94.833 55 124.5s85.334 44.5 146.001 44.5c140 0 210 -86.333 210 -259c0 -90.667 -20.167 -156.667 -60.5 -198
s-94.166 -62 -161.499 -62c-59.333 0 -109 5.66699 -149 17l-20 5l12 103c51.333 -8.66699 103.666 -13 156.999 -13zM159.999 343c0 -32.667 26.332 -49 78.999 -49c28 0 52.667 5.66699 74 17c-1.33301 59.333 -28.666 89 -81.999 89c-24.667 0 -42.667 -4.5 -54 -13.5
s-17 -23.5 -17 -43.5z" />
    <glyph glyph-name="questiondown.cap" horiz-adv-x="425" 
d="M74.5 27c-32.333 26 -48.499 65 -48.499 117s5.16699 89.833 15.5 113.5s32.166 48 65.499 73s54.333 44.167 63 57.5s13 28 13 44v31h107c20.667 -22.667 31 -53 31 -91c0 -24 -21.167 -53 -63.5 -87s-68.333 -57.5 -78 -70.5s-14.5 -28.833 -14.5 -47.5
c0 -39.333 28.333 -59 85 -59c40 0 81 4 123 12l21 4l7 -101c-57.333 -23.333 -118 -35 -182 -35s-112.167 13 -144.5 39zM312.001 680v-161h-144v161h144z" />
    <glyph glyph-name="endash.cap" horiz-adv-x="618" 
d="M59 353h500v-114h-500v114z" />
    <glyph glyph-name="emdash.cap" horiz-adv-x="1118" 
d="M59 353h1000v-114h-1000v114z" />
    <glyph glyph-name="periodcentered.cap" horiz-adv-x="256" 
d="M56 245v166h144v-166h-144z" />
    <glyph glyph-name="exclamdown.cap" horiz-adv-x="280" 
d="M212 681v-161h-144v161h144zM199 431l13 -430h-145l14 430h118z" />
    <glyph glyph-name="parenleft.cap" horiz-adv-x="308" 
d="M186 331c0 -58.667 7.99707 -123.5 23.9971 -194.5s32 -127.167 48 -168.5l23 -63h-127c-9.33301 14.667 -21.666 39.334 -36.999 74.001s-28.166 67.667 -38.499 99s-19.666 70.166 -27.999 116.499s-12.5 91.833 -12.5 136.5s4 90.667 12 138s17.667 88.666 29 123.999
c24 74.667 45 129.334 63 164.001l12 23h127c-22.667 -58 -44.167 -132.667 -64.5 -224s-30.5 -166.333 -30.5 -225z" />
    <glyph glyph-name="parenright.cap" horiz-adv-x="308" 
d="M122 359c0 58.667 -7.83008 123.5 -23.4971 194.5s-31.5 127.167 -47.5 168.5l-24 63h127c9.33301 -14.667 21.666 -39.334 36.999 -74.001s28.166 -67.667 38.499 -99s19.666 -70.166 27.999 -116.499s12.5 -91.833 12.5 -136.5s-4 -90.667 -12 -138
s-17.667 -88.666 -29 -123.999c-24 -74.667 -45 -129.334 -63 -164.001l-12 -23h-127c22.667 58 44.167 132.667 64.5 224s30.5 166.333 30.5 225z" />
    <glyph glyph-name="bracketleft.cap" horiz-adv-x="355" 
d="M320 779v-120h-115v-632h115v-120h-252v872h252z" />
    <glyph glyph-name="bracketright.cap" horiz-adv-x="355" 
d="M35 659v120h252v-872h-252v120h115v632h-115z" />
    <glyph glyph-name="braceleft.cap" horiz-adv-x="361" 
d="M251 606l7.00098 -127.998c0 -42 -6.83301 -72 -20.5 -90s-44.167 -32.667 -91.5 -44c46.667 -11.333 77.167 -27.166 91.5 -47.499s21.5 -51.833 21.5 -94.5l-7 -117c0 -22.667 4.83301 -40.334 14.5 -53.001s28.5 -20 56.5 -22v-114c-74 2.66699 -126.167 17 -156.5 43
s-45.5 69 -45.5 129l7 121c0 48.667 -37.333 82.667 -112 102v104c74.667 17.333 112 48.666 112 93.999l-7 127c0 63.333 15.167 107.666 45.5 132.999s83.166 39.333 158.499 42v-114c-28.667 -2.66699 -48.167 -9.66699 -58.5 -21s-15.5 -28 -15.5 -50z" />
    <glyph glyph-name="braceright.cap" horiz-adv-x="362" 
d="M110 77l-7.00098 127.998c0 42 6.83301 72 20.5 90s44.167 32.667 91.5 44c-46.667 11.333 -77.167 27.166 -91.5 47.499s-21.5 51.833 -21.5 94.5l7 117c0 22.667 -4.83301 40.334 -14.5 53.001s-28.5 20 -56.5 22v114c74 -2.66699 126.167 -17 156.5 -43
s45.5 -69 45.5 -129l-7 -121c0 -48.667 37.333 -82.667 112 -102v-104c-74.667 -17.333 -112 -48.666 -112 -93.999l7 -127c0 -63.333 -15.167 -107.666 -45.5 -132.999s-83.166 -39.333 -158.499 -42v114c28.667 2.66699 48.167 9.66699 58.5 21s15.5 28 15.5 50z" />
    <glyph glyph-name="grave.cap" horiz-adv-x="268" 
d="M50 945l252 -106l-33 -93l-260 79z" />
    <glyph glyph-name="acute.cap" horiz-adv-x="268" 
d="M1 839l252 106l41 -120l-260 -79z" />
    <glyph glyph-name="circumflex.cap" horiz-adv-x="486" 
d="M24 765l134 149h117l134 -149h-142l-49 56l-52 -56h-142z" />
    <glyph glyph-name="caron.cap" horiz-adv-x="268" 
d="M88 765l-134 149h142l52 -56l49 56h142l-134 -149h-117z" />
    <glyph glyph-name="tilde.cap" horiz-adv-x="268" 
d="M236 758c-17.333 0 -47.167 7.66699 -89.5 23s-67.833 23 -76.5 23c-16.667 0 -39 -10.667 -67 -32l-14 -10l-29 96c13.333 16 30.5 30.667 51.5 44s41.333 20 61 20s49.834 -7.66699 90.501 -23s64.667 -23 72 -23c15.333 0 37.666 10.667 66.999 32l14 10l29 -97
c-14 -16 -31.333 -30.5 -52 -43.5s-39.667 -19.5 -57 -19.5z" />
    <glyph glyph-name="dieresis.cap" horiz-adv-x="268" 
d="M-42 764v132h128v-132h-128zM172 764v132h128v-132h-128z" />
    <glyph glyph-name="macron.cap" horiz-adv-x="268" 
d="M-25 782v98h347v-98h-347z" />
    <glyph glyph-name="breve.cap" horiz-adv-x="268" 
d="M112 869c11.333 -10.667 26.167 -16 44.5 -16s33.333 5.33301 45 16s18.5 24.334 20.5 41.001h121c-5.33301 -45.333 -23.5 -81.833 -54.5 -109.5s-75.167 -41.5 -132.5 -41.5s-101.333 13.833 -132 41.5s-48.667 64.167 -54 109.5h121
c2.66699 -16.667 9.66699 -30.334 21 -41.001z" />
    <glyph glyph-name="ring.cap" horiz-adv-x="268" 
d="M299 721c0 -39.333 -14.333 -70.166 -43 -92.499s-64.334 -33.5 -107.001 -33.5s-78.334 11.167 -107.001 33.5s-43 53.166 -43 92.499s14.333 70.166 43 92.499s64.334 33.5 107.001 33.5s78.334 -11.167 107.001 -33.5s43 -53.166 43 -92.499zM90 721
c0 -12.667 5.33301 -22.667 16 -30s25 -11 43 -11s32.333 3.66699 43 11s16 17.333 16 30s-5.33301 22.667 -16 30s-25 11 -43 11s-32.333 -3.66699 -43 -11s-16 -17.333 -16 -30z" />
    <glyph glyph-name="hungarumlaut.cap" horiz-adv-x="268" 
d="M185 775l67 197l116 -42l-78 -191zM-23 776l67 197l116 -42l-78 -191z" />
    <glyph glyph-name="dotaccent.cap" horiz-adv-x="268" 
d="M67 767v135h134v-135h-134z" />
    <glyph glyph-name="zero.numr" horiz-adv-x="280" 
d="M140 701c44 0 76.502 -12.667 97.502 -38s31.5 -68.833 31.5 -130.5s-10.333 -104.667 -31 -129s-53.334 -36.5 -98.001 -36.5s-77.334 12.167 -98.001 36.5s-31 67.333 -31 129s10.5 105.167 31.5 130.5s53.5 38 97.5 38zM140.002 606
c-4.66699 0 -8.33301 -1.50195 -11 -4.50195s-4.66699 -10 -6 -21s-2 -27.167 -2 -48.5s0.833008 -37.166 2.5 -47.499s3.66699 -16.666 6 -18.999s6.5 -3.5 12.5 -3.5s10.333 4 13 12s4 27.5 4 58.5s-1.33301 51 -4 60s-7.66699 13.5 -15 13.5z" />
    <glyph glyph-name="one.numr" horiz-adv-x="280" 
d="M222 690v-312h-106v195l-47 -32l-49 74l106 75h96z" />
    <glyph glyph-name="two.numr" horiz-adv-x="280" 
d="M255 378h-231v90l73 59c30.667 24.667 46 43.667 46 57c0 10 -12.333 15 -37 15l-76 -6l-4 99c48.667 6 90.667 9 126 9s61.333 -7.66699 78 -23s25 -37.5 25 -66.5s-4.33301 -51 -13 -66s-23 -29.833 -43 -44.5l-38 -28h94v-95z" />
    <glyph glyph-name="three.numr" horiz-adv-x="280" 
d="M135 701c80.667 0 120.999 -29.668 120.999 -89.001c0 -35.333 -9.66699 -58.666 -29 -69.999c23.333 -10 35 -33.333 35 -70c0 -70 -39.333 -105 -118 -105l-121 8l6 93c40.667 -4 71.334 -6 92.001 -6s31 5.33301 31 16c0 9.33301 -8.66699 14 -26 14h-66v85h64
c13.333 0 20 4.83301 20 14.5s-9 14.5 -27 14.5l-84 -5l-6 91c45.333 6 81.333 9 108 9z" />
    <glyph glyph-name="four.numr" horiz-adv-x="280" 
d="M147 378v35h-132v88l39 189h118l-52 -182h27l14 90h91v-90h11v-95h-11v-35h-105z" />
    <glyph glyph-name="five.numr" horiz-adv-x="280" 
d="M250 690l-0.000976562 -90h-124l-3 -25c18.667 4 33.334 6 44.001 6c62 0 93 -33 93 -99c0 -74 -39.333 -111 -118 -111c-30.667 0 -64 3.66699 -100 11l-18 3l8 85c37.333 -6 66.333 -9 87 -9s31 5.16699 31 15.5s-4.66699 15.5 -14 15.5l-26 -4l-78 11l11 191h207z" />
    <glyph glyph-name="six.numr" horiz-adv-x="280" 
d="M122 582c20 3.33301 32.667 5 38 5c36 0 62.333 -8.66699 79 -26s25 -43.833 25 -79.5s-11.167 -63.667 -33.5 -84s-50.833 -30.5 -85.5 -30.5c-87.333 0 -131 51.667 -131 155c0 59.333 10.167 104 30.5 134s55.833 45 106.5 45c21.333 0 50 -3 86 -9l18 -3l-6 -87
c-44 4 -76.167 6 -96.5 6s-30.5 -8.66699 -30.5 -26zM141 501c-7.33301 0 -13.667 -2.66699 -19 -8c0 -22.667 5.83301 -34 17.5 -34s17.5 7 17.5 21s-5.33301 21 -16 21z" />
    <glyph glyph-name="seven.numr" horiz-adv-x="280" 
d="M31 585v105h227v-101l-95 -221l-121 19l91 185v13h-102z" />
    <glyph glyph-name="eight.numr" horiz-adv-x="280" 
d="M16 612c0 59.333 41.168 89.002 123.501 89.002s123.5 -30 123.5 -90c0 -13.333 -2.16699 -25.833 -6.5 -37.5s-8.83301 -20.167 -13.5 -25.5l-7 -8c8.66699 -6 16 -15.167 22 -27.5s9 -25.833 9 -40.5c0 -38 -10.667 -65 -32 -81s-53.5 -24 -96.5 -24s-75 8 -96 24
s-31.5 43 -31.5 81c0 13.333 2.66699 25.666 8 36.999s10.666 19.666 15.999 24.999l8 7c-18 13.333 -27 37 -27 71zM139.001 452.002c12.667 0 19 7.33301 19 22c0 8.66699 -4 17 -12 25h-14c-8 -8 -12 -16.333 -12 -25c0 -14.667 6.33301 -22 19 -22zM139.001 616.002
c-12 0 -18 -6.33301 -18 -19c0 -8 3.66699 -16.333 11 -25h14c7.33301 8.66699 11 17 11 25c0 12.667 -6 19 -18 19z" />
    <glyph glyph-name="nine.numr" horiz-adv-x="280" 
d="M154 485c-13.333 -2.66699 -25.001 -4 -35.001 -4c-68 0 -102 34.667 -102 104c0 36.667 10.667 65.167 32 85.5s50.333 30.5 87 30.5c87.333 0 131 -55 131 -165c0 -58 -10 -100.667 -30 -128s-53.667 -41 -101 -41c-28 0 -58.667 3.66699 -92 11l-16 3l6 87
c32.667 -4 60.834 -6 84.501 -6s35.5 7.66699 35.5 23zM139.999 608c-10.667 0 -16 -7.5 -16 -22.5s5.33301 -22.5 16 -22.5l19 6c0 26 -6.33301 39 -19 39z" />
    <glyph glyph-name="zero.slash" 
d="M251 275v100h58v-100h-58zM280 672c84.667 0 148.5 -27.333 191.5 -82s64.5 -142.5 64.5 -263.5s-21.333 -207.667 -64 -260s-106.667 -78.5 -192 -78.5s-149.333 26.167 -192 78.5s-64 139 -64 260s21.5 208.833 64.5 263.5s106.833 82 191.5 82zM368 502.5
c-17.333 33 -46.5 49.5 -87.5 49.5s-70.333 -16.667 -88 -50s-26.5 -91 -26.5 -173s9 -139.333 27 -172s47.333 -49 88 -49s69.667 16.333 87 49s26 90.167 26 172.5s-8.66699 140 -26 173z" />
    <glyph glyph-name="at.cap" horiz-adv-x="968" 
d="M942 305v-7.99902c0 -102.667 -16.167 -177.834 -48.5 -225.501s-80.5 -71.5 -144.5 -71.5c-47.333 0 -86 12 -116 36c-6.66699 5.33301 -12.334 12 -17.001 20c-53.333 -37.333 -102.666 -56 -147.999 -56c-62.667 0 -109.5 19.5 -140.5 58.5s-46.5 102 -46.5 189
s14.5 150.833 43.5 191.5s78.167 61 147.5 61c23.333 0 48.666 -6 75.999 -18l15 -7v13h134v-179c0 -92 1.83301 -144.667 5.5 -158s7.66699 -22.666 12 -27.999s8.83301 -8.5 13.5 -9.5s11 -1.5 19 -1.5c21.333 0 36.833 13 46.5 39s14.5 74.667 14.5 146v9
c0 106.667 -24.5 184.167 -73.5 232.5s-127 72.5 -234 72.5s-188.833 -30.667 -245.5 -92s-85 -150.5 -85 -267.5s25.333 -203.333 76 -259s135.667 -83.5 255 -83.5l143 9l5 -117c-60 -6.66699 -109.333 -10 -148 -10c-76.667 0 -142.667 7.66699 -198 23
s-103.666 40.666 -144.999 75.999c-81.333 71.333 -122 195 -122 371c0 154 41.667 270.5 125 349.5s197.333 118.5 342 118.5s254 -36.167 328 -108.5s111 -177.5 111 -315.5zM479 118.001c25.333 0 55.333 8.33301 90 25c-4 24 -6 59.333 -6 106v123
c-28 6.66699 -48.333 10 -61 10c-34.667 0 -57.5 -9.66699 -68.5 -29s-16.5 -53.333 -16.5 -102c0 -88.667 20.667 -133 62 -133z" />
    <glyph glyph-name="zero.dnom" horiz-adv-x="280" 
d="M140 323c44 0 76.502 -12.667 97.502 -38s31.5 -68.833 31.5 -130.5s-10.333 -104.667 -31 -129s-53.334 -36.5 -98.001 -36.5s-77.334 12.167 -98.001 36.5s-31 67.333 -31 129s10.5 105.167 31.5 130.5s53.5 38 97.5 38zM140.002 228
c-4.66699 0 -8.33301 -1.50195 -11 -4.50195s-4.66699 -10 -6 -21s-2 -27.167 -2 -48.5s0.833008 -37.166 2.5 -47.499s3.66699 -16.666 6 -18.999s6.5 -3.5 12.5 -3.5s10.333 4 13 12s4 27.5 4 58.5s-1.33301 51 -4 60s-7.66699 13.5 -15 13.5z" />
    <glyph glyph-name="one.dnom" horiz-adv-x="280" 
d="M223 312v-312h-106v195l-47 -32l-49 74l106 75h96z" />
    <glyph glyph-name="two.dnom" horiz-adv-x="280" 
d="M257 0h-231v90l73 59c30.667 24.667 46 43.667 46 57c0 10 -12.333 15 -37 15l-76 -6l-4 99c48.667 6 90.667 9 126 9s61.333 -7.66699 78 -23s25 -37.5 25 -66.5s-4.33301 -51 -13 -66s-23 -29.833 -43 -44.5l-38 -28h94v-95z" />
    <glyph glyph-name="three.dnom" horiz-adv-x="280" 
d="M135 323c80.667 0 120.999 -29.668 120.999 -89.001c0 -35.333 -9.66699 -58.666 -29 -69.999c23.333 -10 35 -33.333 35 -70c0 -70 -39.333 -105 -118 -105l-121 8l6 93c40.667 -4 71.334 -6 92.001 -6s31 5.33301 31 16c0 9.33301 -8.66699 14 -26 14h-66v85h64
c13.333 0 20 4.83301 20 14.5s-9 14.5 -27 14.5l-84 -5l-6 91c45.333 6 81.333 9 108 9z" />
    <glyph glyph-name="four.dnom" horiz-adv-x="280" 
d="M149 0v35h-132v88l39 189h118l-52 -182h27l14 90h91v-90h11v-95h-11v-35h-105z" />
    <glyph glyph-name="five.dnom" horiz-adv-x="280" 
d="M247 312l-0.000976562 -90h-124l-3 -25c18.667 4 33.334 6 44.001 6c62 0 93 -33 93 -99c0 -74 -39.333 -111 -118 -111c-30.667 0 -64 3.66699 -100 11l-18 3l8 85c37.333 -6 66.333 -9 87 -9s31 5.16699 31 15.5s-4.66699 15.5 -14 15.5l-26 -4l-78 11l11 191h207z" />
    <glyph glyph-name="six.dnom" horiz-adv-x="280" 
d="M120 204c20 3.33301 32.667 5 38 5c36 0 62.333 -8.66699 79 -26s25 -43.833 25 -79.5s-11.167 -63.667 -33.5 -84s-50.833 -30.5 -85.5 -30.5c-87.333 0 -131 51.667 -131 155c0 59.333 10.167 104 30.5 134s55.833 45 106.5 45c21.333 0 50 -3 86 -9l18 -3l-6 -87
c-44 4 -76.167 6 -96.5 6s-30.5 -8.66699 -30.5 -26zM139 123c-7.33301 0 -13.667 -2.66699 -19 -8c0 -22.667 5.83301 -34 17.5 -34s17.5 7 17.5 21s-5.33301 21 -16 21z" />
    <glyph glyph-name="seven.dnom" horiz-adv-x="280" 
d="M29 207v105h227v-101l-95 -221l-121 19l91 185v13h-102z" />
    <glyph glyph-name="eight.dnom" horiz-adv-x="280" 
d="M17 234c0 59.333 41.168 89.002 123.501 89.002s123.5 -30 123.5 -90c0 -25.333 -6.66699 -46.333 -20 -63l-7 -8c8.66699 -6 16 -15.167 22 -27.5s9 -25.833 9 -40.5c0 -38 -10.667 -65 -32 -81s-53.5 -24 -96.5 -24s-75 8 -96 24s-31.5 43 -31.5 81
c0 13.333 2.66699 25.666 8 36.999s10.666 19.666 15.999 24.999l8 7c-18 13.333 -27 37 -27 71zM140.001 74.002c12.667 0 19 7.33301 19 22c0 8.66699 -4 17 -12 25h-14c-8 -8 -12 -16.333 -12 -25c0 -14.667 6.33301 -22 19 -22zM140.001 238.002
c-12 0 -18 -6.33301 -18 -19c0 -8 3.66699 -16.333 11 -25h14c7.33301 8.66699 11 17 11 25c0 12.667 -6 19 -18 19z" />
    <glyph glyph-name="nine.dnom" horiz-adv-x="280" 
d="M152 107c-13.333 -2.66699 -25.001 -4 -35.001 -4c-68 0 -102 34.667 -102 104c0 36.667 10.667 65.167 32 85.5s50.333 30.5 87 30.5c87.333 0 131 -55 131 -165c0 -58 -10 -100.667 -30 -128s-53.667 -41 -101 -41c-28 0 -58.667 3.66699 -92 11l-16 3l6 87
c32.667 -4 60.834 -6 84.501 -6s35.5 7.66699 35.5 23zM137.999 230c-10.667 0 -16 -7.5 -16 -22.5s5.33301 -22.5 16 -22.5l19 6c0 26 -6.33301 39 -19 39z" />
    <glyph glyph-name="hyphen.cap" horiz-adv-x="408" 
d="M56 235v122h296v-122h-296z" />
    </font>
</defs>
</svg>
